<svg xmlns="http://www.w3.org/2000/svg"  viewBox="0 0 48 48" width="48px" height="48px"><rect width="14" height="4" x="17" y="33" fill="#6c19ff"/><polygon fill="#6c19ff" points="39,28 35,28 35,15 27,15 27,11 39,11"/><polygon fill="#6c19ff" points="13,28 9,28 9,11 21,11 21,15 13,15"/><polygon fill="#7debf5" points="3,39.571 11,44.143 19,30.429 11,25.857 3,30.429"/><polygon fill="#3dd9eb" points="3,39.536 11,44.107 11,34.964 3,30.393"/><polygon fill="#c2ffff" points="11,44.107 19,39.536 19,30.393 11,34.964"/><polygon fill="#7debf5" points="29,39.571 37,44.143 45,30.429 37,25.857 29,30.429"/><polygon fill="#3dd9eb" points="29,39.536 37,44.107 37,34.964 29,30.393"/><polygon fill="#c2ffff" points="37,44.107 45,39.536 45,30.393 37,34.964"/><polygon fill="#7debf5" points="16,17.571 24,22.143 32,8.429 24,3.857 16,8.429"/><polygon fill="#3dd9eb" points="16,17.536 24,22.107 24,12.964 16,8.393"/><polygon fill="#c2ffff" points="24,22.107 32,17.536 32,8.393 24,12.964"/><rect width="3" height="4" x="16" y="11" fill="#00b3d7"/><rect width="3" height="4" x="29" y="33" fill="#00b3d7"/><rect width="3" height="4" x="29" y="11" fill="#7debf5"/><rect width="3" height="4" x="16" y="33" fill="#7debf5"/></svg>