<svg xmlns="http://www.w3.org/2000/svg" width="48" height="48" viewBox="0 0 48 48"><path fill="#3dd9eb" d="M15,23H6v-9h9V23z"/><path fill="#3dd9eb" d="M15,41H6v-9h9V41z"/><path fill="#3dd9eb" d="M33,41h-9v-9h9V41z"/><rect width="9" height="9" x="6" y="23" fill="#00b3d7"/><rect width="9" height="9" x="15" y="32" fill="#00b3d7"/><path fill="#3dd9eb" d="M24,32h-9v-9h9V32z"/><path fill="#3dd9eb" d="M42,15h-9V6h9V15z"/><path fill="#3dd9eb" d="M29.864,13.5L23.5,19.864L17.136,13.5L23.5,7.136L29.864,13.5z"/><path fill="#3dd9eb" d="M42.08,26.559l-8.64,2.521l-2.521-8.64l8.64-2.521L42.08,26.559z"/></svg>