<svg xmlns="http://www.w3.org/2000/svg" width="128" height="128" viewBox="0 0 512 512"><path fill="#ef3734" d="M106,396c13.81,0,25,11.19,25,25s-11.19,25-25,25c-13.81,0-25-11.19-25-25S92.19,396,106,396z"/><path fill="#ef3734" d="M301,86c11.05,0,20,8.95,20,20s-8.95,20-20,20c-11.04,0-20-8.95-20-20S289.96,86,301,86z"/><path fill="#ff8a26" d="M321,446h80c0,11.04-4.48,21.04-11.721,28.28C382.05,481.52,372.05,486,361,486 C338.91,486,321,468.09,321,446z"/><path fill="#ff8a26" d="M121,316h80c0,11.04-4.48,21.04-11.72,28.28C182.05,351.52,172.05,356,161,356 C138.91,356,121,338.09,121,316z"/><path fill="#d6a885" d="M456.47,415.81c-3.42,11-8.7,21.181-15.46,30.19H401h-80h-40 c-10.77-14.32-17.77-31.63-19.551-50.46h0.021c57.92-5.01,104.07-51.16,109.07-109.08c20.29,1.91,38.81,9.89,53.739,22.11 C410.119,319.54,401,336.7,401,356c0,31.61,24.449,57.49,55.46,59.81H456.47z"/><path fill="#d6a885" d="M201,226c0,31.61,24.45,57.49,55.46,59.81h0.01c-3.42,11-8.7,21.181-15.46,30.19H201h-80H81 c-10.77-14.32-17.77-31.63-19.55-50.46h0.02c57.92-5.01,104.07-51.16,109.07-109.08c20.29,1.91,38.81,9.89,53.74,22.11 C210.12,189.54,201,206.7,201,226z"/><path fill="#ffc99c" d="M461,386c0,10.38-1.58,20.39-4.53,29.81h-0.01C425.449,413.49,401,387.61,401,356 c0-19.3,9.119-36.46,23.279-47.43C446.699,326.9,461,354.78,461,386z"/><path fill="#ffc99c" d="M361,286c3.22,0,6.4,0.15,9.54,0.46c-5,57.92-51.15,104.07-109.07,109.08h-0.021 C261.15,392.4,261,389.22,261,386C261,330.77,305.77,286,361,286z"/><path fill="#ffc99c" d="M261,256c0,10.38-1.58,20.39-4.53,29.81h-0.01C225.45,283.49,201,257.61,201,226 c0-19.3,9.12-36.46,23.28-47.43C246.7,196.9,261,224.78,261,256z"/><path fill="#ffc99c" d="M161,156c3.22,0,6.4,0.15,9.54,0.46c-5,57.92-51.15,104.07-109.07,109.08h-0.02 C61.15,262.4,61,259.22,61,256C61,200.77,105.77,156,161,156z"/><path d="M461,176c5.52,0,10,4.48,10,10s-4.48,10-10,10s-10-4.48-10-10S455.48,176,461,176z"/><path d="M421,76c5.52,0,10,4.48,10,10s-4.48,10-10,10s-10-4.48-10-10S415.48,76,421,76z"/><path d="M301,156c5.52,0,10,4.48,10,10s-4.48,10-10,10s-10-4.48-10-10S295.48,156,301,156z"/><path d="M221,416c5.52,0,10,4.48,10,10s-4.48,10-10,10s-10-4.48-10-10S215.48,416,221,416z"/><path d="M201,46c5.52,0,10,4.48,10,10s-4.48,10-10,10s-10-4.48-10-10S195.48,46,201,46z"/><path d="M81,96c5.52,0,10,4.48,10,10s-4.48,10-10,10s-10-4.48-10-10S75.48,96,81,96z"/><path d="M51,346c5.52,0,10,4.48,10,10s-4.48,10-10,10s-10-4.48-10-10S45.48,346,51,346z"/><path d="M161,366c-27.57,0-50-22.43-50-50c0-5.522,4.477-10,10-10s10,4.478,10,10c0,16.542,13.458,30,30,30 c8.015,0,15.545-3.12,21.204-8.786C187.878,331.54,191,324.008,191,316c0-5.522,4.477-10,10-10s10,4.478,10,10 c0,13.35-5.203,25.904-14.649,35.352C186.918,360.796,174.362,366,161,366z"/><path d="M61.458,275.541c-5.133,0-9.501-3.93-9.952-9.14c-0.476-5.502,3.599-10.348,9.101-10.824 c53.323-4.612,95.366-46.659,99.969-99.977c0.475-5.503,5.33-9.577,10.823-9.103c5.502,0.475,9.578,5.321,9.103,10.823 c-2.62,30.355-15.967,58.977-37.582,80.592c-21.614,21.615-50.235,34.965-80.59,37.591 C62.039,275.528,61.747,275.541,61.458,275.541z"/><path d="M256.471,295.81c-0.25,0-0.503-0.009-0.756-0.028C219.426,293.067,191,262.416,191,226 c0-21.796,9.898-41.965,27.155-55.335c4.366-3.383,10.646-2.586,14.03,1.781c3.382,4.366,2.585,10.647-1.781,14.03 C218.073,196.029,211,210.435,211,226c0,26.008,20.296,47.899,46.205,49.838c5.508,0.411,9.639,5.21,9.227,10.718 C266.039,291.81,261.654,295.81,256.471,295.81z"/><path d="M241.01,326H81c-3.143,0-6.103-1.478-7.992-3.989c-12.169-16.182-19.609-35.384-21.514-55.529 C51.167,263.051,51,259.521,51,256c0-60.654,49.346-110,110-110c3.566,0,7.106,0.171,10.522,0.508 c21.698,2.042,42.147,10.455,59.091,24.323C256.278,191.814,271,222.858,271,256c0,11.196-1.678,22.231-4.987,32.798 c-3.711,11.938-9.434,23.115-17.004,33.204C247.12,324.519,244.157,326,241.01,326z M86.159,306h149.688 c4.803-7.174,8.52-14.944,11.074-23.159c2.709-8.65,4.08-17.674,4.08-26.841c0-27.116-12.046-52.516-33.05-69.688 c-13.86-11.344-30.577-18.223-48.348-19.896c-2.811-0.277-5.69-0.416-8.603-0.416c-49.626,0-90,40.374-90,90 c0,2.89,0.136,5.779,0.404,8.59C72.808,279.438,77.887,293.654,86.159,306z"/><path d="M161,166c-5.523,0-10-4.477-10-10V26c0-5.523,4.477-10,10-10s10,4.477,10,10v130C171,161.523,166.523,166,161,166z"/><path d="M361,496c-27.57,0-50-22.43-50-50c0-5.522,4.477-10,10-10s10,4.478,10,10c0,16.542,13.458,30,30,30 c8.016,0,15.545-3.12,21.204-8.786C387.878,461.54,391,454.008,391,446c0-5.522,4.477-10,10-10s10,4.478,10,10 c0,13.35-5.203,25.904-14.648,35.352C386.918,490.796,374.362,496,361,496z"/><path d="M261.459,405.541c-5.134,0-9.501-3.93-9.952-9.14c-0.476-5.502,3.599-10.349,9.101-10.824 c53.324-4.612,95.367-46.658,99.97-99.978c0.476-5.502,5.333-9.579,10.823-9.103c5.502,0.475,9.578,5.32,9.103,10.823 c-2.62,30.354-15.968,58.976-37.581,80.592c-21.615,21.615-50.235,34.965-80.59,37.591 C262.039,405.528,261.747,405.541,261.459,405.541z"/><path d="M456.471,425.81c-0.25,0-0.503-0.009-0.756-0.028C419.426,423.067,391,392.416,391,356 c0-21.797,9.898-41.966,27.156-55.335c4.365-3.382,10.646-2.585,14.029,1.781c3.382,4.366,2.584,10.647-1.781,14.029 C418.072,326.028,411,340.435,411,356c0,26.009,20.296,47.899,46.205,49.838c5.508,0.411,9.639,5.21,9.227,10.718 C466.039,421.81,461.654,425.81,456.471,425.81z"/><path d="M441.01,456H281c-3.143,0-6.104-1.478-7.992-3.989c-12.17-16.182-19.609-35.384-21.514-55.529 C251.167,393.051,251,389.521,251,386c0-60.654,49.346-110,110-110c3.561,0,7.101,0.171,10.521,0.508 c21.7,2.043,42.148,10.456,59.092,24.324C456.278,321.814,471,352.858,471,386c0,11.196-1.678,22.231-4.987,32.798 c-3.711,11.938-9.435,23.115-17.005,33.204C447.119,454.519,444.156,456,441.01,456z M286.158,436h149.688 c4.803-7.174,8.521-14.944,11.073-23.159c2.709-8.65,4.08-17.674,4.08-26.841c0-27.115-12.047-52.516-33.05-69.688 c-13.859-11.345-30.576-18.224-48.348-19.896C366.787,296.139,363.908,296,361,296c-49.626,0-90,40.374-90,90 c0,2.89,0.137,5.779,0.404,8.59C272.809,409.438,277.887,423.654,286.158,436z"/><path d="M361,296c-5.523,0-10-4.478-10-10V26c0-5.523,4.477-10,10-10s10,4.477,10,10v260C371,291.522,366.523,296,361,296z"/><path d="M301,136c-16.542,0-30-13.458-30-30s13.458-30,30-30s30,13.458,30,30S317.542,136,301,136z M301,96 c-5.514,0-10,4.486-10,10s4.486,10,10,10s10-4.486,10-10S306.514,96,301,96z"/><path d="M106,456c-19.299,0-35-15.701-35-35s15.701-35,35-35s35,15.701,35,35S125.299,456,106,456z M106,406 c-8.271,0-15,6.729-15,15s6.729,15,15,15s15-6.729,15-15S114.271,406,106,406z"/><path d="M431,226c-5.523,0-10-4.477-10-10v-50c0-5.523,4.477-10,10-10s10,4.477,10,10v50C441,221.523,436.523,226,431,226z"/><path d="M461,286c-5.523,0-10-4.478-10-10v-60c0-5.523,4.477-10,10-10s10,4.477,10,10v60C471,281.522,466.523,286,461,286z"/></svg>