<svg xmlns="http://www.w3.org/2000/svg" width="48" height="48" viewBox="0 0 48 48"><polygon fill="#6c19ff" points="38 42 10 42 10 6 38 6 38 13.784"/><rect width="6" height="8" x="21" y="1" fill="#f5bc00"/><path fill="#00b3d7" d="M33.5,34h-19l0.812-3.643C15.708,27.848,17.871,26,20.411,26h7.179c2.54,0,4.702,1.848,5.099,4.357 L33.5,34z"/><path fill="#3dd9eb" d="M24,26.814L24,26.814c-2.432,0-4.481-1.818-4.771-4.233l-0.236-1.966 c-0.36-3.002,1.984-5.644,5.007-5.644h0c3.023,0,5.367,2.642,5.007,5.644l-0.236,1.966C28.481,24.996,26.432,26.814,24,26.814z"/><path fill="#3ddab4" d="M46,38c0,5.522-4.478,10-10,10s-10-4.478-10-10s4.478-10,10-10S46,32.478,46,38z"/><rect width="17.854" height="2.824" x="31.863" y="34.182" fill="#6c19ff" transform="rotate(-46.06 40.79 35.593)"/><path fill="#2100c4" d="M43.198,31.059l-9.619,9.984l2.034,1.96l9.262-9.614C44.429,32.532,43.863,31.748,43.198,31.059z"/><rect width="2.824" height="8.428" x="32.138" y="34.857" fill="#2100c4" transform="rotate(-46.188 33.548 39.07)"/><rect width="6" height="3" x="21" y="6" fill="#eb7900"/><path fill="#3dd9eb" d="M28.5,23h-9c-0.553,0-1-0.448-1-1s0.447-1,1-1h9c0.553,0,1,0.448,1,1S29.053,23,28.5,23z"/></svg>