<svg xmlns="http://www.w3.org/2000/svg" width="48" height="48" viewBox="0 0 48 48"><path fill="#6c19ff" d="M40,39H8V9c0-2.209,1.791-4,4-4h28V39z"/><path fill="#6c19ff" d="M8,9v30.5l4-0.5V5C9.791,5,8,6.791,8,9z"/><path fill="#a64aff" d="M40,43H11.5C9.567,43,8,41.433,8,39.5v0c0-1.933,1.567-3.5,3.5-3.5H40V43z"/><polygon fill="#f55376" points="13 36 13 48 17.5 46 22 48 22 36"/><rect width="9" height="7" x="13" y="36" fill="#eb0000"/><rect width="3" height="3" x="13" y="7" fill="#2100c4"/><rect width="3" height="3" x="13" y="13" fill="#2100c4"/><rect width="3" height="3" x="13" y="19" fill="#2100c4"/><rect width="3" height="3" x="13" y="25" fill="#2100c4"/><rect width="3" height="3" x="13" y="31" fill="#2100c4"/></svg>