<svg xmlns="http://www.w3.org/2000/svg" width="64" height="64" viewBox="0 0 256 256"><rect width="55.635" height="108.333" x="19" y="121.667" fill="#e0ebfc"/><rect width="55.635" height="108.333" x="181.365" y="121.667" fill="#e0ebfc"/><path fill="#4671c6" d="M224.591,69.542C223.623,67.387,221.48,66,219.117,66H128H36.883c-2.363,0-4.505,1.387-5.473,3.542 L9.266,118.847c-0.594,1.323,0.374,2.819,1.824,2.819H128h116.909c1.451,0,2.419-1.496,1.824-2.819L224.591,69.542z"/><path fill="#3762cc" d="M244.909,123.667H11.091c-1.363,0-2.618-0.683-3.358-1.827s-0.849-2.569-0.29-3.813l22.143-49.305 C30.873,65.854,33.737,64,36.883,64h182.234c3.146,0,6.01,1.854,7.298,4.723l22.143,49.306c0.559,1.242,0.45,2.667-0.29,3.812 S246.272,123.667,244.909,123.667z M36.883,68c-1.572,0-3.005,0.927-3.649,2.361l-22.143,49.306h233.818l-22.143-49.306l0,0 c-0.645-1.435-2.077-2.361-3.649-2.361H36.883z"/><path fill="#3762cc" d="M237,232H19c-1.104,0-2-0.896-2-2V121.667c0-1.104,0.896-2,2-2h218c1.104,0,2,0.896,2,2V230 C239,231.104,238.104,232,237,232z M21,228h214V123.667H21V228z"/><path fill="#a4c9ff" d="M224.682,165.675h-15.5v-28h15.5c1.105,0,2,0.895,2,2v24C226.682,164.779,225.787,165.675,224.682,165.675z"/><path fill="#a4c9ff" d="M224.682,209.675h-15.5v-28h15.5c1.105,0,2,0.895,2,2v24C226.682,208.779,225.787,209.675,224.682,209.675z"/><path fill="#a4c9ff" d="M46.818,165.675h-15.5c-1.105,0-2-0.895-2-2v-24c0-1.105,0.895-2,2-2h15.5V165.675z"/><path fill="#a4c9ff" d="M46.818,209.675h-15.5c-1.105,0-2-0.895-2-2v-24c0-1.105,0.895-2,2-2h15.5V209.675z"/><path fill="#a4c9ff" d="M209.182,165.675h-15.5c-1.105,0-2-0.895-2-2v-24c0-1.105,0.895-2,2-2h15.5V165.675z"/><path fill="#a4c9ff" d="M209.182,209.675h-15.5c-1.105,0-2-0.895-2-2v-24c0-1.105,0.895-2,2-2h15.5V209.675z"/><path fill="#a4c9ff" d="M62.318,165.675h-15.5v-28h15.5c1.105,0,2,0.895,2,2v24C64.318,164.779,63.422,165.675,62.318,165.675z"/><path fill="#a4c9ff" d="M62.318,209.675h-15.5v-28h15.5c1.105,0,2,0.895,2,2v24C64.318,208.779,63.422,209.675,62.318,209.675z"/><path fill="#3762cc" d="M224.683,167.675h-15.5c-1.104,0-2-0.896-2-2v-28c0-1.104,0.896-2,2-2h15.5c2.206,0,4,1.794,4,4v24 C228.683,165.881,226.889,167.675,224.683,167.675z M211.183,163.675h13.503l-0.003-24h-13.5V163.675z"/><path fill="#3762cc" d="M224.683,211.675h-15.5c-1.104,0-2-0.896-2-2v-28c0-1.104,0.896-2,2-2h15.5c2.206,0,4,1.794,4,4v24 C228.683,209.881,226.889,211.675,224.683,211.675z M211.183,207.675h13.503l-0.003-24h-13.5V207.675z"/><path fill="#3762cc" d="M46.817,167.675h-15.5c-2.206,0-4-1.794-4-4v-24c0-2.206,1.794-4,4-4h15.5c1.104,0,2,0.896,2,2v28 C48.817,166.779,47.922,167.675,46.817,167.675z M31.317,139.675v24h13.5v-24H31.317z"/><path fill="#3762cc" d="M46.817,211.675h-15.5c-2.206,0-4-1.794-4-4v-24c0-2.206,1.794-4,4-4h15.5c1.104,0,2,0.896,2,2v28 C48.817,210.779,47.922,211.675,46.817,211.675z M31.317,183.675v24h13.5v-24H31.317z"/><path fill="#3762cc" d="M209.183,167.675h-15.5c-2.206,0-4-1.794-4-4v-24c0-2.206,1.794-4,4-4h15.5c1.104,0,2,0.896,2,2v28 C211.183,166.779,210.287,167.675,209.183,167.675z M193.683,139.675v24h13.5v-24H193.683z"/><path fill="#3762cc" d="M209.183,211.675h-15.5c-2.206,0-4-1.794-4-4v-24c0-2.206,1.794-4,4-4h15.5c1.104,0,2,0.896,2,2v28 C211.183,210.779,210.287,211.675,209.183,211.675z M193.683,183.675v24h13.5v-24H193.683z"/><path fill="#3762cc" d="M62.317,167.675h-15.5c-1.104,0-2-0.896-2-2v-28c0-1.104,0.896-2,2-2h15.5c2.206,0,4,1.794,4,4v24 C66.317,165.881,64.523,167.675,62.317,167.675z M48.817,163.675H62.32l-0.003-24h-13.5V163.675z"/><path fill="#3762cc" d="M62.317,211.675h-15.5c-1.104,0-2-0.896-2-2v-28c0-1.104,0.896-2,2-2h15.5c2.206,0,4,1.794,4,4v24 C66.317,209.881,64.523,211.675,62.317,211.675z M48.817,207.675H62.32l-0.003-24h-13.5V207.675z"/><path fill="#e0ebfc" d="M130.794,57.513c-1.567-1.483-4.021-1.483-5.588,0l-50.57,47.867v65.954V212v6.333h106.729V212v-40.667 V105.38L130.794,57.513z"/><rect width="27.667" height="16.667" x="128" y="8" fill="#6bdddd"/><path fill="#f9cfcf" d="M244,248H12c-2.209,0-4-1.791-4-4v-10c0-2.209,1.791-4,4-4h232c2.209,0,4,1.791,4,4v10 C248,246.209,246.209,248,244,248z"/><path fill="#f9cfcf" d="M189.313,230H66.688v-7.667c0-2.209,1.791-4,4-4h114.625c2.209,0,4,1.791,4,4V230z"/><path fill="#6bdddd" d="M128.5,218.333h-30V149c0-1.657,1.343-3,3-3h27V218.333z"/><rect width="56.334" height="14" x="85.333" y="175.167" fill="#a4c9ff" transform="rotate(90 113.5 182.167)"/><circle cx="128" cy="108.5" r="25.833" fill="#6bdddd"/><path fill="#f9cfcf" d="M128,126.334c-9.833,0-17.833-8-17.833-17.834c0-9.833,8-17.833,17.833-17.833s17.833,8,17.833,17.833 C145.833,118.334,137.833,126.334,128,126.334z"/><path fill="#3762cc" d="M136,110.5h-8c-1.104,0-2-0.896-2-2V97.667c0-1.104,0.896-2,2-2s2,0.896,2,2v8.833h6c1.104,0,2,0.896,2,2 S137.104,110.5,136,110.5z"/><path fill="#6bdddd" d="M158.5,218.333h-30V146h27c1.657,0,3,1.343,3,3V218.333z"/><rect width="56.334" height="14" x="115.333" y="175.167" fill="#a4c9ff" transform="rotate(90 143.5 182.167)"/><path fill="#3762cc" d="M128,47.333c-1.104,0-2-0.896-2-2V8c0-1.104,0.896-2,2-2s2,0.896,2,2v37.333 C130,46.438,129.104,47.333,128,47.333z"/><path fill="#f9a7a7" d="M125.206,57.513l-59.732,56.538c-1.066,1.009-2.741,0.986-3.779-0.052l-6.67-6.67 c-1.078-1.078-1.055-2.834,0.052-3.883l70.127-66.458c1.568-1.486,4.024-1.486,5.592,0l70.127,66.458 c1.107,1.049,1.131,2.805,0.052,3.883l-6.67,6.67c-1.038,1.038-2.713,1.061-3.779,0.052l-59.732-56.538 C129.227,56.029,126.773,56.029,125.206,57.513z"/><path fill="#3762cc" d="M155.667,26.667H128c-1.104,0-2-0.896-2-2V8c0-1.104,0.896-2,2-2h27.667c1.104,0,2,0.896,2,2v16.667 C157.667,25.771,156.771,26.667,155.667,26.667z M130,22.667h23.667V10H130V22.667z"/><path fill="#3762cc" d="M120.5,212.334h-14c-1.104,0-2-0.896-2-2V154c0-1.104,0.896-2,2-2h14c1.104,0,2,0.896,2,2v56.334 C122.5,211.438,121.604,212.334,120.5,212.334z M108.5,208.334h10V156h-10V208.334z"/><path fill="#3762cc" d="M150.5,212.334h-14c-1.104,0-2-0.896-2-2V154c0-1.104,0.896-2,2-2h14c1.104,0,2,0.896,2,2v56.334 C152.5,211.438,151.604,212.334,150.5,212.334z M138.5,208.334h10V156h-10V208.334z"/><path fill="#3762cc" d="M128.5,220.334h-30c-1.104,0-2-0.896-2-2V149c0-2.757,2.243-5,5-5h27c1.104,0,2,0.896,2,2v72.334 C130.5,219.438,129.604,220.334,128.5,220.334z M100.5,216.334h26V148h-25c-0.552,0-1,0.448-1,1V216.334z"/><path fill="#3762cc" d="M158.5,220.334h-30c-1.104,0-2-0.896-2-2V146c0-1.104,0.896-2,2-2h27c2.757,0,5,2.243,5,5v69.334 C160.5,219.438,159.604,220.334,158.5,220.334z M130.5,216.334h26V149c0-0.552-0.448-1-1-1h-25V216.334z"/><path fill="#3762cc" d="M128,136.334c-15.348,0-27.833-12.486-27.833-27.834S112.652,80.667,128,80.667s27.833,12.485,27.833,27.833 S143.348,136.334,128,136.334z M128,84.667c-13.142,0-23.833,10.691-23.833,23.833c0,13.143,10.691,23.834,23.833,23.834 s23.833-10.691,23.833-23.834C151.833,95.358,141.142,84.667,128,84.667z"/><path fill="#3762cc" d="M128,128.334c-10.937,0-19.834-8.897-19.834-19.834c0-10.936,8.897-19.833,19.834-19.833 s19.834,8.897,19.834,19.833C147.834,119.437,138.937,128.334,128,128.334z M128,92.667c-8.73,0-15.834,7.103-15.834,15.833 s7.104,15.834,15.834,15.834s15.834-7.104,15.834-15.834S136.73,92.667,128,92.667z"/><path fill="#3762cc" d="M189.313,232H66.688c-1.104,0-2-0.896-2-2v-7.667c0-3.309,2.691-6,6-6h114.625c3.309,0,6,2.691,6,6V230 C191.313,231.104,190.417,232,189.313,232z M68.688,228h118.625v-5.667c0-1.103-0.897-2-2-2H70.688c-1.103,0-2,0.897-2,2V228z"/><path fill="#3762cc" d="M244,250H12c-3.309,0-6-2.691-6-6v-10c0-3.309,2.691-6,6-6h232c3.309,0,6,2.691,6,6v10 C250,247.309,247.309,250,244,250z M12,232c-1.103,0-2,0.897-2,2v10c0,1.103,0.897,2,2,2h232c1.103,0,2-0.897,2-2v-10 c0-1.103-0.897-2-2-2H12z"/><path fill="#3762cc" d="M181.364,220.334H74.636c-1.104,0-2-0.896-2-2V105.38c0-0.55,0.227-1.075,0.625-1.452l50.57-47.867 c2.338-2.213,6-2.213,8.338,0l0,0l50.57,47.867c0.398,0.377,0.625,0.902,0.625,1.452v112.954 C183.364,219.438,182.469,220.334,181.364,220.334z M76.636,216.334h102.729V106.24l-49.945-47.275 c-0.795-0.752-2.043-0.752-2.838,0L76.636,106.24V216.334z"/><path fill="#3762cc" d="M192.39,116.802c-1.161,0.001-2.322-0.432-3.238-1.298l-59.732-56.539c-0.795-0.752-2.043-0.752-2.838,0 L66.85,115.503c-1.867,1.767-4.752,1.727-6.568-0.09l-6.67-6.67c-0.907-0.905-1.396-2.111-1.38-3.394 c0.018-1.282,0.539-2.474,1.471-3.355l70.126-66.458c2.34-2.217,6.004-2.218,8.344,0.001l70.127,66.457 c0.931,0.882,1.452,2.073,1.47,3.355c0.017,1.282-0.473,2.488-1.381,3.395l-6.669,6.669 C194.794,116.338,193.593,116.802,192.39,116.802z M128,54.4c1.5,0,3,0.554,4.169,1.66l59.731,56.538 c0.281,0.266,0.717,0.261,0.99-0.014l6.67-6.67c0.185-0.185,0.21-0.4,0.208-0.512c-0.001-0.111-0.032-0.326-0.221-0.505 L129.42,38.44c-0.797-0.756-2.043-0.755-2.84-0.001l-70.127,66.459c-0.189,0.179-0.221,0.394-0.222,0.505 c-0.002,0.111,0.023,0.327,0.207,0.511l6.671,6.671c0.274,0.272,0.709,0.28,0.991,0.013l59.73-56.537l0,0 C125,54.954,126.5,54.4,128,54.4z"/></svg>