<svg xmlns="http://www.w3.org/2000/svg"  viewBox="0 0 48 48" width="48px" height="48px"><path fill="#3dd9eb" d="M4,40V14h40v26H4z"/><circle cx="38" cy="38" r="10" fill="#6c19ff"/><path fill="#00b3d7" d="M38,22H18v-4h20V22z"/><path fill="#00b3d7" d="M14,22h-4v-4h4V22z"/><path fill="#00b3d7" d="M14,29h-4v-4h4V29z"/><path fill="#00b3d7" d="M14,36h-4v-4h4V36z"/><path fill="#00b3d7" d="M38,29H18v-4h20V29z"/><path fill="#00b3d7" d="M38,36H18v-4h20V36z"/><path fill="#6c19ff" d="M44,8v6H4V8H44z"/><path fill="#2100c4" d="M44,30.014C42.327,28.755,40.254,28,38,28c-5.523,0-10,4.477-10,10c0,0.685,0.07,1.354,0.201,2H44 V30.014z"/><polygon fill="#a64aff" points="44,40 37,40 37,32.1 39,32.1 39,38 44,38"/></svg>