<svg xmlns="http://www.w3.org/2000/svg" width="48" height="48" viewBox="0 0 48 48"><path fill="#3dd9eb" d="M23.361,36.151c-4.733-4.392-6.12-9.489-6.433-10.946c-0.428-1.991-0.054-4.031,1.055-5.741 c1.105-1.709,2.812-2.886,4.805-3.313c4.078-0.873,8.146,1.734,9.046,5.813c0.18,0.78,1.385,4.739,7.103,4.739H42v3h-3.063 c-6.195,0-9.274-3.813-10.029-7.077c-0.55-2.489-3.012-4.072-5.491-3.541c-1.208,0.259-2.244,0.973-2.914,2.01 c-0.673,1.038-0.899,2.274-0.64,3.482c0.548,2.557,2.29,6.361,5.54,9.376L23.361,36.151z"/><path fill="#3dd9eb" d="M40.033,17.287c-1.065-2.625-2.829-4.971-5.099-6.784l1.871-2.345c2.672,2.133,4.749,4.899,6.007,8 L40.033,17.287z"/><path fill="#3dd9eb" d="M12.255,42.194c-5.111-6.09-6.813-12.115-7.307-14.423C3.835,22.58,4.811,17.266,7.695,12.807 c2.888-4.459,7.336-7.527,12.527-8.639c4.774-1.022,9.783-0.206,14.104,2.302L32.82,9.065c-3.675-2.132-7.923-2.831-11.969-1.963 c-4.408,0.944-8.186,3.549-10.638,7.335c-2.449,3.785-3.277,8.297-2.332,12.705c0.932,4.35,3.426,9.256,6.672,13.123L12.255,42.194 z"/><path fill="#3dd9eb" d="M35.073,21.863c-0.087-0.223-0.156-0.446-0.183-0.561c-1.274-5.766-6.999-9.442-12.756-8.209 c-2.809,0.602-5.216,2.261-6.777,4.673c-0.761,1.177-1.278,2.467-1.538,3.833l-2.947-0.561c0.333-1.749,0.994-3.398,1.967-4.902 c1.997-3.085,5.075-5.208,8.667-5.977c7.369-1.58,14.687,3.125,16.312,10.483c0.002,0.002,0.025,0.065,0.051,0.129L35.073,21.863z"/><path fill="#3dd9eb" d="M15.756,36.761c-2.342-3.164-4.098-6.908-4.817-10.274c-0.13-0.604-0.217-1.261-0.266-2.008 l2.994-0.196c0.039,0.6,0.106,1.115,0.205,1.575c0.3,1.402,1.318,5.096,4.296,9.118L15.756,36.761z"/><path fill="#3dd9eb" d="M20.356,41.661c-0.888-0.743-1.76-1.577-2.592-2.478l2.205-2.035 c0.744,0.807,1.522,1.551,2.313,2.212L20.356,41.661z"/><path fill="#3dd9eb" d="M38.553,35.644c-7.535,0-14.155-5.078-16.1-12.348l2.898-0.775 c1.594,5.96,7.022,10.124,13.201,10.124L38.553,35.644L38.553,35.644z"/><path fill="#3ddab4" d="M46,38c0,5.522-4.478,10-10,10s-10-4.478-10-10s4.478-10,10-10S46,32.478,46,38z"/><rect width="17.854" height="2.824" x="31.865" y="34.18" fill="#6c19ff" transform="rotate(-46.06 40.793 35.59)"/><path fill="#2100c4" d="M43.198,31.059l-9.619,9.984l2.034,1.96l9.262-9.614C44.429,32.532,43.863,31.748,43.198,31.059z"/><rect width="2.824" height="8.428" x="32.137" y="34.856" fill="#2100c4" transform="rotate(-46.188 33.55 39.07)"/></svg>