<svg fill="#000000" xmlns="http://www.w3.org/2000/svg"  viewBox="0 0 68 68" width="99px" height="99px"><path d="M17.0583572,13.8166208c-0.0168457-0.0342407-0.0227051-0.0714722-0.0452271-0.1037598 c-0.2363281-0.3388672-0.7050781-0.4208984-1.0449228-0.1835938c-2.2946329,1.6085787-5.0664635,3.360137-7.2919922,5.1123037 c-0.3367805,0.2657738-0.3855143,0.7598591-0.0966797,1.0878906c2.1035156,2.3632813,3.9794922,4.3261719,5.7353516,6 c0.2199764,0.2096424,0.559001,0.2958946,0.9055176,0.081543c0.1434937-0.0250244,0.3879395-0.0856323,0.8636484-0.2310791 c0.163208-0.7752686,0.3346558-1.5846558,0.50177-2.3762817c4.8203926,0.3543472,8.6576939,3.2449932,10.7567749,6.8261108 c0.3651733,0.6229858,0.5748901,1.460022,0.9019165,2.1333008h-1.9520874c-0.4140625,0-0.75,0.3359375-0.75,0.75v3.8775635 c-1.7812538-0.0442581-3.4226551-0.0882568-5.2480469-0.0748291c-2.1825027,0.0486794-4.6207685-0.3039703-6.0292978,2.0527344 c-0.5605469,0.9326172-0.8466797,2.0791016-0.9013672,3.6074219c-0.0827723,2.4154549,0.6059923,6.3435402,1.9142456,8.065979 c-0.0850945,0.3097343-0.0169563-0.8278046-0.0245972,12.8119507c0.0009766,1.7871094,1.4365244,3.2412109,3.2001963,3.2412109 c30.8086052-0.1588593,29.7205887,0.3885422,31.1456909-0.4320679c2.0498581-0.6497269,2.2564125-2.5390434,2.2207642-4.6033325 c-0.055481-3.2119141-0.1109009-6.4238281-0.1663208-9.6357422c1.4085083-0.951355,1.9071655-2.7800903,2.0953979-4.4693604 c0.2069092-1.8574219,0.1661377-3.7422485-0.1208496-5.5889893c-0.161438-1.0385742-0.4098511-2.0881958-0.9748535-2.9744263 c-0.3843384-0.6028442-1.0131836-1.2410278-1.7277832-1.4782715c-1.251297-0.6596985-2.2348785-0.4662476-8.1956787-0.4662476 l-1.7460327,0.0115356l-0.0479126-3.9539185c-0.0048828-0.4111328-0.3388672-0.7412109-0.75-0.7412109h-2.1243286 c1.9931641-4.6598969,7.9383545-8.5483036,13.505127-9.0361328c0.0963745,0.6704102,0.2636719,1.4335938,0.3079224,2.0355835 c0.2142334,0.1841431,0.4572144,0.3231812,0.7120361,0.4320068c0.305275,0.2916908,0.7451744,0.2747307,1.026001,0.0128784 c1.7675781-1.6474609,3.6650391-3.5888672,5.8017578-5.9345703c0.2875137-0.3158607,0.256237-0.8146267-0.0839844-1.0888672 c-2.1786346-1.7584476-4.8666153-3.4986172-7.2324219-5.1962881c-0.3309708-0.2353144-0.8281898-0.1864777-1.0742798,0.2327881 c-0.2342529,0.211853-0.4716797,0.4443359-0.6981201,0.604248c0.0422974,0.5014648,0.071106,1.1313477,0.1060791,1.7029419 c-5.2102051,0.5672598-9.8988037,2.6430044-13.2411499,5.8648062c-0.00177-2.8881836,0.1053467-5.9817495,0.3752441-9.3387442 c1.0297241-0.0559692,2.0491333-0.121582,3.0181274-0.359436l0.2330322-1.0054932 c0.1739502-0.1485596,0.2861938-0.364624,0.2693481-0.6102905c-0.0004272-0.0062866-0.0042114-0.0112915-0.0047607-0.0175781 c0.0432777-0.4946699-0.3236351-0.6583405-0.9718018-1.5644531c-1.8046875-2.2802734-3.6699219-4.6386719-5.2958984-7.0908203 c-0.2757492-0.4167778-0.8598137-0.440872-1.1796875-0.0908203c-2.6120987,2.8705659-5.1995068,5.5406246-7.5615234,8.4775391 c-0.2461262,0.3046694-0.2232323,0.7654572,0.0993042,1.0397339l0.4356079,0.9171143 c1.2229614,0.1958618,2.0391846,0.1123657,2.8848877,0.1531372c0.2355347,3.0510254,0.3459473,6.0295401,0.3464355,8.9045401 c-3.2859497-2.8503418-7.6729126-4.6556396-12.598938-5.1774902c0.0515747-0.5873404,0.1168823-1.3092031,0.1622314-1.8361197 C17.2428055,13.9612741,17.1374588,13.8627634,17.0583572,13.8166208z M38.4476395,33.6630554 c-0.1033325,0.1350098-0.1899414,0.2897339-0.246521,0.4785156c-0.074585,0.2489014-0.0281372,2.1522217,0.0066528,2.7338257 c-5.70924,0.0389748-6.7750416,0.0636749-11.1653442-0.0477905v-3.1645508H38.4476395z M16.7533646,63.2519226 l-0.0135498-11.6691284c1.2319698,0.5630302,3.3792858,0.8170509,4.5936279,0.7410889v1.9553833 c0,0.4140625,0.3359375,0.75,0.75,0.75h3.4550781c0.4140625,0,0.75-0.3359375,0.75-0.75v-1.4291992 c0.1001415,0.0175514-1.0849228-0.0700607,12.9511719,0.6416016v1.0395508c0,0.4140625,0.3359375,0.75,0.75,0.75 c3.3169708-0.0688362,3.568615,0.165493,3.9521484-0.2207031c0.3467865-0.3467865,0.1723633-0.7358322,0.213501-1.5303955 c0.7277832,0.053894,2.4090576,0.1052856,3.0653687,0.3061523c1.2339478,0.3776245,1.9511108,0.7501221,2.4975586,1.1870117 l0.0106812,8.2247314c0.0019493,0.9482117-0.7453117,1.7470703-1.7001953,1.7470703H18.4535599 C17.5170364,64.9950867,16.7543411,64.2128601,16.7533646,63.2519226z M22.8334427,53.5292664v-3.8671875l1.9550781-0.0712891 v3.9384766H22.8334427z M40.7396927,53.7812195v-3.8125l1.8974609,0.0693359l0.0195313,3.7431641H40.7396927z M50.783638,39.1288757c0.2822266,0.4091797,0.3847656,0.7363281,0.5058594,1.3125 c0.4501953,2.1962891,0.5214844,4.4238281,0.2128906,6.6201172c-0.5298958,3.7186508-1.8282585,4.1740227-5.8066406,4.1367188 c-1.4565735-0.0134239-1.2255135,0.027256-1.5526733-0.0150146l-0.0098267-1.8717041 c-0.0019531-0.4023438-0.3203125-0.7304688-0.7226563-0.7451172l-3.3935547-0.125 c-0.203125-0.0273438-0.4013672,0.0683594-0.5478516,0.2089844c-0.1464844,0.1416016-0.2294922,0.3359375-0.2294922,0.5400391 v2.0128174c-1.2322159-0.0086441-11.6723843-0.1515808-12.9511719-0.1790161V48.813446 c0-0.4431496-0.3948288-0.7920761-0.7773438-0.7490234l-3.4550781,0.125 c-0.4033203,0.0136719-0.7226563,0.3457031-0.7226563,0.7490234v1.8863525 c-0.0561523,0.006897-0.1110229,0.0181274-0.1660156,0.0159912c-2.2617188-0.0488281-3.7548828-0.3886719-4.4365234-1.0107422 c-1.4324436-1.3088608-2.7202854-7.7259674-1.1796885-10.2900391c0.9515448-1.5904007,2.7927256-1.2886772,4.7617197-1.3242188 c1.6914063-0.0146484,3.2832031,0.0263672,4.9697266,0.0683594C48.0982285,38.8196335,49.7504921,37.5979042,50.783638,39.1288757z M51.7719193,17.3017273c0.4042969-0.0253906,0.7158203-0.3662109,0.7041016-0.7714844l-0.0321045-1.0614614 c1.7185593,1.1995955,3.6497917,2.4992399,5.3172607,3.7880239c-1.49646,1.6265259-2.8699951,3.0393677-4.1669922,4.2945557 c-0.4816933-2.0475788-2.7137413-2.7896461-4.4873047-1.9429932c-2.7252808,0.9137573-8.6611938,3.4061279-11.6525879,8.4387817 c-0.1177368-1.9406738-0.2051392-3.9694214-0.2443848-6.0988159C40.556282,20.085968,45.8465042,17.6626282,51.7719193,17.3017273z M34.1000443,3.4286811c1.5307312,2.2250011,3.2024117,4.3371105,4.8522949,6.4228516 c-1.1437378,0.0473633-1.9785156,0.0488281-1.9899902,0.0488281c-0.3867188,0-0.7099609,0.2939453-0.7470703,0.6787109 c-0.8167725,8.5786123-0.5561523,15.446105-0.125,21.5839844h-4.8007813 c0.2532749-6.4781399,0.9630966-13.1942253,0.2080078-19.1816406c0-1.15625-0.3779297-2.0654297-1.0927734-2.6298828 c-0.5097656-0.4033203-1.1728516-0.6191406-1.9814453-0.6464844C30.2822495,7.5203791,32.278862,5.4150572,34.1000443,3.4286811z M29.4545364,30.3629456c-2.7205811-6.1882935-7.6807861-9.4628296-13.4677744-8.8092651 c-0.6474609,0-1.0380859,0.2773438-1.2509766,0.5097656c-0.3797607,0.4136963-0.4841309,0.9650269-0.4938354,1.4990845 c-1.2520142-1.2445679-2.5732422-2.6395264-4.0042114-4.2305298c1.6518326-1.2450733,3.5735292-2.5086422,5.3635254-3.7276602 l-0.0441895,1.0577383c-0.0175781,0.4042969,0.2900391,0.7490234,0.6943369,0.7792969 c5.4787598,0.4043579,10.2767334,2.4752197,13.5732422,5.8238525 C29.7794876,25.7289124,29.6529617,28.1022644,29.4545364,30.3629456z"/></svg>