<svg xmlns="http://www.w3.org/2000/svg" width="64" height="64" viewBox="0 0 256 256"><path fill="#ffea92" d="M54.388,30.734l3.839,58.155c0.989,14.982,7.352,29.446,18.362,41.741 c4.848,5.414,10.537,10.339,16.935,14.661l7.471,5.047c2.602,1.758,5.71,2.702,8.895,2.702h4.102h22.23h4.102 c3.186,0,6.293-0.944,8.895-2.702l7.471-5.047c6.398-4.323,12.087-9.247,16.935-14.661c11.01-12.295,17.373-26.758,18.362-41.741 l3.839-58.155H54.388z"/><path fill="#ffea92" d="M161.766,232.932H88.45c-1.678,0-3.039-1.36-3.039-3.039v0c0-15.104,12.244-27.348,27.348-27.348h24.698 c15.104,0,27.348,12.244,27.348,27.348v0C164.805,231.572,163.444,232.932,161.766,232.932z"/><path fill="#ffea92" d="M199.355,30.734H50.861c-5.035,0-9.116-4.081-9.116-9.116v0c0-5.035,4.081-9.116,9.116-9.116h148.494 c5.035,0,9.116,4.081,9.116,9.116v0C208.471,26.653,204.39,30.734,199.355,30.734z"/><path fill="#ffea92" d="M58.227,88.889l-0.005-0.073h-5.868c-1.131,0-2.207-0.465-2.88-1.245l-3.59-4.158 c-6.927-8.022-10.742-17.937-10.742-27.921c0-1.697,1.608-3.076,3.585-3.076H55.82l-0.93-14.086H34.912 c-7.308,0-13.232,5.083-13.232,11.353c0,15.438,5.782,30.467,16.494,42.87l4.969,5.754c2.496,2.89,6.44,4.594,10.632,4.594h6.987 C59.395,98.318,58.54,93.63,58.227,88.889z"/><path fill="#ffea92" d="M213.609,38.331h-18.283l-0.93,14.086h15.016c1.977,0,3.585,1.38,3.585,3.076 c0,9.984-3.815,19.9-10.742,27.921l-3.59,4.158c-0.673,0.779-1.749,1.245-2.88,1.245h-3.792l-0.005,0.073 c-0.313,4.741-1.167,9.429-2.533,14.013h5.291c4.192,0,8.136-1.704,10.632-4.594l4.969-5.754 c10.711-12.404,16.494-27.432,16.494-42.87C226.841,43.414,220.917,38.331,213.609,38.331z"/><path fill="#ffea92" d="M112.759,202.546h24.697c0.656,0,1.298,0.052,1.942,0.098V153.04h-3.176h-22.23h-3.176v49.603 C111.461,202.598,112.104,202.546,112.759,202.546z"/><path fill="#3762cc" d="M161.767,234.933H88.45c-2.778,0-5.039-2.261-5.039-5.039c0-16.183,13.166-29.348,29.348-29.348h24.698 c16.183,0,29.348,13.165,29.348,29.348C166.805,232.672,164.545,234.933,161.767,234.933z M112.759,204.546 c-13.977,0-25.348,11.371-25.348,25.348c0,0.573,0.466,1.039,1.039,1.039h73.316c0.572,0,1.038-0.466,1.038-1.039 c0-13.977-11.371-25.348-25.348-25.348H112.759z"/><path fill="#3762cc" d="M199.355,32.734H50.861c-6.129,0-11.116-4.986-11.116-11.116s4.986-11.116,11.116-11.116h148.495 c6.13,0,11.116,4.986,11.116,11.116S205.485,32.734,199.355,32.734z M50.861,14.502c-3.924,0-7.116,3.192-7.116,7.116 s3.192,7.116,7.116,7.116h148.495c3.924,0,7.116-3.192,7.116-7.116s-3.192-7.116-7.116-7.116H50.861z"/><path fill="#3762cc" d="M60.761,104.902h-6.987c-4.746,0-9.286-1.977-12.145-5.286l-4.969-5.754 c-10.95-12.681-16.98-28.37-16.98-44.178c0-7.363,6.833-13.354,15.232-13.354H54.89c1.053,0,1.926,0.817,1.996,1.868l0.93,14.086 c0.037,0.552-0.157,1.095-0.536,1.499c-0.378,0.403-0.907,0.633-1.46,0.633H38.727c-0.934,0-1.585,0.567-1.585,1.076 c0,9.504,3.642,18.955,10.256,26.613l3.59,4.159c0.293,0.34,0.817,0.551,1.367,0.551h5.868c1.053,0,1.925,0.816,1.996,1.867 l0.005,0.074c0.3,4.549,1.126,9.115,2.454,13.573c0.181,0.605,0.064,1.261-0.313,1.767 C61.987,104.604,61.392,104.902,60.761,104.902z M34.912,40.331c-6.193,0-11.232,4.196-11.232,9.354 c0,15.063,5.535,29.436,16.007,41.563l4.969,5.754c2.109,2.443,5.518,3.901,9.118,3.901h4.359 c-0.85-3.331-1.438-6.709-1.757-10.086h-4.021c-1.704,0-3.347-0.725-4.394-1.938l-3.59-4.158 c-7.241-8.384-11.229-18.764-11.229-29.228c0-2.799,2.505-5.076,5.585-5.076h14.957l-0.666-10.086H34.912z"/><path fill="#3762cc" d="M194.747,104.902h-5.292c-0.632,0-1.226-0.298-1.604-0.805s-0.493-1.161-0.313-1.767 c1.328-4.457,2.154-9.023,2.455-13.573c0.07-1.051,0.946-1.941,2-1.941h3.792c0.549,0,1.072-0.211,1.366-0.551l3.591-4.159 c6.613-7.657,10.256-17.109,10.256-26.613c0-0.509-0.651-1.076-1.585-1.076h-15.017c-0.554,0-1.082-0.229-1.46-0.633 c-0.378-0.404-0.572-0.947-0.536-1.499l0.93-14.086c0.069-1.051,0.942-1.868,1.996-1.868h18.283 c8.398,0,15.231,5.99,15.231,13.354c0,15.808-6.03,31.497-16.979,44.177l-4.97,5.755 C204.033,102.926,199.493,104.902,194.747,104.902z M192.083,100.902h2.664c3.6,0,7.008-1.458,9.117-3.9l4.97-5.755 c10.472-12.127,16.007-26.499,16.007-41.563c0-5.157-5.038-9.354-11.231-9.354h-16.411l-0.665,10.086h12.88 c3.079,0,5.585,2.277,5.585,5.076c0,10.464-3.987,20.844-11.229,29.229l-3.591,4.158c-1.047,1.212-2.689,1.937-4.394,1.937h-1.947 C193.515,94.225,192.928,97.591,192.083,100.902z"/><path fill="#3762cc" d="M110.817,204.644c-0.505,0-0.993-0.191-1.364-0.537c-0.405-0.379-0.636-0.908-0.636-1.463V153.04 c0-1.104,0.896-2,2-2h28.581c1.104,0,2,0.896,2,2v49.604c0,0.555-0.23,1.085-0.637,1.464c-0.406,0.378-0.941,0.566-1.506,0.531 l-0.197-0.015c-0.53-0.038-1.062-0.078-1.602-0.078h-24.698c-0.523,0-1.037,0.038-1.55,0.075l-0.252,0.018 C110.91,204.642,110.864,204.644,110.817,204.644z M112.817,200.546h24.581V155.04h-24.581V200.546z"/><path fill="#3762cc" d="M199.355,32.734H50.861c-6.129,0-11.116-4.986-11.116-11.116s4.986-11.116,11.116-11.116h148.495 c6.13,0,11.116,4.986,11.116,11.116S205.485,32.734,199.355,32.734z M50.861,14.502c-3.924,0-7.116,3.192-7.116,7.116 s3.192,7.116,7.116,7.116h148.495c3.924,0,7.116-3.192,7.116-7.116s-3.192-7.116-7.116-7.116H50.861z"/><path fill="#f9a7a7" d="M108.018,49.728v9.61c0,1.904,1.543,3.447,3.447,3.447h1.703c1.904,0,3.447,1.543,3.447,3.447v50.858 c0,1.904,1.543,3.447,3.447,3.447h10.626c1.904,0,3.447-1.543,3.447-3.447V49.728c0-1.904-1.543-3.447-3.447-3.447h-19.222 C109.561,46.281,108.018,47.824,108.018,49.728z"/><path fill="#ffea92" d="M31.855,112.237c-3.759,8.214-9.994,15.058-17.754,19.581c-1.392,0.811-1.392,2.78,0,3.591 c7.761,4.522,13.996,11.365,17.754,19.58c0.73,1.596,3.005,1.596,3.735,0c3.759-8.215,9.993-15.059,17.754-19.58 c1.392-0.811,1.392-2.78,0-3.591c-7.761-4.522-13.996-11.366-17.754-19.581C34.859,110.641,32.585,110.641,31.855,112.237z"/><path fill="#3762cc" d="M199.355,32.734H50.861c-6.129,0-11.116-4.986-11.116-11.116s4.986-11.116,11.116-11.116h148.495 c6.13,0,11.116,4.986,11.116,11.116S205.485,32.734,199.355,32.734z M50.861,14.502c-3.924,0-7.116,3.192-7.116,7.116 s3.192,7.116,7.116,7.116h148.495c3.924,0,7.116-3.192,7.116-7.116s-3.192-7.116-7.116-7.116H50.861z"/><path fill="#3762cc" d="M140.325,155.041h-30.434c-3.603,0-7.066-1.053-10.015-3.045l-7.471-5.048 c-6.531-4.411-12.354-9.453-17.306-14.984c-11.323-12.645-17.847-27.494-18.867-42.942l-3.839-58.155 c-0.037-0.552,0.157-1.095,0.536-1.499c0.378-0.403,0.907-0.633,1.46-0.633h141.44c0.554,0,1.082,0.229,1.46,0.633 c0.378,0.404,0.572,0.947,0.536,1.499l-3.839,58.155c-1.021,15.449-7.545,30.299-18.868,42.942 c-4.954,5.532-10.776,10.574-17.306,14.984l-7.472,5.048C147.391,153.988,143.928,155.041,140.325,155.041z M56.524,32.734 l3.699,56.023c0.96,14.548,7.135,28.565,17.855,40.538c4.733,5.286,10.307,10.11,16.565,14.338l7.471,5.048 c2.285,1.544,4.974,2.359,7.776,2.359h30.434c2.802,0,5.49-0.815,7.776-2.359l7.472-5.048c6.257-4.227,11.829-9.051,16.563-14.338 c10.722-11.972,16.896-25.989,17.856-40.538l3.698-56.023H56.524z"/><path fill="#f9a7a7" d="M227.925,176.327c-2.289,5.451-11.772,5.901-15.708,9.807c-4.08,4.049-4.759,13.573-9.978,15.705 c-5.219,2.131-12.254-4.243-17.972-4.292c-5.515-0.046-12.646,6.288-18.04,3.974c-5.393-2.314-5.839-11.898-9.703-15.876 c-4.006-4.123-13.43-4.81-15.539-10.085c-2.109-5.275,4.199-12.385,4.246-18.163c0.046-5.574-6.221-12.781-3.932-18.232 c2.289-5.451,11.772-5.901,15.708-9.807c4.08-4.049,4.759-13.573,9.978-15.705c5.219-2.131,12.254,4.243,17.972,4.292 c5.515,0.046,12.646-6.288,18.04-3.974c5.393,2.314,5.839,11.898,9.703,15.876c4.006,4.123,13.43,4.81,15.539,10.085 c2.109,5.275-4.199,12.385-4.246,18.163C223.948,163.669,230.215,170.877,227.925,176.327z"/><ellipse cx="184.613" cy="157.746" fill="#f9cfcf" rx="27.224" ry="27.514"/><path fill="#6bdddd" d="M202.239,201.839c-5.219,2.131-12.254-4.244-17.972-4.291c-5.515-0.046-12.646,6.287-18.04,3.973 c-0.602-0.258-1.134-0.618-1.625-1.04v40.973c0,1.713,2.423,2.505,3.699,1.209l14.233-14.441c0.826-0.838,2.299-0.855,3.149-0.037 l15.276,14.706c1.296,1.248,3.663,0.443,3.663-1.246v-41.57C203.94,200.844,203.163,201.461,202.239,201.839z"/><path fill="#3762cc" d="M199.893,204.28c-2.841,0-5.768-1.282-8.624-2.532c-2.451-1.074-4.985-2.185-7.018-2.201 c-0.015,0-0.03,0-0.045,0c-1.886,0-4.218,0.988-6.687,2.035c-3.826,1.622-8.159,3.46-12.081,1.776 c-3.91-1.678-5.61-6.098-7.111-9.997c-0.979-2.546-1.905-4.951-3.237-6.322c-1.428-1.47-3.979-2.542-6.447-3.579 c-3.931-1.651-7.995-3.358-9.514-7.157c-1.515-3.791,0.232-7.866,1.922-11.808c1.064-2.482,2.165-5.049,2.182-7.115 c0.016-1.926-0.972-4.307-2.018-6.826c-1.6-3.855-3.413-8.225-1.758-12.163c1.657-3.948,6.035-5.668,9.897-7.186 c2.516-0.988,4.892-1.923,6.245-3.267c1.456-1.444,2.518-4.026,3.545-6.523c1.633-3.971,3.321-8.076,7.086-9.613 c3.774-1.54,7.818,0.231,11.728,1.943c2.451,1.073,4.985,2.183,7.017,2.2c0.016,0,0.03,0,0.045,0c1.886,0,4.218-0.988,6.687-2.035 c3.826-1.622,8.161-3.457,12.081-1.776c3.91,1.678,5.611,6.098,7.111,9.998c0.979,2.545,1.905,4.95,3.237,6.321 c1.427,1.469,3.979,2.541,6.447,3.578c3.931,1.651,7.995,3.359,9.515,7.158c1.515,3.79-0.232,7.865-1.922,11.807 c-1.064,2.482-2.166,5.049-2.183,7.115c-0.016,1.926,0.972,4.307,2.018,6.827c1.6,3.855,3.413,8.225,1.759,12.163l0,0 c-1.658,3.948-6.035,5.668-9.897,7.186c-2.516,0.988-4.892,1.923-6.245,3.267c-1.456,1.444-2.519,4.026-3.546,6.524 c-1.633,3.97-3.321,8.074-7.086,9.612C201.979,204.105,200.941,204.28,199.893,204.28z M184.209,195.547c0.024,0,0.05,0,0.075,0 c2.853,0.024,5.769,1.302,8.59,2.537c3.294,1.441,6.404,2.804,8.609,1.903c2.214-0.904,3.579-4.223,4.898-7.431 c1.179-2.865,2.397-5.828,4.427-7.843c1.94-1.925,4.818-3.056,7.601-4.149c3.43-1.348,6.668-2.62,7.673-5.012 c1.007-2.399-0.402-5.796-1.766-9.081c-1.153-2.779-2.346-5.653-2.323-8.394c0.023-2.87,1.285-5.813,2.506-8.658 c1.432-3.34,2.784-6.494,1.884-8.746c-0.897-2.244-4.031-3.561-7.35-4.955c-2.838-1.192-5.771-2.425-7.767-4.479 c-1.902-1.958-3.021-4.863-4.101-7.673c-1.276-3.315-2.596-6.745-4.956-7.758c-2.354-1.01-5.703,0.411-8.942,1.784 c-2.729,1.156-5.55,2.352-8.251,2.352c-0.024,0-0.05,0-0.075,0c-2.852-0.024-5.768-1.302-8.588-2.536 c-3.293-1.443-6.404-2.805-8.611-1.904c-2.214,0.904-3.579,4.223-4.898,7.432c-1.179,2.865-2.396,5.827-4.426,7.842 c-1.94,1.925-4.818,3.056-7.601,4.149c-3.43,1.348-6.669,2.62-7.673,5.012c-1.008,2.399,0.401,5.796,1.765,9.081 c1.153,2.779,2.346,5.652,2.323,8.393c-0.023,2.87-1.285,5.813-2.505,8.658c-1.432,3.34-2.784,6.494-1.884,8.747 c0.896,2.244,4.03,3.561,7.348,4.954c2.838,1.192,5.772,2.426,7.768,4.479c1.902,1.958,3.021,4.863,4.102,7.673 c1.276,3.316,2.596,6.745,4.955,7.758c2.354,1.009,5.703-0.411,8.942-1.784C178.688,196.742,181.508,195.547,184.209,195.547z M227.926,176.327h0.01H227.926z"/><path fill="#3762cc" d="M202.499,245.501c-1.079,0-2.13-0.403-2.926-1.169l-15.275-14.707c-0.066-0.062-0.284-0.056-0.339,0 l-14.231,14.442c-1.204,1.222-3.038,1.583-4.673,0.91c-1.512-0.619-2.451-1.97-2.451-3.524V200.48 c0-0.782,0.455-1.492,1.166-1.817c0.709-0.327,1.545-0.211,2.139,0.302c0.377,0.324,0.74,0.56,1.109,0.719 c2.35,1.005,5.7-0.413,8.94-1.785c2.729-1.156,5.55-2.352,8.251-2.352c0.024,0,0.05,0,0.075,0c2.853,0.024,5.769,1.302,8.59,2.537 c3.294,1.441,6.402,2.804,8.608,1.903l0,0c0.573-0.234,1.111-0.641,1.646-1.241c0.551-0.621,1.43-0.836,2.206-0.541 c0.775,0.295,1.289,1.039,1.289,1.869v41.57c0,1.53-0.919,2.873-2.399,3.502C203.665,245.385,203.078,245.501,202.499,245.501z M184.129,225.583c1.068,0,2.137,0.386,2.942,1.16l15.275,14.707c0.064,0.062,0.192,0.055,0.276,0.028v-37.647 c-3.666,1.284-7.572-0.428-11.354-2.083c-2.451-1.074-4.985-2.185-7.018-2.201c-0.015,0-0.029,0-0.045,0 c-1.886,0-4.219,0.988-6.688,2.034c-3.449,1.462-7.312,3.099-10.915,2.174v37.533c0.087,0.024,0.214,0.033,0.274-0.028 l14.232-14.443C181.921,225.995,183.024,225.583,184.129,225.583z M202.239,201.839h0.01H202.239z"/><path fill="#3762cc" d="M184.613,187.26c-16.114,0-29.224-13.24-29.224-29.514c0-16.274,13.109-29.515,29.224-29.515 s29.224,13.24,29.224,29.515C213.837,174.02,200.728,187.26,184.613,187.26z M184.613,132.231 c-13.908,0-25.224,11.446-25.224,25.515s11.315,25.514,25.224,25.514s25.224-11.445,25.224-25.514 S198.521,132.231,184.613,132.231z"/><path fill="#ffea92" d="M229.733,197.068c-2.204,4.816-5.859,8.828-10.409,11.479c-0.816,0.476-0.816,1.63,0,2.105 c4.55,2.651,8.205,6.663,10.409,11.479c0.428,0.936,1.762,0.936,2.19,0c2.204-4.816,5.859-8.828,10.409-11.479 c0.816-0.476,0.816-1.63,0-2.105c-4.55-2.651-8.205-6.664-10.409-11.479C231.495,196.133,230.162,196.133,229.733,197.068z"/><path fill="#f9a7a7" d="M187.183,141.32l3.361,6.809c0.418,0.846,1.225,1.432,2.158,1.568l7.515,1.092 c2.351,0.342,3.29,3.231,1.589,4.889l-5.438,5.3c-0.676,0.659-0.984,1.607-0.824,2.537l1.284,7.484 c0.402,2.342-2.056,4.127-4.159,3.022l-6.721-3.534c-0.835-0.439-1.833-0.439-2.668,0l-6.721,3.534 c-2.103,1.106-4.561-0.68-4.159-3.022l1.284-7.484c0.159-0.93-0.149-1.879-0.824-2.537l-5.438-5.3 c-1.701-1.658-0.762-4.548,1.589-4.889l7.515-1.092c0.934-0.136,1.741-0.722,2.158-1.568l3.361-6.809 C183.094,139.19,186.132,139.19,187.183,141.32z"/></svg>