<svg xmlns="http://www.w3.org/2000/svg" width="60" height="60" fill-rule="nonzero" viewBox="0 0 60 60"><g fill="none" fill-rule="nonzero"><path fill="#5E8FAA" d="M1.189,24.864 C0.973784796,24.864 0.782715374,24.726285 0.714658351,24.5221139 C0.646601328,24.3179428 0.716827837,24.0931291 0.889,23.964 L7.389,19.102 L2.823,21.739 C2.59412385,21.8513262 2.31738737,21.7734545 2.18067491,21.5582542 C2.04396244,21.3430539 2.09106357,21.0594546 2.29,20.9 L12.672,13.772 L4.226,18.643 C3.9918557,18.776112 3.69434791,18.6998382 3.55312901,18.4704922 C3.41191011,18.2411463 3.47773295,17.9411531 3.702,17.792 L8.523,14.638 L5.159,16.58 C4.92522659,16.7087456 4.63154946,16.631198 4.49181202,16.4038241 C4.35207459,16.1764502 4.41554203,15.8794119 4.636,15.729 L8.528,13.189 L6.046,14.622 C5.81323179,14.7599387 5.51296659,14.6876905 5.36842301,14.4589652 C5.22387944,14.2302399 5.28750494,13.9280301 5.512,13.777 L14.041,7.9 L7.341,11.771 C7.12387701,11.8916668 6.85109151,11.834641 6.70048951,11.6371014 C6.54988751,11.4395618 6.56714043,11.161414 6.741,10.984 L8.067,9.653 C7.84304064,9.64827133 7.64955738,9.49516187 7.59347682,9.27828604 C7.53739627,9.0614102 7.63240607,8.83370114 7.826,8.721 L10.678,7.074 C10.8947987,6.95487765 11.1661174,7.01219274 11.316215,7.20882062 C11.4663126,7.40544851 11.4500666,7.68227858 11.278,7.86 L10.143,9 L24.389,0.771 C24.6217682,0.633061329 24.9220334,0.70530946 25.066577,0.93403478 C25.2111206,1.1627601 25.1474951,1.46496993 24.923,1.616 L16.389,7.5 L23.918,3.15 C24.1510372,3.02613988 24.4402123,3.10472178 24.5785113,3.32949071 C24.7168103,3.55425963 24.6566072,3.84781186 24.441,4 L20.557,6.536 L23.6,4.781 C23.8337734,4.65225438 24.1274505,4.72980199 24.267188,4.9571759 C24.4069254,5.18454981 24.343458,5.48158814 24.123,5.632 L19.3,8.787 L23.259,6.5 C23.4914067,6.36715014 23.7872158,6.44091485 23.9300333,6.66733285 C24.0728508,6.89375085 24.0120021,7.19248433 23.792,7.345 L13.4,14.477 L14.191,14.021 C14.4200632,13.8888021 14.7124568,13.957852 14.8581806,14.1785572 C15.0039043,14.3992625 14.9525496,14.6952771 14.741,14.854 L8.241,19.713 L10.871,18.2 C11.1005527,18.0685079 11.392805,18.1385817 11.5377704,18.3598726 C11.6827358,18.5811634 11.6302392,18.8770787 11.418,19.035 L10.229,19.91 C10.4017393,19.9450303 10.5432749,20.0684218 10.6015284,20.2347724 C10.6597819,20.401123 10.6261471,20.5858566 10.513,20.721 L9.472,21.964 C9.64414668,22.0399458 9.75908326,22.2061034 9.76942668,22.3939737 C9.7797701,22.581844 9.68376892,22.759615 9.521,22.854 L7.909,23.785 C7.69917345,23.9058975 7.43287028,23.8590509 7.27689896,23.6738042 C7.12092764,23.4885575 7.12012761,23.2181664 7.275,23.032 L7.937,22.24 L3.865,24.591 C3.6354473,24.7224921 3.34319499,24.6524183 3.1982296,24.4311274 C3.05326421,24.2098366 3.1057608,23.9139213 3.318,23.756 L3.592,23.556 L1.439,24.8 C1.36286387,24.8432428 1.27654917,24.8653394 1.189,24.864 Z"/><path fill="#457393" d="M13.519,28 C13.3780522,27.9995986 13.243633,27.9405411 13.148,27.837 C12.9900858,27.6629579 12.9746874,27.4024325 13.111,27.211 L14.23,25.634 L12.477,26.646 C12.2534108,26.7769392 11.9668363,26.7153762 11.8167497,26.5041625 C11.6666631,26.2929487 11.702797,26.002072 11.9,25.834 L13.917,24.1 L11.385,25.562 C11.1530169,25.6929881 10.8590715,25.6190795 10.7166301,25.3939473 C10.5741887,25.1688152 10.6332838,24.8715373 10.851,24.718 L17.246,20.298 L10.189,24.372 C9.95623436,24.5061958 9.65902687,24.432446 9.516,24.205 C9.37244428,23.9770867 9.43523135,23.6764162 9.658,23.525 L15.008,19.892 L9.508,23.067 C9.27559332,23.1998499 8.97978423,23.1260851 8.83696672,22.8996671 C8.69414921,22.6732491 8.75499791,22.3745157 8.975,22.222 L14.834,18.186 L10.543,20.662 C10.3104881,20.8119453 10.0004453,20.7450119 9.85050001,20.5125 C9.7005547,20.2799881 9.76748813,19.9699453 10,19.82 L15.957,15.52 L12.551,17.485 C12.3222806,17.6160429 12.0311123,17.5470127 11.8855647,17.3272384 C11.7400171,17.1074642 11.7900895,16.812444 12,16.653 L16.533,13.153 C16.3173831,13.1310035 16.1404889,12.9725968 16.0949208,12.7607052 C16.0493528,12.5488136 16.145488,12.3316909 16.333,12.223 L21.96,8.974 C22.1875891,8.84411032 22.4768511,8.91196799 22.6229348,9.12951719 C22.7690186,9.34706638 22.7223591,9.64049451 22.516,9.802 L18.524,12.884 L23.932,9.762 C24.1624184,9.62976356 24.4560189,9.70081072 24.6004864,9.92376419 C24.7449538,10.1467177 24.68984,10.4437218 24.475,10.6 L18.521,14.9 L25.211,11.038 C25.4434067,10.9051501 25.7392158,10.9789149 25.8820333,11.2053329 C26.0248508,11.4317509 25.9640021,11.7304843 25.744,11.883 L19.88,15.923 L26.358,12.184 C26.5905262,12.0532334 26.8847591,12.1280491 27.0265809,12.3540024 C27.1684027,12.5799557 27.1078553,12.8774527 26.889,13.03 L21.543,16.661 L27.435,13.261 C27.6663246,13.1346749 27.9559869,13.2096109 28.0970294,13.4322679 C28.2380719,13.6549248 28.1820543,13.9488324 27.969,14.104 L18.566,20.6 C18.6109724,20.6321373 18.6504779,20.6713051 18.683,20.716 C18.8320447,20.9264892 18.7965294,21.2158089 18.601,21.384 L16.065,23.567 C16.2304008,23.601053 16.3674374,23.7162941 16.4293535,23.8734037 C16.4912696,24.0305133 16.4696984,24.208261 16.372,24.346 L14.724,26.668 C14.7514566,26.6984736 14.7752827,26.7320315 14.795,26.768 C14.9323847,27.0069169 14.8505349,27.311953 14.612,27.45 L13.769,27.938 C13.6926155,27.9804104 13.6063498,28.0018043 13.519,28 Z"/><path fill="#FFBA6E" d="M29.817,11.172 C29.6234542,11.1720602 29.4472576,11.0604141 29.3646609,10.8853776 C29.2820642,10.7103411 29.3079049,10.5033572 29.431,10.354 L30.5,9.06 L29.179,9.822 C28.9848287,9.93446676 28.7395126,9.90380224 28.579,9.747 C28.4172212,9.59013196 28.3803659,9.34442998 28.489,9.147 L29.44,7.406 C29.1973983,7.5077735 28.9174292,7.40414002 28.7995634,7.16893572 C28.6816976,6.93373141 28.766259,6.64742399 28.993,6.514 L30.477,5.657 C30.6709449,5.54518834 30.915575,5.57591965 31.0758377,5.73222814 C31.2361004,5.88853664 31.2729325,6.13232276 31.166,6.329 L30.22,8.063 L32.385,6.813 C32.5942222,6.69180896 32.8601879,6.73769248 33.0167098,6.92198048 C33.1732317,7.10626848 33.175459,7.37615379 33.022,7.563 L31.956,8.863 C32.1945487,8.74216767 32.485945,8.83041568 32.6173741,9.06329407 C32.7488031,9.29617245 32.6737376,9.59123969 32.447,9.733 L30.067,11.1 C29.9916767,11.1460883 29.9052987,11.1709652 29.817,11.172 Z"/><path fill="#5E8FAA" d="M24,49.471 C23.7762953,49.4717216 23.5793336,49.3237609 23.5177233,49.1087063 C23.4561131,48.8936516 23.5448488,48.6638425 23.735,48.546 L32.989,42.788 L21.529,49.4 C21.2943942,49.5253855 21.0026878,49.4451285 20.8652396,49.21738 C20.7277913,48.9896315 20.7927284,48.694137 21.013,48.545 L36.875,38.545 L18.116,49.381 C17.8798265,49.5171818 17.578092,49.4390681 17.4376682,49.2053919 C17.2972443,48.9717158 17.3698973,48.6686201 17.601,48.524 L35.731,37.146 L15.877,48.608 C15.6412821,48.7358172 15.346703,48.6549384 15.209298,48.4246776 C15.071893,48.1944169 15.1405862,47.8967602 15.365,47.75 L27.187,40.491 L14.936,47.564 C14.7001642,47.6900453 14.406899,47.6082222 14.2703841,47.3782882 C14.1338692,47.1483543 14.2024324,46.8517087 14.426,46.705 L21.016,42.698 L14.45,46.488 C14.2136175,46.6165498 13.9178931,46.5349768 13.7808432,46.303419 C13.6437933,46.0718611 13.7145723,45.7733692 13.941,45.628 L15.833,44.484 L14.28,45.384 C14.0442821,45.5118172 13.749703,45.4309384 13.612298,45.2006776 C13.474893,44.9704169 13.5435862,44.6727602 13.768,44.526 L30.7,34.047 L14.28,43.525 C14.0445333,43.6475198 13.7543674,43.5646943 13.6190553,43.3363386 C13.4837433,43.1079828 13.5504495,42.8136929 13.771,42.666 L21.424,38.006 L14.279,42.131 C14.0434875,42.26296 13.7457503,42.1841389 13.6063796,41.9529348 C13.4670088,41.7217306 13.5363373,41.421641 13.763,41.275 L34.363,28.32 L14.278,39.92 C14.0426643,40.0440261 13.7514201,39.96207 13.6153002,39.7335164 C13.4791803,39.5049629 13.5458495,39.2098439 13.767,39.062 L24.7,32.33 L14.28,38.346 C14.0427937,38.4873849 13.7358849,38.4097063 13.5945,38.1725 C13.4531151,37.9352937 13.5307937,37.6283849 13.768,37.487 L23.724,31.339 L14.28,36.791 C14.0443913,36.9207647 13.7483429,36.84088 13.6099933,36.6102076 C13.4716437,36.3795353 13.5405767,36.0807469 13.766,35.934 L24.137,29.477 L14.28,35.167 C14.0456389,35.2958923 13.7513457,35.2175227 13.6121245,34.9891463 C13.4729032,34.7607699 13.5380632,34.4632729 13.76,34.314 L28.64,24.728 L14.278,33.019 C14.0416221,33.1617656 13.7342656,33.0858778 13.5915,32.8495 C13.4487344,32.6131221 13.5246221,32.3057656 13.761,32.163 L22.316,26.748 L14.278,31.389 C14.0444549,31.5218438 13.7476756,31.4463638 13.6059752,31.2180837 C13.4642748,30.9898036 13.5283206,30.6903486 13.751,30.54 L26.379,22.1 L14.279,29.085 C14.0456319,29.2232671 13.7445806,29.1502417 13.6004997,28.9204176 C13.4564187,28.6905935 13.5218647,28.3878041 13.748,28.238 L23.938,21.32 L15.2,26.37 C14.9670327,26.5027691 14.6708081,26.4281284 14.5285713,26.2008178 C14.3863345,25.9735073 14.4487307,25.6744639 14.67,25.523 L20.6,21.516 L16.825,23.694 C16.59329,23.8216221 16.3022688,23.7466794 16.1610208,23.5230147 C16.0197728,23.29935 16.0771808,23.0043685 16.292,22.85 L19.208,20.85 L19.068,20.93 C18.8366739,21.0633882 18.5413598,20.991466 18.397273,20.7666478 C18.2531863,20.5418297 18.3111843,20.2434684 18.529,20.089 L21.886,17.71 C21.8485806,17.6759255 21.8168471,17.6360898 21.792,17.592 C21.6539353,17.3528598 21.7358659,17.0470752 21.975,16.909 L27.613,13.653 C27.8443261,13.5196118 28.1396402,13.591534 28.283727,13.8163522 C28.4278137,14.0411703 28.3698157,14.3395316 28.152,14.494 L27.874,14.694 L29.764,13.604 C29.99571,13.4763779 30.2867312,13.5513206 30.4279792,13.7749853 C30.5692272,13.99865 30.5118192,14.2936315 30.297,14.448 L27.372,16.458 L32.312,13.6 C32.5445262,13.4692334 32.8387591,13.5440491 32.9805809,13.7700024 C33.1224027,13.9959557 33.0618553,14.2934527 32.843,14.446 L26.922,18.446 L35.322,13.598 C35.5548603,13.4628572 35.8529189,13.5363638 35.9962423,13.7642803 C36.1395656,13.9921967 36.0766853,14.2926767 35.854,14.444 L25.654,21.365 L39.113,13.6 C39.3460829,13.4693387 39.6407074,13.5450343 39.7819423,13.7718661 C39.9231772,13.998698 39.8611015,14.2964899 39.641,14.448 L27.021,22.879 L43.1,13.6 C43.3349709,13.4707854 43.6300387,13.549938 43.7687925,13.779405 C43.9075462,14.0088721 43.8405762,14.3069411 43.617,14.455 L35.06,19.871 L45.919,13.6 C46.1525877,13.4762617 46.4421326,13.5557211 46.5798429,13.7813541 C46.7175532,14.0069871 46.6558436,14.3008272 46.439,14.452 L31.561,24.035 L49.641,13.6 C49.8766087,13.4702353 50.1726571,13.55012 50.3110067,13.7807924 C50.4493563,14.0114647 50.3804233,14.3102531 50.155,14.457 L39.787,20.909 L52.453,13.6 C52.6892075,13.466929 52.9884329,13.5463491 53.1275599,13.7790411 C53.266687,14.011733 53.1950212,14.3129098 52.966,14.458 L42.993,20.616 L55.06,13.647 C55.2962845,13.5163641 55.5936041,13.5969084 55.7316393,13.828948 C55.8696745,14.0609876 55.7985631,14.3607033 55.571,14.506 L44.648,21.228 L56.8,14.211 C57.0346058,14.0856145 57.3263122,14.1658715 57.4637604,14.39362 C57.6012087,14.6213685 57.5362716,14.916863 57.316,15.066 L36.721,28.02 L58.169,15.637 C58.4048358,15.5109547 58.698101,15.5927778 58.8346159,15.8227118 C58.9711308,16.0526457 58.9025676,16.3492913 58.679,16.496 L51.011,21.165 L58.594,16.787 C58.8297179,16.6591828 59.124297,16.7400616 59.261702,16.9703224 C59.399107,17.2005831 59.3304138,17.4982398 59.106,17.645 L42.184,28.116 L58.72,18.569 C58.9577586,18.4284435 59.2644435,18.5072414 59.405,18.745 C59.5455564,18.9827586 59.4667586,19.2894435 59.229,19.43 L57.353,20.563 L58.72,19.774 C58.9563825,19.6454502 59.2521069,19.7270232 59.3891568,19.958581 C59.5262067,20.1901389 59.4554277,20.4886308 59.229,20.634 L52.611,24.658 L58.72,21.132 C58.9553357,21.0079739 59.2465799,21.08993 59.3826998,21.3184836 C59.5188197,21.5470371 59.4521505,21.8421561 59.231,21.99 L47.421,29.242 L58.721,22.719 C58.9560866,22.591653 59.2497583,22.6717801 59.3875908,22.9008764 C59.5254233,23.1299728 59.4586388,23.4269632 59.236,23.575 L41.1,34.955 L58.72,24.784 C58.9555125,24.65204 59.2532497,24.7308611 59.3926204,24.9620652 C59.5319912,25.1932694 59.4626627,25.493359 59.236,25.64 L43.384,35.631 L58.72,26.776 C58.9569302,26.6340628 59.2640628,26.7110699 59.406,26.948 C59.5479371,27.1849302 59.4709301,27.4920628 59.234,27.634 L49.971,33.4 L58.72,28.35 C58.9556087,28.2202353 59.2516571,28.30012 59.3900067,28.5307924 C59.5283563,28.7614647 59.4594233,29.0602531 59.234,29.207 L52.047,33.685 L58.72,29.83 C58.9547713,29.6963617 59.2532399,29.7733684 59.3940509,30.0039091 C59.5348618,30.2344499 59.4670911,30.5351502 59.241,30.683 L46.7,38.808 L58.72,31.87 C58.9561735,31.7338182 59.257908,31.8119319 59.3983318,32.0456081 C59.5387557,32.2792842 59.4661027,32.5823799 59.235,32.727 L56.494,34.441 L58.721,33.156 C58.9546556,33.025309 59.2497926,33.1018534 59.3904787,33.3296308 C59.5311647,33.5574082 59.4674719,33.8555829 59.246,34.006 L49.8,40.247 L58.721,35.1 C58.954204,34.9712579 59.2473939,35.0479517 59.3876872,35.2743946 C59.5279805,35.5008376 59.4661103,35.7975097 59.247,35.949 L52.6,40.349 L58.721,36.816 C58.9531092,36.6869162 59.2456372,36.7618237 59.3871393,36.986578 C59.5286414,37.2113322 59.4697356,37.5074975 59.253,37.661 L53.021,41.915 L58.721,38.625 C58.9522043,38.4893139 59.2492776,38.5601121 59.3944329,38.785492 C59.5395883,39.0108719 59.4811678,39.310625 59.262,39.465 L53.794,43.365 L58.721,40.521 C58.9509138,40.3881765 59.2445501,40.4582269 59.3897427,40.6805365 C59.5349353,40.9028461 59.4810406,41.1998724 59.267,41.357 L55.728,43.951 L58.721,42.224 C58.9516836,42.095518 59.2425078,42.1685596 59.3851078,42.3907933 C59.5277078,42.613027 59.4729209,42.9078358 59.26,43.064 L58.9,43.318 C59.1216626,43.2861693 59.3374573,43.4056045 59.4281905,43.610336 C59.5189238,43.8150675 59.4624654,44.0551603 59.29,44.198 L57.6,45.6 L58.647,45 C58.8612281,44.8757696 59.1341181,44.9270717 59.2886053,45.120619 C59.4430926,45.3141663 59.4326274,45.5916394 59.264,45.773 L58.1,47.025 C58.3107057,47.0558888 58.4787241,47.216848 58.5186228,47.4260348 C58.5585216,47.6352215 58.4615439,47.8467242 58.277,47.953 L55.97,49.286 C55.7561364,49.4073482 55.4857848,49.3551846 55.3324201,49.1629809 C55.1790554,48.9707771 55.1882059,48.6955911 55.354,48.514 L56.272,47.523 L53.018,49.4 C52.7932637,49.5292165 52.507041,49.4652384 52.3587109,49.2526319 C52.2103808,49.0400255 52.2491446,48.7493126 52.448,48.583 L54.135,47.183 L50.29,49.4 C50.0593164,49.528482 49.7684922,49.4554404 49.6258922,49.2332067 C49.4832922,49.010973 49.5380791,48.7161642 49.751,48.56 L49.783,48.537 L48.283,49.4 C48.0530862,49.5328235 47.7594499,49.4627731 47.6142573,49.2404635 C47.4690647,49.0181539 47.5229594,48.7211276 47.737,48.564 L51.28,45.964 L45.337,49.4 C45.1064493,49.5302945 44.8142931,49.4582293 44.6707807,49.2356658 C44.5272684,49.0131024 44.5821807,48.717242 44.796,48.561 L50.262,44.661 L42.046,49.4 C41.8138908,49.5290838 41.5213628,49.4541763 41.3798607,49.229422 C41.2383586,49.0046678 41.2972644,48.7085025 41.514,48.555 L47.746,44.3 L38.911,49.4 C38.677796,49.5287421 38.3846061,49.4520483 38.2443128,49.2256054 C38.1040195,48.9991624 38.1658897,48.7024903 38.385,48.551 L45.029,44.151 L35.941,49.4 C35.7080939,49.5254293 35.4177914,49.4477402 35.2786627,49.2227492 C35.139534,48.9977582 35.1997289,48.7033305 35.416,48.551 L44.857,42.312 L32.578,49.4 C32.3424875,49.53196 32.0447503,49.4531389 31.9053796,49.2219348 C31.7660088,48.9907306 31.8353373,48.690641 32.062,48.544 L34.782,46.844 L30.352,49.4 C30.1177522,49.5308833 29.8219565,49.4535271 29.6817738,49.2247231 C29.5415911,48.9959191 29.6070088,48.6972561 29.83,48.548 L42.372,40.42 L26.817,49.4 C26.5813913,49.5297647 26.2853429,49.44988 26.1469933,49.2192076 C26.0086437,48.9885353 26.0775767,48.6897469 26.303,48.543 L33.49,44.064 L24.248,49.4 C24.1729666,49.4449513 24.0874539,49.4694328 24,49.471 Z"/><path fill="#5E8FAA" d="M36.508,59.471 C36.2927848,59.471 36.1017154,59.333285 36.0336584,59.1291139 C35.9656013,58.9249428 36.0358278,58.7001291 36.208,58.571 L36.373,58.445 L34.716,59.402 C34.4905366,59.5307726 34.2040247,59.4655416 34.0565297,59.2518563 C33.9090348,59.038171 33.9496436,58.7471469 34.15,58.582 L35.359,57.599 L32.235,59.399 C32.0152241,59.5155123 31.7432224,59.4527473 31.5967206,59.2517155 C31.4502187,59.0506838 31.4737759,58.7725302 31.652,58.599 L33.577,56.875 L29.2,59.4 C28.9769289,59.526215 28.6945426,59.4633143 28.5461309,59.2543528 C28.3977192,59.0453912 28.4313485,58.7580455 28.624,58.589 L30.3,57.146 L26.481,59.346 C26.2602724,59.4780893 25.9753402,59.4211513 25.8223276,59.2143776 C25.669315,59.0076038 25.6981566,58.7184732 25.889,58.546 L27.948,56.608 L24.823,58.408 C24.6021047,58.544633 24.313377,58.4893788 24.1585375,58.2808409 C24.0036981,58.0723029 24.0343161,57.7799345 24.229,57.608 L25.321,56.576 L24.321,57.152 C24.1109099,57.2740992 23.8434527,57.2274755 23.6870684,57.0414916 C23.5306841,56.8555077 23.5306552,56.5840171 23.687,56.398 L24.381,55.571 C24.1864404,55.5179019 24.0428281,55.3531161 24.0168184,55.1531253 C23.9908086,54.9531344 24.0874942,54.7570968 24.262,54.656 L26.054,53.621 C26.2640291,53.5001922 26.5304517,53.5473577 26.6862418,53.7329276 C26.8420319,53.9184976 26.8423514,54.1890627 26.687,54.375 L26.269,54.875 L28.51,53.6 C28.7291103,53.4734921 29.0081901,53.5305962 29.16,53.733 C29.3124283,53.9361482 29.2883433,54.221297 29.104,54.396 L28.012,55.429 L31.18,53.6 C31.4007276,53.4679107 31.6856598,53.5248487 31.8386724,53.7316224 C31.991685,53.9383962 31.9628434,54.2275268 31.772,54.4 L29.714,56.336 L34.45,53.6 C34.6730711,53.473785 34.9554574,53.5366857 35.1038691,53.7456472 C35.2522808,53.9546088 35.2186515,54.2419545 35.026,54.411 L33.341,55.858 L37.254,53.6 C37.4737759,53.4834877 37.7457776,53.5462527 37.8922794,53.7472845 C38.0387813,53.9483162 38.0152241,54.2264698 37.837,54.4 L35.913,56.123 L40.291,53.6 C40.5163165,53.4734703 40.8009298,53.5394798 40.9475485,53.7522715 C41.0941671,53.9650631 41.0544809,54.254523 40.856,54.42 L39.647,55.403 L42.771,53.603 C42.9993835,53.4730028 43.2894238,53.5419844 43.4348282,53.7608813 C43.5802326,53.9797781 43.5313725,54.2738777 43.323,54.434 L43.158,54.56 L44.815,53.603 C45.0355392,53.4749208 45.3171318,53.5333515 45.4685046,53.7386028 C45.6198775,53.9438541 45.5925136,54.2301403 45.405,54.403 L43.331,56.329 L47.844,53.724 C48.0688836,53.5964391 48.353928,53.6613606 48.50139,53.8737267 C48.6488521,54.0860929 48.6100926,54.3758562 48.412,54.542 L47.186,55.555 L49.086,54.455 C49.3086556,54.3276254 49.5915829,54.3894072 49.7408741,54.5980023 C49.8901653,54.8065975 49.8573852,55.0943305 49.665,55.264 L48.832,55.994 L49.615,55.542 C49.8199252,55.4225568 50.0805702,55.4635307 50.2389635,55.6400883 C50.3973567,55.8166459 50.4099037,56.0801934 50.269,56.271 L49.437,57.4 C49.6300504,57.3847716 49.8148611,57.4810595 49.913,57.648 C50.0510647,57.8871402 49.9691341,58.1929248 49.73,58.331 L47.947,59.36 C47.7423682,59.4773741 47.4835375,59.4357527 47.3260193,59.2601428 C47.168501,59.0845328 47.1551551,58.8227169 47.294,58.632 L48.058,57.59 L44.92,59.4 C44.697728,59.5250569 44.4169547,59.4627806 44.2684019,59.2554738 C44.1198491,59.0481669 44.1511316,58.7622764 44.341,58.592 L45.173,57.863 L42.509,59.4 C42.283976,59.5298327 41.9970107,59.4657046 41.8486599,59.252434 C41.7003091,59.0391634 41.7400029,58.7478116 41.94,58.582 L43.164,57.571 L39.994,59.401 C39.7734608,59.5290792 39.4918682,59.4706485 39.3404954,59.2653972 C39.1891225,59.0601459 39.2164864,58.7738597 39.404,58.601 L41.479,56.675 L36.758,59.4 C36.6825168,59.4456007 36.5961837,59.4701194 36.508,59.471 Z"/><path fill="#457393" d="M36.415,54.487 C36.2160638,54.4867312 36.0362128,54.3685547 35.9570107,54.1860643 C35.8778086,54.003574 35.9143252,53.7914924 36.05,53.646 L38.312,51.227 L33.28,54.127 C33.0667098,54.2497487 32.7958137,54.1990462 32.6413549,54.0074674 C32.4868961,53.8158887 32.4948049,53.540402 32.66,53.358 L34.76,51.04 L33.28,51.9 C33.1096653,51.9978089 32.8978421,51.9868268 32.7385353,51.8719276 C32.5792285,51.7570284 32.5019519,51.5594987 32.541,51.367 L32.865,49.791 C32.7516504,49.7520386 32.6563767,49.6731179 32.597,49.569 C32.4589353,49.3298598 32.5408659,49.0240752 32.78,48.886 L33.28,48.596 C33.4511828,48.4995324 33.6626476,48.5104366 33.823,48.624 C33.9836342,48.738455 34.0619719,48.9366493 34.023,49.13 L33.746,50.478 L37.03,48.578 C37.2432902,48.4552513 37.5141863,48.5059538 37.6686451,48.6975326 C37.8231039,48.8891113 37.8151951,49.164598 37.65,49.347 L35.55,51.665 L40.724,48.679 C40.9383746,48.5562044 41.2102971,48.6083859 41.3639891,48.8018129 C41.5176811,48.9952399 41.5070636,49.2719203 41.339,49.453 L39.077,51.872 L40.737,50.914 C40.9210572,50.8079633 41.1520218,50.8297951 41.3129505,50.9684413 C41.4738793,51.1070876 41.5296401,51.3322809 41.452,51.53 L40.922,52.87 C41.1257359,52.8404835 41.3271431,52.9368431 41.432,53.114 C41.5700647,53.3531402 41.4881341,53.6589248 41.249,53.797 L40.198,54.403 C40.0137529,54.5094355 39.7823281,54.4876041 39.6212353,54.3485912 C39.4601425,54.2095782 39.4046761,53.9838405 39.483,53.786 L39.994,52.497 L36.668,54.417 C36.5916229,54.4629562 36.5041371,54.4871618 36.415,54.487 Z"/><path fill="#4FC0E8" d="M32.658,44.471 C32.4356716,44.4709237 32.2400997,44.3240523 32.1780434,44.11056 C32.1159871,43.8970678 32.2023548,43.6682443 32.39,43.549 L34.12,42.449 L30.732,44.4 C30.499632,44.5256461 30.2096158,44.4488566 30.0698718,44.2246838 C29.9301277,44.0005111 29.9888767,43.7063095 30.204,43.553 L41.304,36.112 L26.945,44.4 C26.7112266,44.5287456 26.4175495,44.451198 26.277812,44.2238241 C26.1380746,43.9964502 26.201542,43.6994119 26.422,43.549 L38.3,35.8 L23.4,44.4 C23.1649134,44.527347 22.8712417,44.4472199 22.7334092,44.2181236 C22.5955767,43.9890272 22.6623612,43.6920368 22.885,43.544 L30.84,38.55 L20.882,44.3 C20.6472287,44.4336383 20.3487601,44.3566316 20.2079491,44.1260909 C20.0671382,43.8955501 20.1349089,43.5948498 20.361,43.447 L36.526,33.027 L19.41,42.913 C19.1742821,43.0408172 18.879703,42.9599384 18.742298,42.7296776 C18.604893,42.4994169 18.6735862,42.2017602 18.898,42.055 L23.333,39.325 L19.28,41.665 C19.0442821,41.7928172 18.749703,41.7119384 18.612298,41.4816776 C18.474893,41.2514169 18.5435862,40.9537602 18.768,40.807 L24.414,37.321 L19.28,40.285 C19.045977,40.4102853 18.7548421,40.3308598 18.6168649,40.1040881 C18.4788877,39.8773163 18.5421671,39.5822508 18.761,39.432 L33.109,30.232 L19.279,38.217 C19.0434875,38.34896 18.7457503,38.2701389 18.6063796,38.0389348 C18.4670088,37.8077306 18.5363373,37.507641 18.763,37.361 L27.163,32.061 L19.281,36.611 C19.0472266,36.7397456 18.7535495,36.662198 18.613812,36.4348241 C18.4740746,36.2074502 18.537542,35.9104119 18.758,35.76 L29.771,28.568 L19.281,34.624 C19.0473444,34.754691 18.7522074,34.6781466 18.6115213,34.4503692 C18.4708353,34.2225918 18.5345281,33.9244171 18.756,33.774 L27.779,27.817 L19.279,32.724 C19.0435621,32.85855 18.7437851,32.7809022 18.6032719,32.5489739 C18.4627586,32.3170456 18.5327324,32.0153851 18.761,31.869 L20.326,30.869 L19.279,31.469 C19.0479391,31.5988083 18.755732,31.5257757 18.6129134,31.3025221 C18.4700949,31.0792685 18.5262854,30.7833608 18.741,30.628 L26.773,24.96 L19.279,29.287 C19.0480694,29.4187312 18.7544326,29.3467083 18.6106663,29.1230717 C18.4668999,28.8994351 18.5232842,28.6023987 18.739,28.447 L24.014,24.688 L19.279,27.422 C19.0461397,27.5571428 18.7480811,27.4836362 18.6047577,27.2557197 C18.4614344,27.0278033 18.5243147,26.7273233 18.747,26.576 L19.437,26.105 L19.279,26.196 C19.0563444,26.3233746 18.7734171,26.2615928 18.6241259,26.0529977 C18.4748347,25.8444025 18.5076148,25.5566695 18.7,25.387 L22.555,22.018 L19.279,23.909 C19.0588809,24.0301079 18.7830752,23.9690693 18.6346132,23.7663908 C18.4861512,23.5637123 18.5111415,23.2823408 18.693,23.109 L20.138,21.799 L19.279,22.299 C19.0771381,22.4149573 18.8219575,22.3762592 18.6635507,22.2056672 C18.5051438,22.0350753 18.4854282,21.7777312 18.616,21.585 L19.366,20.485 C19.1734409,20.4978514 18.9898054,20.4021758 18.89,20.237 C18.7519353,19.9978598 18.8338659,19.6920752 19.073,19.554 L20.7,18.616 C20.9018619,18.5000427 21.1570425,18.5387408 21.3154493,18.7093328 C21.4738562,18.8799247 21.4935718,19.1372688 21.363,19.33 L20.675,20.341 L23.686,18.6 C23.906007,18.4804739 24.1805025,18.5421061 24.3282936,18.7442135 C24.4760846,18.9463208 24.4515992,19.2265828 24.271,19.4 L22.824,20.713 L26.49,18.6 C26.7126556,18.4726254 26.9955829,18.5344072 27.1448741,18.7430023 C27.2941653,18.9515975 27.2613852,19.2393305 27.069,19.409 L23.217,22.774 L30.45,18.6 C30.6821092,18.4709162 30.9746372,18.5458237 31.1161393,18.770578 C31.2576414,18.9953322 31.1987356,19.2914975 30.982,19.445 L30.282,19.924 L32.582,18.6 C32.8129306,18.4682688 33.1065674,18.5402917 33.2503337,18.7639283 C33.3941001,18.9875649 33.3377158,19.2846013 33.122,19.44 L27.851,23.196 L35.812,18.596 C36.0430609,18.4661917 36.335268,18.5392243 36.4780866,18.7624779 C36.6209051,18.9857315 36.5647146,19.2816392 36.35,19.437 L28.314,25.106 L39.585,18.6 C39.8198642,18.4687187 40.116504,18.5468396 40.2562412,18.7767732 C40.3959784,19.0067069 40.3286988,19.3059919 40.104,19.454 L38.552,20.443 L41.745,18.6 C41.978204,18.4712579 42.2713939,18.5479517 42.4116872,18.7743946 C42.5519805,19.0008376 42.4901103,19.2975097 42.271,19.449 L33.241,25.41 L45.041,18.6 C45.2751443,18.466888 45.5726521,18.5431618 45.713871,18.7725078 C45.8550899,19.0018537 45.789267,19.3018469 45.565,19.451 L34.555,26.641 L48.479,18.6 C48.7139709,18.4707854 49.0090387,18.549938 49.1477925,18.779405 C49.2865462,19.0088721 49.2195762,19.3069411 48.996,19.455 L40.586,24.767 L51.269,18.6 C51.503023,18.4747147 51.7941579,18.5541402 51.9321351,18.7809119 C52.0701123,19.0076837 52.0068329,19.3027492 51.788,19.453 L37.449,28.641 L53.349,19.464 C53.5847179,19.3361828 53.879297,19.4170616 54.016702,19.6473224 C54.154107,19.8775831 54.0854138,20.1752398 53.861,20.322 L48.2,23.816 L53.724,20.628 C53.9593357,20.5039739 54.2505799,20.58593 54.3866998,20.8144836 C54.5228197,21.0430371 54.4561505,21.3381561 54.235,21.486 L49.814,24.2 L53.72,21.95 C53.9543611,21.8211077 54.2486543,21.8994773 54.3878755,22.1278537 C54.5270968,22.3562301 54.4619368,22.6537271 54.24,22.803 L38.076,33.222 L53.72,24.19 C53.9561735,24.0538182 54.257908,24.1319319 54.3983318,24.3656081 C54.5387557,24.5992842 54.4661027,24.9023799 54.235,25.047 L46.263,30.053 L53.721,25.747 C53.9557034,25.6105132 54.2564374,25.6862675 54.3984741,25.9176544 C54.5405109,26.1490412 54.4719391,26.4514938 54.244,26.599 L42.366,34.347 L53.721,27.791 C53.9540829,27.6603387 54.2487074,27.7360343 54.3899423,27.9628661 C54.5311772,28.189698 54.4691015,28.4874899 54.249,28.639 L43.149,36.079 L53.719,29.979 C53.953481,29.8519272 54.2464228,29.9312599 54.3847366,30.1592909 C54.5230505,30.3873218 54.4580424,30.6837718 54.237,30.833 L52.512,31.933 L53.719,31.233 C53.9525451,31.1001562 54.2493244,31.1756362 54.3910248,31.4039163 C54.5327252,31.6321964 54.4686794,31.9316514 54.246,32.082 L48.604,35.848 L53.721,32.9 C53.9501341,32.7741188 54.2375618,32.8460072 54.3804556,33.0649362 C54.5233494,33.2838651 54.4734632,33.5759165 54.266,33.735 L47.178,38.923 L53.721,35.146 C53.9506891,35.0163703 54.2415695,35.0874408 54.3856041,35.3083819 C54.5296387,35.529323 54.477291,35.8241486 54.266,35.982 L50.253,38.918 L53.721,36.918 C53.9461719,36.7898524 54.2319328,36.8549337 54.3794056,37.06795 C54.5268784,37.2809662 54.4872066,37.5713471 54.288,37.737 L50.921,40.5 L53.721,38.884 C53.9472036,38.7555591 54.2341028,38.8220158 54.3807948,39.0368333 C54.5274867,39.2516509 54.4849625,39.5430602 54.283,39.707 L53.623,40.234 L53.723,40.179 C53.918339,40.0677607 54.1638997,40.1005556 54.3232013,40.2591574 C54.4825028,40.4177592 54.5163783,40.6631732 54.406,40.859 L53.406,42.599 L53.423,42.59 C53.6604252,42.4657991 53.9535531,42.5508381 54.0876466,42.7828199 C54.2217401,43.0148016 54.1491263,43.311252 53.923,43.455 L52.302,44.391 C52.1063976,44.5037798 51.8594815,44.4714758 51.6994758,44.3121719 C51.5394701,44.1528679 51.5060811,43.9060962 51.618,43.71 L52.618,41.971 L48.4,44.4 C48.1737964,44.5284409 47.8868972,44.4619842 47.7402052,44.2471667 C47.5935133,44.0323491 47.6360375,43.7409398 47.838,43.577 L48.5,43.048 L46.154,44.4 C45.9288281,44.5281476 45.6430672,44.4630663 45.4955944,44.25005 C45.3481216,44.0370338 45.3877934,43.7466529 45.587,43.581 L48.951,40.818 L42.745,44.4 C42.5153109,44.5296297 42.2244305,44.4585592 42.0803959,44.2376181 C41.9363613,44.016677 41.988709,43.7218514 42.2,43.564 L46.215,40.626 L39.678,44.4 C39.4483109,44.5296297 39.1574305,44.4585592 39.0133959,44.2376181 C38.8693613,44.016677 38.921709,43.7218514 39.133,43.564 L46.223,38.375 L35.786,44.4 C35.5532231,44.5270897 35.261714,44.4503218 35.1217259,44.225066 C34.9817379,43.9998101 35.0419791,43.7044427 35.259,43.552 L40.9,39.792 L32.908,44.4 C32.8323816,44.4452887 32.7461348,44.4697828 32.658,44.471 Z"/><path fill="#F4F6F8" d="M32.4,37.981 C32.190386,37.9803271 32.0034433,37.8489778 31.931755,37.6520024 C31.8600667,37.4550271 31.918853,37.2342458 32.079,37.099 L36.411,33.469 L32.28,35.852 C32.0530194,35.9846577 31.7620766,35.9188764 31.6142433,35.7014746 C31.46641,35.4840727 31.5121898,35.1893201 31.719,35.027 L34.104,33.127 L32.279,34.18 C32.0530916,34.3119558 31.7636544,34.2474504 31.6151588,34.0320531 C31.4666632,33.8166558 31.5093224,33.5232022 31.713,33.359 L33.2,32.149 L32.279,32.681 C32.0533902,32.8121968 31.7648226,32.7478035 31.6163907,32.5331402 C31.4679589,32.3184768 31.5095969,32.0257585 31.712,31.861 L32.222,31.442 C32.0034756,31.5323022 31.7515693,31.4571861 31.6181899,31.2619495 C31.4848104,31.0667129 31.5064253,30.8047359 31.67,30.634 L32.892,29.373 L32.279,29.726 C32.062074,29.8510668 31.786085,29.7963862 31.6332323,29.5980566 C31.4803795,29.399727 31.4978029,29.1189134 31.674,28.941 L31.987,28.624 C31.8619062,28.6141889 31.745288,28.556953 31.661,28.464 C31.5023731,28.2910957 31.4853204,28.0311452 31.62,27.839 L32.015,27.275 C31.8340879,27.2075698 31.7081639,27.0420062 31.6914936,26.8496572 C31.6748234,26.6573082 31.7703861,26.4725492 31.937,26.375 L33.224,25.632 C33.4270505,25.5152256 33.6839528,25.5550641 33.8421003,25.7278505 C34.0002479,25.9006369 34.0172471,26.1600534 33.883,26.352 L33.731,26.567 L34.462,26.147 C34.6781513,26.0307765 34.9467,26.0886088 35.0958521,26.2835009 C35.2450042,26.478393 35.2306619,26.7527236 35.062,26.931 L34.987,27.007 L35.487,26.721 C35.7027843,26.5964165 35.9773641,26.6497215 36.1308596,26.8459944 C36.2843551,27.0422673 36.2699153,27.3216005 36.097,27.501 L34.874,28.763 L36.974,27.552 C37.1991719,27.4238524 37.4849328,27.4889337 37.6324056,27.70195 C37.7798784,27.9149662 37.7402066,28.2053471 37.541,28.371 L37.051,28.771 L38.088,28.171 C38.3134634,28.0422274 38.5999753,28.1074584 38.7474703,28.3211437 C38.8949652,28.534829 38.8543564,28.8258531 38.654,28.991 L37.169,30.2 L39.409,28.907 C39.6356681,28.7752442 39.9256136,28.8409486 40.0733416,29.0575461 C40.2210695,29.2741437 40.1764035,29.5680662 39.971,29.731 L37.587,31.631 L40.878,29.731 C41.1024518,29.6023614 41.3879659,29.6661798 41.5362866,29.8781407 C41.6846073,30.0901017 41.6467491,30.3802014 41.449,30.547 L37.115,34.179 L42.58,31.024 C42.81893,30.8881549 43.1227102,30.9706292 43.2601373,31.2086528 C43.3975643,31.4466765 43.3171068,31.7509971 43.08,31.89 L32.647,37.914 C32.5720371,37.9577754 32.4868085,37.9808941 32.4,37.981 Z"/><path fill="#262626" d="M38.061,27.777 C36.446,26.877 31.953,23.746 31.282,27.512 C31.282,27.526 31.292,27.534 31.292,27.546 C31.292,27.558 31.276,27.575 31.276,27.591 C31.276,30.5 31.136,33.445 31.276,36.35 C31.419,39.335 34.197,38.121 35.848,37.197 L40.521,34.583 C41.5335048,34.1784854 42.47242,33.6098657 43.3,32.9 C45.209,30.588 39.386,28.518 38.061,27.777 Z M41.761,33.138 C40.7018733,33.9113876 39.5532244,34.55404 38.34,35.052 C37.131,35.728 35.554,37.052 34.203,37.366 C33.384,37.558 33.038,37.753 32.724,36.409 C32.691501,36.0908277 32.691501,35.7701723 32.724,35.452 L32.724,27.258 C33.037,25.642 34.953,27.317 35.752,27.764 L40.247,30.279 C41.294,30.864 43.164,31.731 41.761,33.138 Z"/><path fill="#262626" d="M59.726,17.914 C59.726,17.898 59.715,17.89 59.713,17.875 C59.711,17.86 59.728,17.83 59.724,17.806 C58.847,12.364 52.959,13.573 48.858,13.573 C42.611,13.573 36.363,13.56 30.116,13.573 C29.5628567,13.5755977 29.0107913,13.6220768 28.465,13.712 C27.812,13.651 24.721,9.806 23.833,8.889 L25.133,2.389 L29.827,7.083 C29.665,7.259 29.507,7.435 29.36,7.599 C28.799,8.223 29.02,8.699 29.413,9.304 C29.7115282,9.92707926 30.1000129,10.5028992 30.566,11.013 C31.254,11.562 32.443,11.094 33.004,10.587 C33.565,10.08 34.098,9.493 34.642,8.949 C35.186,8.405 35.708,7.782 34.982,7.12 C33.742,6.32 32.476,5.076 30.956,6.062 C30.916,6.088 30.878,6.124 30.838,6.152 L25.382,0.7 C25.054,0.368 24.151,0.647 23.991,1 L15.616,4.936 C13.398,5.978 9.462,6.936 7.667,8.687 C6.038,10.273 5.202,13.958 4.284,15.987 L0.284,24.826 C0.164,25.092 0.803,25.036 0.884,25.02 L8.546,23.494 C9.596,24.628 11.939,27.894 13.301,28.254 C13.1473823,30.0668212 13.1406938,31.8891 13.281,33.703 C13.281,37.211 11.62,45.966 14.973,48.517 C17.519,50.454 23.003,49.427 25.888,49.427 L32.288,49.427 L32.288,53.389 C30.4337884,53.3757814 28.5810217,53.4957567 26.744,53.748 C24.773,54.041 22.281,55.592 23.629,57.956 C24.601,59.656 26.991,59.274 28.612,59.274 L47.025,59.274 C47.0586833,59.2717048 47.0921257,59.2666884 47.125,59.259 C47.2705793,59.2564705 47.4151774,59.2346126 47.555,59.194 C49.631,58.633 52.124,56.757 49.898,54.551 C48.54,53.205 45.659,53.725 43.929,53.725 C43.205,53.725 42.47,53.711 41.729,53.689 L41.729,49.427 L46.143,49.427 C49.201,49.427 53.567,50.208 56.561,49.111 C61.345,47.359 59.731,39.642 59.731,35.788 L59.726,17.914 Z M31.78,6.443 C31.7915552,6.44831598 31.8026011,6.4546757 31.813,6.462 C31.913,6.627 32.326,6.793 32.487,6.897 L33.617,7.626 C34.492,8.426 32.51,9.826 31.991,10.349 C31.954,10.386 31.903,10.449 31.849,10.515 C31.862,10.422 31.773,10.315 31.678,10.184 C31.345,9.715 31.052,9.213 30.74,8.73 C30.5543892,8.51010354 30.4742192,8.22003664 30.5205598,7.93603243 C30.5669003,7.65202823 30.7351169,7.4024902 30.981,7.253 C31.1540831,7.1919212 31.2958108,7.06458215 31.375,6.899 C31.5265014,6.76249807 31.6623377,6.60955639 31.78,6.443 Z M3.479,23.93 C3.372,23.951 2.479,24.192 1.856,24.318 C1.90100138,24.2459581 1.93251491,24.1663271 1.949,24.083 C2.523,21.073 4.841,17.7 6.1,14.91 C6.824,13.31 8.276,9.326 8.88,8.768 C10.843,6.958 14.918,5.932 17.322,4.804 L23.889,1.72 C23.555,3.896 23.189,8.276 22.654,8.962 C21.7255634,9.2176245 20.8278872,9.57407939 19.977,10.025 C19.94,10.044 19.904,10.067 19.867,10.086 C14.69,12.6 10.075,17.548 8.489,22.845 C8.476,22.865 8.467,22.893 8.453,22.912 L8.453,22.921 L8.253,22.98 C6.72,23.444 5.048,23.618 3.479,23.93 Z M9.936,23.03 C9.90870355,22.9239448 9.89228542,22.815384 9.887,22.706 C10.5222627,20.6683447 11.4973261,18.7527034 12.771,17.04 C13.712,15.875 14.638,14.889 15.123,14.406 C17.0131118,12.5740351 19.1850829,11.057403 21.556,9.914 C21.922,9.76533333 22.2886667,9.632 22.656,9.514 C22.9287954,9.7452732 23.1731719,10.0081123 23.384,10.297 C24.4169887,11.701683 25.6269877,12.9671403 26.984,14.062 C24.6577865,14.8707844 22.5267192,16.1577365 20.728,17.84 C19.1927602,19.0965046 17.8052007,20.5233156 16.592,22.093 C15.3316809,23.5436183 14.3319274,25.201416 13.637,26.993 C12.275968,25.7969668 11.0362936,24.4695338 9.936,23.03 Z M52.114,43.7 L30.251,43.7 C28.02,43.7 23.621,44.573 21.51,43.7 C18.349,42.392 19.724,35.771 19.724,33.263 C19.724,29.532 18.931,24.839 19.724,21.182 C20.389,18.119 24.598,19.298 27.144,19.298 L41.373,19.298 C44.193,19.298 48.448,18.469 51.173,19.298 C54.778,20.398 53.281,27.458 53.281,30.222 C53.276,32.118 54.664,42.537 52.114,43.7 Z M44.1,54.274 C44.8366862,54.1855208 45.5813138,54.1855208 46.318,54.274 C47.882,54.72 51.335,57.574 47.691,58.725 L30.257,58.725 C28.622,58.725 22.482,58.903 25.405,55.29 C26.537,53.89 29.481,53.814 32.276,53.971 L32.276,54.194 C32.276,54.361 32.613,54.385 32.711,54.385 L40.673,54.385 C40.8693869,54.3821862 41.0637227,54.3446056 41.247,54.274 L44.1,54.274 Z M40.28,53.615 L39.687,53.615 C37.718,53.53 35.715,53.429 33.728,53.395 L33.728,49.427 L40.28,49.427 L40.28,53.615 Z M58.28,43.521 C57.908,48.177 54.968,48.573 51.238,48.573 L21.4,48.573 C20.3922995,48.6825038 19.3757005,48.6825038 18.368,48.573 C13.996,47.493 14.73,44.235 14.73,41.078 C14.73,36.949 13.962,32.054 14.73,27.997 C14.761,27.832 14.816,27.66 14.859,27.491 C15.6882863,25.2582627 16.8851268,23.1799311 18.4,21.342 C18.3099674,21.9342645 18.2694937,22.5330069 18.279,23.132 C18.265,28.392 18.279,33.653 18.279,38.913 C18.279,41.928 18.015,44.029 21.512,44.299 C31.397,45.063 41.612,44.299 51.534,44.299 C51.5606197,44.2966348 51.5870261,44.2922894 51.613,44.286 C51.7654212,44.2913952 51.9177139,44.2721475 52.064,44.229 C55.598,43.273 54.727,39.968 54.727,36.935 C54.727,32.058 55.594,26.316 54.727,21.517 C54.157,18.356 52.262,18.701 49.497,18.701 L33.051,18.701 C29.304,18.701 25.237,18.246 21.51,18.701 C21.2405159,18.7336546 20.9733307,18.7830839 20.71,18.849 C22.1574971,17.4708521 23.7796975,16.2887471 25.535,15.333 C26.3238383,14.9200391 27.1647429,14.6152953 28.035,14.427 C32.571,13.557 38.101,14.427 42.709,14.427 C46.679,14.427 57.355,12.478 58.278,18.193 C58.281,26.559 58.94,35.189 58.274,43.521 L58.28,43.521 Z"/><path fill="#262626" d="M48.911,22.649 C46.38,22.557 43.831,22.649 41.298,22.649 C40.829,22.649 39.736,23.349 40.698,23.349 L47.578,23.349 C48.738,23.349 49.178,23.474 49.272,24.749 C49.358,25.882 49.272,27.049 49.272,28.189 C49.272,28.53 50.72,28.289 50.72,27.801 C50.8169997,26.520501 50.8169997,25.234499 50.72,23.954 C50.551,22.874 49.917,22.685 48.911,22.649 Z"/><path fill="#262626" d="M49.267,32.059 L49.267,33.059 C49.267,33.802 50.733,33.576 50.733,32.941 L50.733,31.941 C50.733,31.2 49.267,31.424 49.267,32.059 Z"/></g></svg>