<svg fill="#000000" xmlns="http://www.w3.org/2000/svg"  viewBox="0 0 64 64" width="64px" height="64px"><path d="M57,2H53a5.00588,5.00588,0,0,0-5,5V51a.99908.99908,0,0,0,.14258.51465l6,10a1,1,0,0,0,1.71484,0l6-10A.99908.99908,0,0,0,62,51V7A5.00588,5.00588,0,0,0,57,2ZM53,4h4a3.00328,3.00328,0,0,1,3,3V8H50V7A3.00328,3.00328,0,0,1,53,4Zm3,46V14h4V50Zm-6,0V14h4V50Zm0-38V10H60v2Zm5,47.05664L50.76636,52h8.46728ZM34.707,2.293A1.00012,1.00012,0,0,0,34,2H5A3.00328,3.00328,0,0,0,2,5V59a3.00328,3.00328,0,0,0,3,3H41a3.00328,3.00328,0,0,0,3-3V12a.99928.99928,0,0,0-.293-.707ZM35,5.41406,40.58594,11H36a1.001,1.001,0,0,1-1-1ZM41,60H5a1.001,1.001,0,0,1-1-1V5A1.001,1.001,0,0,1,5,4H33v6a3.00328,3.00328,0,0,0,3,3h6V59A1.001,1.001,0,0,1,41,60ZM14,46H8a.99974.99974,0,0,0-1,1v6a.99974.99974,0,0,0,1,1h6a.99974.99974,0,0,0,1-1V47A.99974.99974,0,0,0,14,46Zm-1,6H9V48h4Zm20,1a.99974.99974,0,0,1-1,1H19a1,1,0,0,1,0-2H32A.99974.99974,0,0,1,33,53Zm6-5a.99974.99974,0,0,1-1,1H19a1,1,0,0,1,0-2H38A.99974.99974,0,0,1,39,48ZM14,34H8a.99974.99974,0,0,0-1,1v6a.99974.99974,0,0,0,1,1h6a.99974.99974,0,0,0,1-1V35A.99974.99974,0,0,0,14,34Zm-1,6H9V36h4Zm5,1a.99974.99974,0,0,1,1-1H32a1,1,0,0,1,0,2H19A.99974.99974,0,0,1,18,41Zm21-5a.99974.99974,0,0,1-1,1H19a1,1,0,0,1,0-2H38A.99974.99974,0,0,1,39,36ZM14,22H8a.99974.99974,0,0,0-1,1v6a.99974.99974,0,0,0,1,1h6a.99974.99974,0,0,0,1-1V23A.99974.99974,0,0,0,14,22Zm-1,6H9V24h4Zm5,1a.99974.99974,0,0,1,1-1H32a1,1,0,0,1,0,2H19A.99974.99974,0,0,1,18,29Zm21-5a.99974.99974,0,0,1-1,1H19a1,1,0,0,1,0-2H38A.99974.99974,0,0,1,39,24ZM14,10H8a.99974.99974,0,0,0-1,1v6a.99974.99974,0,0,0,1,1h6a.99974.99974,0,0,0,1-1V11A.99974.99974,0,0,0,14,10Zm-1,6H9V12h4Zm5,1a.99974.99974,0,0,1,1-1H32a1,1,0,0,1,0,2H19A.99974.99974,0,0,1,18,17Zm0-5a.99974.99974,0,0,1,1-1H30a1,1,0,0,1,0,2H19A.99974.99974,0,0,1,18,12Z"/></svg>