<svg fill="#ffd301" xmlns="http://www.w3.org/2000/svg"  viewBox="0 0 512 512" width="64px" height="64px"><path d="M 161 16 C 155.477 16 151 20.477 151 26 L 151 146.45898 C 95.015 151.52898 51 198.717 51 256 C 51 280.021 58.607 302.84586 73 322.00586 C 74.889 324.52086 77.851094 326 80.996094 326 L 112.00781 326 C 116.65381 348.795 136.85495 366 161.00195 366 C 185.14895 366 205.34814 348.795 209.99414 326 L 241.00586 326 C 244.15086 326 247.11295 324.52086 249.00195 322.00586 C 263.39495 302.84586 271.00195 280.021 271.00195 256 C 270.99995 199.073 227.324 151.55898 171 146.45898 L 171 26 C 171 20.477 166.523 16 161 16 z M 361 16 C 355.478 16 351 20.477 351 26 L 351 276.45898 C 295.016 281.52898 251 328.717 251 386 C 251 410.02 258.60605 432.84386 272.99805 452.00586 C 274.88705 454.52086 277.84914 456 280.99414 456 L 312.00586 456 C 316.65186 478.795 336.854 496 361 496 C 385.146 496 405.34914 478.795 409.99414 456 L 441.00586 456 C 444.15186 456 447.11295 454.52086 449.00195 452.00586 C 463.39395 432.84386 471 410.02 471 386 C 471 330.1 428.715 281.99998 371 276.45898 L 371 26 C 371 20.477 366.522 16 361 16 z M 201 46 A 10 10 0 0 0 201 66 A 10 10 0 0 0 201 46 z M 301 76 C 284.458 76 271 89.458 271 106 C 271 122.542 284.458 136 301 136 C 317.542 136 331 122.542 331 106 C 331 89.458 317.542 76 301 76 z M 421 76 A 10 10 0 0 0 421 96 A 10 10 0 0 0 421 76 z M 81 96 A 10 10 0 0 0 81 116 A 10 10 0 0 0 81 96 z M 301 96 C 306.514 96 311 100.486 311 106 C 311 111.514 306.514 116 301 116 C 295.486 116 291 111.514 291 106 C 291 100.486 295.486 96 301 96 z M 301 156 A 10 10 0 0 0 301 176 A 10 10 0 0 0 301 156 z M 431 156 C 425.478 156 421 160.477 421 166 L 421 216 C 421 221.523 425.478 226 431 226 C 436.522 226 441 221.523 441 216 L 441 166 C 441 160.477 436.522 156 431 156 z M 159.16992 166.02344 C 150.97492 210.89844 115.89944 245.97392 71.023438 254.16992 C 71.990437 205.99492 110.99592 166.99044 159.16992 166.02344 z M 179.15039 167.83984 C 189.75039 170.01884 199.67345 174.07191 208.56445 179.62891 C 197.28645 192.31591 191 208.643 191 226 C 191 257.967 212.90855 285.48727 242.81055 293.57227 C 240.83155 297.86527 238.5147 302.021 235.8457 306 L 86.154297 306 C 79.626297 296.266 75.146984 285.49939 72.833984 274.15039 C 127.16998 264.90639 169.89339 222.24284 179.15039 167.83984 z M 461 176 A 10 10 0 0 0 461 196 A 10 10 0 0 0 461 176 z M 224.28711 192.07422 C 246.41111 213.97922 255.25084 244.9682 249.08984 274.5332 C 227.18284 269.1432 211 249.218 211 226 C 211 213.234 215.76811 201.24922 224.28711 192.07422 z M 461 206 C 455.478 206 451 210.477 451 216 L 451 276 C 451 281.522 455.478 286 461 286 C 466.522 286 471 281.522 471 276 L 471 216 C 471 210.477 466.522 206 461 206 z M 359.16992 296.02344 C 350.97492 340.89844 315.89944 375.97392 271.02344 384.16992 C 271.99044 335.99492 310.99492 296.99044 359.16992 296.02344 z M 379.15039 297.83789 C 389.75039 300.01789 399.67345 304.07091 408.56445 309.62891 C 397.28545 322.31591 391 338.643 391 356 C 391 387.967 412.90855 415.48627 442.81055 423.57227 C 440.83055 427.86527 438.5147 432.021 435.8457 436 L 286.1543 436 C 279.6263 426.267 275.14698 415.49939 272.83398 404.15039 C 327.16798 394.90639 369.89339 352.24289 379.15039 297.83789 z M 424.28711 322.07422 C 446.47711 344.04422 455.23084 375.0522 449.08984 404.5332 C 427.18384 399.1432 411 379.218 411 356 C 411 343.234 415.76811 331.24822 424.28711 322.07422 z M 132.71289 326 L 189.28516 326 C 185.15816 337.641 174.038 346 161 346 C 147.962 346 136.84089 337.641 132.71289 326 z M 51 346 A 10 10 0 0 0 51 366 A 10 10 0 0 0 51 346 z M 106 386 C 86.701 386 71 401.701 71 421 C 71 440.299 86.701 456 106 456 C 125.299 456 141 440.299 141 421 C 141 401.701 125.299 386 106 386 z M 106 406 C 114.271 406 121 412.729 121 421 C 121 429.271 114.271 436 106 436 C 97.729 436 91 429.271 91 421 C 91 412.729 97.729 406 106 406 z M 221 416 A 10 10 0 0 0 221 436 A 10 10 0 0 0 221 416 z M 332.71484 456 L 389.28516 456 C 385.15816 467.641 374.037 476 361 476 C 347.963 476 336.84184 467.641 332.71484 456 z"/></svg>