<svg xmlns="http://www.w3.org/2000/svg" viewBox="0 0 1100 800" width="1100" height="800"><g transform="translate(416.0 21.0) rotate(0.0 178.0 131.5) scale(1.0731489687520726 1.076937566284893)"><svg width="331.734" height="244.211" viewBox="0 0 331.734 244.211"><path d="m198.642 39.791-65.563.6-65.688-.6-66.572.568.746-3.369v-.212l-.578-2.603.578-2.603v-.211l-.578-2.608.595-2.687.624-7.773 4.058-6.62 5.049-5.904 7.171-2.981L25.984 1l56.019.6 55.856-.6 56.002.6 55.861-.6 55.994.6 7.724.606 6.622 4.059 5.903 5.048 2.98 7.172 1.801 7.551-.577 2.606v.211l.577 2.603-.577 2.603v.211l.576 2.608-.649 2.94-65.778.573z" fill="#fff"/><path d="m328.698 36.878-.528-2.39v-.648l.528-2.385-.528-2.384v-.648l.525-2.371-1.658-6.948-2.734-6.583-5.42-4.634-6.078-3.725-7.177-.563L249.744 3l-55.904.6-55.959-.6-55.899.6-55.773-.598-7.104 1.694-6.582 2.736-4.635 5.42-3.726 6.078-.597 7.434-.529 2.389.529 2.389v.649l-.529 2.384.529 2.384v.649l-.25 1.129 64.095-.546 65.651.6 65.6-.6 65.657.6 64.169-.559z" fill="#fff"/><path d="m154.29 225.99-13.955-13.099-12.901-13.75-13.607-12.758-12.896-13.745-12.84-12.148h-.471l-12.91 12.221-12.771 13.619-13.741 12.894-12.735 13.581-13.371 12.959-21.066-.227.426-28.033L.85 158.12l.601-39.595L.85 79.132l.436-37.692.079-2.089 65.878-.561 65.688.6 65.562-.6 65.693.6 66.23-.577-.432 30.812.6 29.851-.6 30.117.6 29.842-.6 30.049.203 36.063h-75.583l-.439-4.797.584-3.602v-.159l-.587-3.61.591-3.636.004-.133-.271-2.521-.346-.322-15.692-.563-16.629.598-16.645-.602-32.248.009-.304.332.006.062-.121.122.407 2.979-.587 3.613-.02 7.302.005.032.004.174.567 5.281-3.813.041zm44.071-116.61.596-.841-.145-1.072z" fill="#231f20"/><path d="m255.183 220.726.593-3.655-.587-3.611v-.158l.585-3.596-.418-3.893-16.961-.61-16.63.598-16.572-.598-18.501.004.056.38-2.278-.392-2.997.581h-.186l-2.997-.582-3.019.587-.166.003-3.605-.533.401 4.367-.005.125-.594 3.654.588 3.608v.159l-.588 3.606.591 3.889 5.458.197.857-.166h.187l1.285.249 2.889.104 1.843-.358.166-.003 2.78.412.029.216 17.927-.645 16.517.598 16.626-.598 17.127.61-.406-4.424z" fill="#fff"/><path d="m227.986 242.611-50.745.6-50.803-.6-50.703.6-74.885-.304v-5.841l.19-12.531 56.879.614 51.03-.552 18.681.152 6.722.025 34.741.375 55.534-.6h105.556l.105 18.665z" fill="#f6a4bb"/><path d="m59.621 20.803.179-1.342-.933-.979-.235-.322-.7-1.295-2.767-.899-1.329.636-.376.122-1.332.245-.644 1.191-.234.322-.933.979.18 1.342v.399l-.197 1.46 1.711 2.352 1.449.267.376.122 1.222.584 1.223-.584.376-.122 1.332-.245.644-1.192.234-.322.933-.979-.179-1.34z" fill="#bbd95f"/><path d="M23.221 20.803c.04.267-.144 1.455-.18 1.74.697.597 1.501 1.758 1.868 2.597l2.768.898c.814-.486 2.209-.939 3.153-1.024l1.711-2.353c-.214-.926-.213-2.392 0-3.318L30.765 16.9l-2.981-.968-2.874.934c-.367.84-1.171 1.999-1.868 2.597z" fill="#ee4878"/><path d="m82.658 209.613-10.606.594-12.12-.098 6.548-6.065 4.933-5.777 5.624-4.789 4.959-5.793 5.86-5.089 5.856 5.085 4.783 5.617 5.791 4.957 4.819 5.659 6.734 6.268-12.03-.571-10.66.596z" fill="#231f20"/><path d="M20.68 225.737c12.464-11.526 27.834-28.871 40.549-40.117 6.245-7.04 19.618-20.438 26.627-26.73 7.044 6.317 20.401 19.717 26.679 26.783 12.772 11.294 28.236 28.753 40.763 40.322-42.151-.919-92.537.516-134.618-.258zm83.047-17.131 9.415.448.008-.018c-2.661-2.176-7.381-7.259-9.498-9.983l-5.792-4.957c-2.121-2.804-6.961-7.865-9.771-9.97h-.47c-2.811 2.075-7.651 7.207-9.786 9.988l-5.622 4.787c-2.162 2.756-6.977 7.956-9.68 10.164l.025.066c4.969.201 15.041-.115 20.017-.525 5.284.571 15.87.566 21.154 0z" fill="#f5b7a6"/><path d="m255.419 205.704-32.66.571-33.934.029-2.925-.381-14.338.494.397 18.632h32.253l15.922-.883 18.419-.004 16.631.593z" fill="#fff"/><path d="m3 237.066-3-.046.6-39.487-.6-39.444.6-39.534L0 79.108l.454-39.277 1.488-1.483 65.468-.557 65.651.6 65.6-.6 65.657.6 65.728-.573 1.513 1.521-.424 30.25.599 29.928-.6 30.038.6 29.922-.6 30.041-2.999-.059.6-29.982-.6-29.922.6-30.038-.6-29.919.402-28.766-64.219.559-65.657-.6-65.6.6-65.652-.6-63.972.544L3 79.103l.6 39.452-.6 39.534.6 39.444z" fill="#231f20"/><path d="m169.221 227.149-55.618-.6-55.556.6-55.617-.6.032-3 55.585.6 55.556-.6 55.618.6 55.562-.6h105.151v3H224.799z" fill="#231f20"/><path d="m329.926 244.211-101.77-.6-50.743.6-50.802-.6-50.739.6-74.378-.301L0 242.41v-6.313h3v4.819l72.861.295 50.75-.6 50.802.6 50.734-.6 100.279.591-.291-51.705 3-.017.299 53.223z" fill="#231f20"/><path d="m77.749 140.364-.05-3 20.758-.347 10.128-1.505 9.619-3.791 9.673-3.735 8.857-5.684 9.056-5.433 2.887-2.733-.682-6.353v-.325l1.242-10.783 1.881-4.898 1.588-4.918.501-.719 5.947-4.667 1.269-.28 4.634 1.086.913.639 1.306 1.994.244.763.303 7.692-.134.682-4.415 9.676-.292.426-7.457 7.633-3.707 3.511.208 1.933 9.265 10.709 2.35 1.402 6 .668 6.029-1.022 6.187-3.267 5.927-3.497 4.283-5.477 3.974-5.608 1.595-6.757 2.946.145 1.604 11.895 2.427 5.056 4.675 3.521 4.846 3.18 3.678.562 11.561 1.44 3.647-.935.744 2.906-3.922 1.005-.558.035-11.884-1.48-4.042-.618-.596-.229-5.199-3.415-5.046-3.797-.45-.549-2.688-5.599-.134-.449-.595-4.412-4.178 5.893-4.5 5.757-.42.368-6.233 3.676-6.461 3.414-.45.152-6.474 1.098-.417.012-6.533-.728-.603-.203-2.837-1.692-.366-.307-9.73-11.248-.371-.947-1.606 1.472-9.158 5.493-9.216 5.879-9.805 3.786-10.098 3.938-10.591 1.561zm73.246-32.738.42 3.917 2.005-1.899 7.232-7.405 4.158-9.113-.272-6.92-.75-1.145-3.349-.785-5.021 3.94-1.474 4.559-1.838 4.794z" fill="#fff"/><g fill="#231f20"><path d="m154.483 226.849-26.718-.1-24.593-.201-81.127.212-1.048-2.577 13.156-12.749 12.779-13.627 13.742-12.893 12.767-13.615 13.535-12.81h2.062l13.461 12.737 12.893 13.741 13.606 12.758 12.902 13.75 13.616 12.779zm-51.303-3.3 24.603.201 22.902.085-10.906-10.239-12.902-13.75-13.606-12.758-12.897-13.746-12.367-11.698-12.44 11.771-12.771 13.62-13.742 12.893-12.762 13.61-10.538 10.212z"/><path d="M93.384 211.205h-.17l-10.491-.595-10.496.595-10.896-.085-1.007-2.601 5.647-5.228 4.973-5.811 5.623-4.788 4.949-5.786 5.506-4.782h1.967l5.659 4.937 4.782 5.618 5.792 4.957 4.811 5.649 5.652 5.233-1.09 2.599-10.71-.508zM65.14 208.15l7.015.057 10.653-.597 10.491.595 10.651-.596 6.68.317-2.823-2.627-4.791-5.626-5.792-4.957-4.787-5.623-4.431-3.848-4.437 3.853-4.965 5.801-5.623 4.788-4.906 5.746zm123.64 18.111-16.51-.593-1.438-1.339-.365-3.396.011-.401.561-3.448-.561-3.449v-.481l.569-3.508-.348-3.799 1.493-1.637 33.203-.007 16.573.599 16.628-.598 16.51.593 1.438 1.338.365 3.396-.011.401-.561 3.448.561 3.449v.481l-.569 3.511.348 3.797-1.547 1.636-16.578-.591-16.626.598-16.518-.598zm-15.103-3.544 15.157.544 16.629-.598 16.518.598 16.625-.598 14.929.532-.209-2.29.013-.377.561-3.458-.561-3.45v-.481l.567-3.489-.205-1.902-15.157-.544-16.629.598-16.573-.6-31.505.007.215 2.353-.013.377-.561 3.456.561 3.449v.481l-.567 3.489z"/><path d="m175.101 226.241-2.866-.493-1.229-1.254-.547-3.72.02-7.619.563-3.475-.5-3.667 1.707-1.687 3.066.455 2.838-.551h.571l2.806.544 2.811-.544.539-.006 2.866.493 1.229 1.254.547 3.72-.02 7.618-.564 3.484.5 3.657-1.707 1.687-3.066-.455-2.838.551h-.571l-2.806-.544-2.811.544zm-1.291-3.266 1.529.263 2.827-.547h.571l2.805.544 2.805-.544.506-.011 1.343.199-.26-1.899.006-.443.581-3.586v-7.145l-.351-2.313-1.529-.263-2.827.547h-.571l-2.806-.544-2.804.544-.506.011-1.344-.199.26 1.909-.006.443-.58 3.577v7.145zM331.386 51.679l-2.999-.071.348-14.765-.001-5.223-.59-2.701-1.141-9.898-2.701-6.5-5.42-4.634-6.078-3.725-7.176-.562-55.884-.6-55.904.6-55.96-.6-55.897.6-55.775-.598-7.104 1.695-6.582 2.736-4.634 5.42-3.726 6.077-.598 7.433-.552 2.499.587 8.076-.164 4.539-2.998-.108.161-4.458-.594-8.048.031-.434.578-2.611.587-7.482.216-.666 4.115-6.677 4.944-5.783.564-.41 7.252-2.993L26.056 0l55.927.6L137.88 0l55.96.6 55.904-.6 56.068.605 7.586.594.666.217 6.678 4.114 5.782 4.945.411.564 2.919 7.025.105.404 1.157 10.031.618 2.957v5.422z"/><path d="m27.47 29.077-3.908-1.269-.856-.713-.891-1.647-1.292-1.355-.401-1.235.249-1.855-.249-1.855.401-1.235 1.292-1.354.89-1.647.856-.714 3.908-1.27h.927l3.908 1.27.75.545 2.416 3.324.273 1.082-.249 1.855.25 1.854-.273 1.082-2.417 3.324-.942.593-1.842.339-1.69.809zm-2.411-3.937 2.767.898 1.329-.636.376-.122 1.449-.267 1.71-2.353-.196-1.458v-.4l.196-1.459-1.776-2.444-2.981-.968-2.874.934-.7 1.295-.234.322-.934.979.18 1.341v.399l-.18 1.341.934.979.234.322zm30.796 3.863H54.56l-1.689-.808-1.842-.339-.942-.593-2.417-3.324-.273-1.082.25-1.855-.25-1.855.401-1.235 1.292-1.354.89-1.647 1.048-.762 1.843-.339 1.689-.809 1.111-.074 3.908 1.27.856.714.89 1.646 1.292 1.354.401 1.235-.25 1.855.25 1.854-.401 1.235-1.292 1.354-.89 1.647-1.048.762-1.843.339zm-3.694-3.989 1.448.267.376.122 1.222.585 1.223-.585.376-.122 1.332-.245.644-1.191.234-.322.934-.979-.181-1.34v-.4l.181-1.341-.934-.979-.234-.323-.7-1.295-2.768-.899-1.329.636-.376.122-1.332.245-.644 1.191-.233.321-.934.979.181 1.341v.399l-.196 1.459z"/></g></svg></g><g transform="translate(226.0 753.0) rotate(0.0 191.0 10.5) scale(1.0593337844283481 1.0707729961248216)"><svg width="360.604" height="19.612" viewBox="0 0 360.604 19.612"><ellipse cx="180.302" cy="9.806" fill="#231f20" rx="180.052" ry="9.556"/><path d="M180.302 19.612C91.674 19.612 0 15.944 0 9.806S91.674 0 180.302 0s180.302 3.668 180.302 9.806-91.674 9.806-180.302 9.806zm0-19.112C72.749.5.5 5.312.5 9.806s72.249 9.306 179.802 9.306S360.104 14.3 360.104 9.806 287.855.5 180.302.5z"/></svg></g><g transform="translate(887.0 54.0) rotate(16.70322577783047 33.0 39.5) scale(1.0031004924311506 1.0041181554730794)"><svg width="65.796" height="78.676" viewBox="0 0 65.796 78.676"><path d="M6.083 77.173c-.822.066-1.246-.785-1.902-1.106-.609-.558-1.38-1.027-1.92-1.668-.505-.557-.53-1.345-.599-2.033-.065-.809-.411-1.774.17-2.476 9.784-11.923 22.763-28.533 32.544-40.454 5.31-6.781 16.171-20.342 21.635-27.003.736-.806 1.995-.756 2.994-.795 1.198-.544 2.026.666 2.913 1.253.606.643 1.613 1.058 1.913 1.969.315.815.235 1.698.375 2.532 1.267.563-11.07 14.27-11.19 14.842-9.499 12.138-22.874 28.426-32.369 40.563L9.741 76.245a1.546 1.546 0 0 1-.746.504c-.942.315-1.949.241-2.912.424z" fill="#c3acf1"/><path d="M5.987 78.676c-1.043 0-1.73-.62-2.151-1-.102-.092-.254-.23-.315-.263l-.353-.241c-.203-.186-.428-.359-.653-.536-.453-.354-.966-.755-1.401-1.271-.757-.833-.855-1.891-.927-2.663l-.018-.188c-.015-.178-.039-.333-.063-.49-.123-.809-.309-2.032.571-3.093 4.891-5.959 10.685-13.224 16.289-20.249 5.586-7.002 11.362-14.243 16.25-20.201C38.564 21.651 49.493 8.01 54.85 1.479 55.993.224 57.594.177 58.654.146l.047-.001c1.616-.541 2.853.509 3.537 1.089.17.145.336.29.507.403l.263.221c.122.129.321.281.531.441.579.441 1.372 1.045 1.716 2.089.258.66.308 1.363.352 1.983.012.158.022.316.038.473.045.1.081.206.106.316.287 1.246-.355 2.563-8.678 12.445-1.119 1.329-2.273 2.699-2.646 3.197l-.017.078-.215.274c-4.748 6.068-10.555 13.285-16.171 20.265-5.628 6.995-11.448 14.228-16.196 20.298L10.906 77.19a3.04 3.04 0 0 1-1.467.992c-.707.237-1.43.296-2.068.348-.337.028-.676.053-1.007.116l-.16.021a2.303 2.303 0 0 1-.217.009zm-.935-3.842c.326.193.582.423.794.615.068.062.161.146.232.203.362-.055.709-.084 1.048-.111.514-.042.999-.082 1.393-.214l10.963-13.475c4.745-6.065 10.571-13.307 16.206-20.31 5.564-6.915 11.316-14.064 16.03-20.085.248-.426.924-1.243 3.062-3.781 2.341-2.781 7.078-8.405 7.937-10.093a11.678 11.678 0 0 1-.102-.995c-.034-.469-.062-.875-.184-1.187-.079-.232-.429-.499-.71-.713-.244-.186-.517-.394-.773-.645a9.618 9.618 0 0 1-.651-.52c-.217-.184-.579-.491-.723-.527l-.268.122-.564.028c-.587.018-1.391.041-1.625.297-5.294 6.46-16.202 20.074-21.561 26.917C30.66 36.328 24.89 43.561 19.31 50.555 13.7 57.588 7.898 64.86 2.99 70.841c-.018.086.044.492.081.734.035.229.068.455.085.67l.018.181c.032.351.077.832.197.965.271.319.621.593.991.883.236.185.47.369.69.56z" fill="#231f20"/></svg></g><g transform="translate(183.0 77.0) rotate(0.0 12.0 12.0) scale(0.9965535855167547 0.9909165978530141)"><svg width="24.083" height="24.22" viewBox="0 0 24.083 24.22"><path d="M12.041 22.72c-.095 0-.189-.009-.283-.027l-2.791-.537a1.468 1.468 0 0 1-.349-.113l-2.576-1.198a1.502 1.502 0 0 1-.463-.334l-1.943-2.073a1.527 1.527 0 0 1-.215-.295l-1.385-2.482a1.518 1.518 0 0 1-.18-.549l-.346-2.821a1.486 1.486 0 0 1 0-.365l.346-2.821c.024-.193.085-.379.179-.548l1.384-2.481c.061-.105.133-.204.217-.294L5.58 3.709c.131-.14.287-.253.462-.334l2.576-1.198c.11-.052.228-.09.349-.113l2.791-.537a1.507 1.507 0 0 1 .566 0l2.79.537c.121.023.237.061.349.113l2.577 1.198c.174.081.331.194.463.334l1.943 2.073c.083.089.156.188.216.295l1.384 2.482c.094.169.154.355.179.547l.347 2.821c.015.122.015.245 0 .366l-.347 2.821a1.512 1.512 0 0 1-.179.547l-1.384 2.481a1.575 1.575 0 0 1-.216.295l-1.943 2.073c-.132.14-.288.254-.463.334l-2.577 1.198a1.515 1.515 0 0 1-.349.113l-2.79.537a1.407 1.407 0 0 1-.283.028z" fill="#c3acf1"/><path d="m12.041 3 2.791.538 2.577 1.197 1.943 2.073 1.384 2.481.347 2.821-.347 2.82-1.384 2.481-1.943 2.073-2.577 1.198-2.791.537-2.791-.537-2.577-1.198-1.943-2.073-1.384-2.482L3 12.11l.347-2.82L4.73 6.808l1.943-2.073L9.25 3.537zm0-3c-.19 0-.38.018-.568.054l-2.79.538a2.987 2.987 0 0 0-.697.225L5.409 2.015a2.994 2.994 0 0 0-.924.669L2.542 4.756a3.018 3.018 0 0 0-.432.591L.727 7.829c-.189.338-.31.71-.357 1.095l-.347 2.821c-.03.243-.03.489 0 .732l.347 2.82c.047.384.169.756.357 1.095l1.384 2.482c.119.214.264.413.432.591l1.943 2.073c.262.28.576.507.924.668l2.577 1.198c.223.104.457.179.698.226l2.791.537a3 3 0 0 0 1.134 0l2.791-.537a3.01 3.01 0 0 0 .698-.225l2.577-1.198c.348-.162.662-.389.924-.669l1.943-2.073c.167-.179.312-.377.431-.591l1.384-2.481c.189-.338.31-.71.357-1.095l.347-2.82a2.98 2.98 0 0 0 0-.731l-.347-2.821a2.997 2.997 0 0 0-.358-1.096l-1.384-2.481a3.007 3.007 0 0 0-.431-.59l-1.943-2.073a3.002 3.002 0 0 0-.925-.669L16.097.82A2.987 2.987 0 0 0 15.4.595L12.609.057A2.792 2.792 0 0 0 12.041 0z" fill="#231f20"/></svg></g><g transform="translate(296.0 162.0) rotate(22.228295894934366 28.0 33.5) scale(0.8511155693355218 0.8515938786923585)"><svg width="65.796" height="78.676" viewBox="0 0 65.796 78.676"><path d="M6.083 77.173c-.822.066-1.246-.785-1.902-1.106-.609-.558-1.38-1.027-1.92-1.668-.505-.557-.53-1.345-.599-2.033-.065-.809-.411-1.774.17-2.476 9.784-11.923 22.763-28.533 32.544-40.454 5.31-6.781 16.171-20.342 21.635-27.003.736-.806 1.995-.756 2.994-.795 1.198-.544 2.026.666 2.913 1.253.606.643 1.613 1.058 1.913 1.969.315.815.235 1.698.375 2.532 1.267.563-11.07 14.27-11.19 14.842-9.499 12.138-22.874 28.426-32.369 40.563L9.741 76.245a1.546 1.546 0 0 1-.746.504c-.942.315-1.949.241-2.912.424z" fill="#F6A4BB"/><path d="M5.987 78.676c-1.043 0-1.73-.62-2.151-1-.102-.092-.254-.23-.315-.263l-.353-.241c-.203-.186-.428-.359-.653-.536-.453-.354-.966-.755-1.401-1.271-.757-.833-.855-1.891-.927-2.663l-.018-.188c-.015-.178-.039-.333-.063-.49-.123-.809-.309-2.032.571-3.093 4.891-5.959 10.685-13.224 16.289-20.249 5.586-7.002 11.362-14.243 16.25-20.201C38.564 21.651 49.493 8.01 54.85 1.479 55.993.224 57.594.177 58.654.146l.047-.001c1.616-.541 2.853.509 3.537 1.089.17.145.336.29.507.403l.263.221c.122.129.321.281.531.441.579.441 1.372 1.045 1.716 2.089.258.66.308 1.363.352 1.983.012.158.022.316.038.473.045.1.081.206.106.316.287 1.246-.355 2.563-8.678 12.445-1.119 1.329-2.273 2.699-2.646 3.197l-.017.078-.215.274c-4.748 6.068-10.555 13.285-16.171 20.265-5.628 6.995-11.448 14.228-16.196 20.298L10.906 77.19a3.04 3.04 0 0 1-1.467.992c-.707.237-1.43.296-2.068.348-.337.028-.676.053-1.007.116l-.16.021a2.303 2.303 0 0 1-.217.009zm-.935-3.842c.326.193.582.423.794.615.068.062.161.146.232.203.362-.055.709-.084 1.048-.111.514-.042.999-.082 1.393-.214l10.963-13.475c4.745-6.065 10.571-13.307 16.206-20.31 5.564-6.915 11.316-14.064 16.03-20.085.248-.426.924-1.243 3.062-3.781 2.341-2.781 7.078-8.405 7.937-10.093a11.678 11.678 0 0 1-.102-.995c-.034-.469-.062-.875-.184-1.187-.079-.232-.429-.499-.71-.713-.244-.186-.517-.394-.773-.645a9.618 9.618 0 0 1-.651-.52c-.217-.184-.579-.491-.723-.527l-.268.122-.564.028c-.587.018-1.391.041-1.625.297-5.294 6.46-16.202 20.074-21.561 26.917C30.66 36.328 24.89 43.561 19.31 50.555 13.7 57.588 7.898 64.86 2.99 70.841c-.018.086.044.492.081.734.035.229.068.455.085.67l.018.181c.032.351.077.832.197.965.271.319.621.593.991.883.236.185.47.369.69.56z" fill="#231f20"/></svg></g><g transform="translate(113.0 345.0) rotate(0.0 7.0 -7.0) scale(1.0302450511443078 -1.0153020523605774)"><svg width="13.589" height="13.789" viewBox="0 0 13.589 13.789"><path d="M6.795 12.289c-.119 0-.237-.014-.354-.042l-1.173-.285a1.511 1.511 0 0 1-.216-.07l-1.116-.459a1.492 1.492 0 0 1-.573-.417l-.781-.92a1.383 1.383 0 0 1-.132-.182l-.636-1.027a1.51 1.51 0 0 1-.221-.677l-.09-1.204a1.66 1.66 0 0 1 0-.223l.09-1.204a1.51 1.51 0 0 1 .221-.677l.635-1.027c.039-.064.083-.125.132-.182l.781-.92a1.5 1.5 0 0 1 .573-.417l1.116-.459c.07-.029.143-.052.216-.07l1.173-.285a1.518 1.518 0 0 1 .709 0l1.173.285c.073.018.146.041.216.07l1.116.459c.222.091.419.234.574.417l.78.92c.048.057.092.117.131.181l.635 1.026c.127.205.202.437.221.677l.09 1.204a1.66 1.66 0 0 1 0 .223l-.09 1.204a1.51 1.51 0 0 1-.221.677l-.635 1.027a1.462 1.462 0 0 1-.131.181l-.78.92a1.503 1.503 0 0 1-.574.417l-1.116.459c-.07.029-.143.052-.216.07l-1.173.285a1.42 1.42 0 0 1-.354.045z" fill="#C3ACF1"/><path d="m6.794 3 1.173.285 1.116.458.781.92.635 1.027.09 1.204-.09 1.204-.635 1.027-.781.92-1.116.459-1.173.285-1.173-.285-1.116-.459-.781-.92-.634-1.027L3 6.894l.09-1.204.635-1.026.781-.92 1.116-.459zm0-3c-.237 0-.475.028-.707.084L4.914.369A3.011 3.011 0 0 0 4.48.51L3.364.969a3.006 3.006 0 0 0-1.147.834l-.781.92a3.223 3.223 0 0 0-.263.363L.538 4.112a3.01 3.01 0 0 0-.44 1.355l-.09 1.204a3.018 3.018 0 0 0 0 .446l.09 1.204c.036.48.187.945.44 1.355l.635 1.026c.079.127.167.248.264.362l.781.92c.31.366.704.652 1.147.834l1.116.459c.141.058.286.105.433.141l1.173.285a3.02 3.02 0 0 0 1.416 0l1.173-.285c.148-.036.293-.083.433-.141l1.116-.459a2.988 2.988 0 0 0 1.147-.834l.781-.92c.097-.114.185-.235.264-.362l.635-1.026a3.01 3.01 0 0 0 .44-1.355l.09-1.204a3.018 3.018 0 0 0 0-.446l-.09-1.204a3.002 3.002 0 0 0-.44-1.354l-.635-1.027a3.029 3.029 0 0 0-.264-.363l-.781-.92a2.991 2.991 0 0 0-1.148-.834L9.107.51a3.114 3.114 0 0 0-.432-.141L7.502.084A3.026 3.026 0 0 0 6.794 0z" fill="#231f20"/></svg></g><g transform="translate(650.0 751.0) rotate(0.0 154.0 12.0) scale(1.0702620056987977 1.1289867344058708)"><svg width="287.78" height="21.258" viewBox="0 0 287.78 21.258"><path d="M287.78 11.702c0 5.278-64.422 9.556-143.89 9.556S0 16.979 0 11.702s64.422-9.556 143.89-9.556c25.769 0 26.357-1.127 47.278-.339 1.129.043 26.179-1.85 27.289-1.806 1.238.05 13.712 5.665 13.712 5.665 39.695 1.701 55.611 2.665 55.611 6.036z" fill="#231f20"/></svg></g><g transform="translate(1015.0 537.0) rotate(0.0 11.5 11.5) scale(0.9550305194535565 0.9496284062758051)"><svg width="24.083" height="24.22" viewBox="0 0 24.083 24.22"><path d="M12.041 22.72c-.095 0-.189-.009-.283-.027l-2.791-.537a1.468 1.468 0 0 1-.349-.113l-2.576-1.198a1.502 1.502 0 0 1-.463-.334l-1.943-2.073a1.527 1.527 0 0 1-.215-.295l-1.385-2.482a1.518 1.518 0 0 1-.18-.549l-.346-2.821a1.486 1.486 0 0 1 0-.365l.346-2.821c.024-.193.085-.379.179-.548l1.384-2.481c.061-.105.133-.204.217-.294L5.58 3.709c.131-.14.287-.253.462-.334l2.576-1.198c.11-.052.228-.09.349-.113l2.791-.537a1.507 1.507 0 0 1 .566 0l2.79.537c.121.023.237.061.349.113l2.577 1.198c.174.081.331.194.463.334l1.943 2.073c.083.089.156.188.216.295l1.384 2.482c.094.169.154.355.179.547l.347 2.821c.015.122.015.245 0 .366l-.347 2.821a1.512 1.512 0 0 1-.179.547l-1.384 2.481a1.575 1.575 0 0 1-.216.295l-1.943 2.073c-.132.14-.288.254-.463.334l-2.577 1.198a1.515 1.515 0 0 1-.349.113l-2.79.537a1.407 1.407 0 0 1-.283.028z" fill="#F6A4BB"/><path d="m12.041 3 2.791.538 2.577 1.197 1.943 2.073 1.384 2.481.347 2.821-.347 2.82-1.384 2.481-1.943 2.073-2.577 1.198-2.791.537-2.791-.537-2.577-1.198-1.943-2.073-1.384-2.482L3 12.11l.347-2.82L4.73 6.808l1.943-2.073L9.25 3.537zm0-3c-.19 0-.38.018-.568.054l-2.79.538a2.987 2.987 0 0 0-.697.225L5.409 2.015a2.994 2.994 0 0 0-.924.669L2.542 4.756a3.018 3.018 0 0 0-.432.591L.727 7.829c-.189.338-.31.71-.357 1.095l-.347 2.821c-.03.243-.03.489 0 .732l.347 2.82c.047.384.169.756.357 1.095l1.384 2.482c.119.214.264.413.432.591l1.943 2.073c.262.28.576.507.924.668l2.577 1.198c.223.104.457.179.698.226l2.791.537a3 3 0 0 0 1.134 0l2.791-.537a3.01 3.01 0 0 0 .698-.225l2.577-1.198c.348-.162.662-.389.924-.669l1.943-2.073c.167-.179.312-.377.431-.591l1.384-2.481c.189-.338.31-.71.357-1.095l.347-2.82a2.98 2.98 0 0 0 0-.731l-.347-2.821a2.997 2.997 0 0 0-.358-1.096l-1.384-2.481a3.007 3.007 0 0 0-.431-.59l-1.943-2.073a3.002 3.002 0 0 0-.925-.669L16.097.82A2.987 2.987 0 0 0 15.4.595L12.609.057A2.792 2.792 0 0 0 12.041 0z" fill="#231f20"/></svg></g><g transform="translate(679.0 122.0) rotate(0.0 160.0 144.0) scale(1.043160777154779 1.0507497537305266)"><svg width="306.76" height="274.09" viewBox="0 0 306.76 274.09"><pattern id="a" height="12" overflow="visible" patternUnits="userSpaceOnUse" viewBox="1.159 -13.159 12 12" width="12" x="1654.692" y="3557.125"><path d="M1.159-13.159h12v12h-12z" fill="none"/><circle cx="13.159" cy="-4.159" fill="#fff" r="1.159"/><circle cx="7.159" cy="-1.159" fill="#fff" r="1.159"/><circle cx="1.159" cy="-4.159" fill="#fff" r="1.159"/><circle cx="13.159" cy="-10.159" fill="#fff" r="1.159"/><circle cx="7.159" cy="-7.159" fill="#fff" r="1.159"/><circle cx="1.159" cy="-10.159" fill="#fff" r="1.159"/><circle cx="7.159" cy="-13.159" fill="#fff" r="1.159"/></pattern><pattern xmlns:xlink="http://www.w3.org/1999/xlink" id="b" patternTransform="translate(-472.2541 -154.9001)" xlink:href="#a"/><path d="m90.041 87.271-.013-.01.024.022zM182.7 209.347l6.615-5.36 5.754-6.649 2.73-2.666-2.73 2.665-5.754 6.649-6.615 5.36-6.182 6.133.168-.119zm-28.639-39.705-7.148 10.768 7.156-10.76zm6.447 7.704-4.623-5.795-1.301-1.362 1.318 1.386zm-9.047 26.364-.286 4.251.204.855-.201-.891.776-8.484.017-.063-.013.028zm-40.907 32.443h-.001l4.299 2.35zm108.473 30.212.347 2.309 16.336-2.854-16.336 2.854zm-87.892-60.018-7.413 13.337-2.249 3.387 2.249-3.387zm-9.921 17.115-.294.442.001-.001zm40.81-42.374-2.146 3.202-2.463 2.971-.003.006.003-.005 5.607-6.764-.133-.166-.521.391zm-3.545 78.53 8.857 4.133.044.012-9.329-4.378z" fill="none"/><path d="m264.245 202.602-2.295-2.701-9.441-12.672 9.44 12.672zm-27.231-34.34-.15-.203.126.174zm-35.842 23.118 4.836-7.403-4.836 7.402-3.373 3.293zm14.091-19.853-3.056 4.838-6.199 7.612 6.199-7.611zm11.87-16.591-3.399 5.382z" fill="#692fdd"/><path d="m275.76 214.622-13.028-15.342-12.074-16.204-12.856-15.426-11.376-15.345 1.018-1.607 6.155-7.556.086-.159 1.306-4.026.011-.258-.919-3.954-.172-.266-3.719-2.855-2.409-1.287-.314-.041-5.156 1.178-.274.181-1.576 2.154-7.719 8.939-3.475-5.317-1.539-4.455-2.734-4.265-1.533-4.439-2.718-4.239-1.688-3.556 4.324.443.086.001 2.062-.144 1.668.321.374-.097 1.301-1.094 1.535-.717.246-.303.82-3.499.307-1.592-.065-.338-1.811-2.84-.28-.2-1.748-.432-1.809-1.315-4.168-1.684-2.598-.366-1.779-1.296-.253-.09-3.461-.208-.326.107-1.353 1.138-1.534.716-.246.303-.821 3.5-.293 1.525.097.374 1.111 1.321 1.513 4.256-5.049.732-.216.088-2.404 1.746-.16.201-.749 1.763-1.284 1.259-.139.318-.05 1.798-.735 1.641-.012.346.602 1.658.83 9.35 2.03 9.323.825 9.309.597 2.748-4.027 3.913-6.49 7.944-2.87 4.473-3.693 3.589-4.014 4.842-8.267-10.364-9.273-9.704-8.284-10.385-9.276-9.708-8.221-10.305-3.302-2.767-1.83-3.227 11.887-18.064 16.303-14.261 18.347-11.512 20.75-6.209 21.463-2.868 15.778 1.816 15.577 3.069 14.449 6.577 13.87 7.724 11.916 10.888 18.55 24.031 3.625 9.348 3.705 8.778 1.693 9.482 1.952 9.326-.15 9.617-4.382 31.198-14.696 27.134z" fill="#692fdd"/><path d="M195.882 129.17c-.118-.142-1.724-3.288-1.902-3.242-3.012-1.543-8.033-2.416-11.255-3.48l-.842-1.096.066-2.553c.604-.332 1.161-1.945 1.418-2.533l3.033-2.204c1.793-.24 5.39-.805 7.169-1.127 1.599.872 4.855 2.551 6.492 3.345.731 1.922 3.058 5.687 4.249 7.385l1.785 5.166-1.994 1.238-4.469.606z" fill="#ee4878"/><path d="M205.533 117.796c-1.333.211-4.42-.048-5.776-.242-.263-.583-2.84-1.704-3.382-1.998l-2.832-1.504-.301-.048-2.301.391c-.078-.144-1.312-3.842-1.437-3.946l-1.381-1.642c.223-1.405 1.071-5.002 1.414-6.427 1.125-.389 2.926-1.525 3.749-2.386l4.475.269c.142.084 1.934 1.461 2.062 1.425l2.173.261 4.41 1.732c.072.045 1.948 1.445 1.994 1.405l2.032.503 2.44 3.824c-.22 1.387-1.068 4.98-1.406 6.388-1.136.39-2.949 1.545-3.78 2.412z" fill="#ee4878"/><path d="M186.491 163.363c-1.265-4.589-2.706-13.877-2.853-18.629l-2.031-9.323c-.21-1.66-.589-10.151-1.591-11.466l1.604-3.583c3.517 2.711 9.424 2.597 13.218 4.854.123.151 1.695 3.247 1.903 3.221l2.901 1.164.244.03 3.766-.511c.091.039 1.948-1.178 2.056-1.229l2.872 4.482 1.536 4.445 3.302 5.149c-1.993 1.908-9.929 12.992-11.731 15.422-3.234 3.678-11.626 13.315-14.188 17.325zM52.15 155.741l1.14 2.215c1.321.491 3.836 1.731 5.019 2.494 1.798-.336 6.135-.065 7.981.119l5.306-.823c4.946.333 13.818.826 18.444-1.331.509-1.171 2.844-5.112 2.279-6.446-.587-1.128-2.167-4.248-3.184-5.021-4.271-.911-10.432-2.109-14.803-1.68l-5.399-.964-6.038.329c-1.707.221-6.957.798-8.479 1.553-1.232 1.185-2.413 5.583-2.859 7.193z" fill="#f5b7a6"/><path d="M82.371 80.284c-1.961-1.765-8.035-7.753-10.621-8.376l-3.267.186c-.871.782-3.239 2.909-4.021 3.718l-.339 3.5c.886.948 3.234 5.842 3.858 7.073l3.885 5.067 2.743 5.453c1.897 2.275 5.364 7.137 6.817 9.709.614.222 3.954 1.616 4.396 2.056.512.692 5.148 5.367 4.943 6.273-.326 2.713.023 8.284-2.704 9.969 1.31-.407 5.276 3.247 6.283 3.818.294.389 3.961 7.09 4.343 7.731 2.229 2.532 5.782 8.112 7.059 11.233 2.251 2.544 5.818 8.2 7.112 11.344l-2.674 1.36c-1.183-2.708-4.13-7.835-6.128-10.004-.318 2.191-1.717 6.634-2.528 8.715.576 2.426-.119 8.056-.54 10.511-.127.826-.065 5.348-.743 5.933-1.527 1.331-3.794 3.964-5.693 4.743-3.091.366-9.353.733-12.452.62-1.998-.59-6.727-.651-8.829-.541l-.02-3c2.112-.052 7-.155 8.98.54 2.894.093 8.699-.206 11.576-.565 1.026-.839 3.008-2.618 3.938-3.557l.235-4.141-.896-2.44-9.931-3.914c-4.595-.462-11.035-.06-15.598-.547l-5.306.823c-1.913-.196-6.284-.458-8.157-.095-1.468-.217-3.597-1.963-5.021-2.356-1.384 1.024-4.566 3.524-5.513 4.946l-.519 5.647 3 6.873c2.194 1.236 7.506 4.324 9.212 6.076l9.953 5.111 5.643 3.557 6.503 1.905c8.036 4.243 18.979 2.347 27.52 1.861l8.501-3.657 1.186 2.756-8.737 3.759c-.095.141-4.13.351-4.399.38.932 2.274 4.348 6.423 6.039 8.215l2.91 5.125c1.104 1.272 4.675 5.223 5.23 6.789 4.63-7.654 11.997-21.104 17.37-28.334 3.303-6.406 10.756-18.893 14.965-24.714-3.436-3.133-10.694-12.176-13.608-15.957l-9.277-9.708c-1.922-2.333-8.709-11.496-11.288-12.841-.204-.054-2.132-3.578-2.291-3.839l-2.644-2.914c-.201-.086-1.588-3.848-1.711-4.132l-2.312-3.479c-1.716-4.475-6.213-12.836-9.113-16.647-2.197-2.319-7.656-8.247-9.666-10.64l-4.311-3.138z" fill="#f5b7a6"/><path d="M58.751 142.156c2.508-.425 7.951-.835 10.537-.835 1.964.421 6.514 1.23 8.481.794l9.501-.758c1.161-.378 4.448-3.5 5.401-4.289-.006-1.449-.102-4.908-.568-6.264l-3.906-2.876c-1.345-.01-3.878-.419-5.093-.991-3.102-.423-13.007-.606-16.283-.681l-4.074.072a100.87 100.87 0 0 1-5.044 1.959c-.607 1.158-1.99 3.376-2.776 4.417.159 1.597.581 6.038 1.117 7.502z" fill="#f5b7a6"/><path d="M148.119 160.53c-3.967-5.409-12.742-15.432-17.56-20.092l-8.308-10.417c-.114-.129-3.126-2.507-3.188-2.671-.836-1.867-3.121-5.022-4.629-6.397-.14-.121-1.44-3.695-1.529-3.851l-2.344-3.528c-1.746-4.578-6.333-13.003-9.286-16.908l-6.409-6.903c-.121-.06-3.348-3.934-3.561-4.044l-4.229-3.079c-3.485-4.069-9.82-10.716-14.899-12.758l-4.511.257c-1.185 1.06-4.046 3.645-5.124 4.751l-.479 4.956c1.116 1.252 3.447 6.047 4.217 7.607l3.885 5.067 2.745 5.455c1.813 2.196 5.251 6.926 6.631 9.398l-2.22-.255-.144-.04-3.561-1.581-3.866-.444c-.177-.006-3.559-1.581-3.722-1.629-2.245-.151-6.742.014-8.974.317l-5.915 6.832.658 7.945 1.943 3.345c1.784.651 5.229 2.237 6.876 3.177-.757.343-3.464 1.32-4.289 1.621-.757 1.448-2.488 4.216-3.471 5.518.19 2.099.727 7.273 1.418 9.22l2.765 1.991c-.404-.052-3.462.975-3.909 1.104l-1.876 2.886-1.772 5.957c.237 1.688 1.443 4.738 2.357 6.175l.032.014c-1.701 1.209-5.056 4.006-6.243 5.714-1.164 8.149-.189 7.591 2.839 14.745 2.243 1.279 7.946 4.558 9.683 6.364 3.863 1.895 12.444 6.367 15.869 8.827 3.352.867 9.947 3.051 13.149 4.362 3.816.614 11.638.434 15.489-.016l3.124 5.502c2.199 2.178 5.663 6.998 6.946 9.813 2.082 2.088 5.54 6.754 6.742 9.447 5.729-8.627 12.964-22.739 19.211-31.109 3.456-6.772 11.377-19.8 15.805-25.98zm-46.835-6.818-1.782 5.139c.389 2.15.243 6.375-.231 8.507l-.616-1.679-10.9-4.296 3.734-1.37 2.879-5.966-.061-2.603c-.782-1.592-2.731-5.207-4.124-6.325-1.23-.241-6.355-1.331-7.504-1.39 6.85-.03 7.198-1.651 12.019-5.776l-.14-4.787c1.876 4.227 6.53 9.031 8.314 13.284z" fill="#f5b7a6"/><path d="m53.201 111.246.552 6.657 1.375 2.367c1.717.6 5.149 2.284 6.755 3.173 6.109-.368 16.227-.11 22.294.69 4.026-2.406 3.092-4.8 3.549-8.79l-3.933-4.44-3.13-1.388c-.226-.032-4.129-.438-4.159-.548l-3.42-1.519c-.204-.032-4.138-.437-4.152-.546l-3.346-1.486c-1.884-.115-5.683-.02-7.55.246z" fill="#f5b7a6"/><path d="m195.376 272.093-9.808-.815-9.481-2.952-9.411-2.684-9.53-4.473-10.172-5.559-11.22-4.767-10.559-5.772-11.216-4.766-7.698-4.208 3.772-1.935 3.586-2.941.091-.101 8.282-12.476 7.413-13.337 8.368-12.606 7.411-13.332 8.582-12.906 2.243 2.342 1.382 1.455 8.325 10.435-2.031 1.526-.113.119-2.109 3.148-2.439 2.942-.073.117-4.998 11.086-.049.182-.476 4.124-.257 3.852.065.276 2.056 3.457 2.151 3.283.177.162 6.106 3.273.301.05 5.857-.97.184-.07 5.09-3.261.05-.049.163-.116 5.97-5.967 6.557-5.315 5.694-6.579 6.005-5.863 4.774-7.307 6.189-7.598 5.334-8.447 6.193-7.602 4.894-7.748 11.622 15.674 12.823 15.381 12.069 16.199 12.997 15.299 11.154 15.986-.862 1.587-22.037 22.569-28.441 13.647-31.059 5.427z" fill="#cae062"/><path d="m156.833 215.671-2.368-3.617-2.306-3.877.799-8.728 5.184-11.498 10.026-12.109 3.588-3.486 2.909-4.48 6.549-8.033 4.578-4.447 1.682 7.722.785 8.863 2.787-3.799 9.819-11.369 8.959-12.212 9.818-11.37 1.915-2.61 6.219-1.422 2.861 1.506 4.301 3.301 1.132 4.868-1.519 4.683-6.238 7.658-5.336 8.449-6.193 7.602-5.334 8.446-6.201 7.613-4.736 7.3-6.128 5.982-5.665 6.574-6.629 5.372-6.151 6.138-5.571 3.567-6.653 1.102z" fill="#fff"/><path d="m195.376 272.093-9.808-.815-9.481-2.952-9.411-2.684-9.53-4.473-10.172-5.559-11.22-4.767-10.559-5.772-11.216-4.766-7.698-4.208 3.772-1.935 3.586-2.941.091-.101 8.282-12.476 7.413-13.337 8.368-12.606 7.411-13.332 8.582-12.906 2.243 2.342 1.382 1.455 8.325 10.435-2.031 1.526-.113.119-2.109 3.148-2.439 2.942-.073.117-4.998 11.086-.049.182-.476 4.124-.257 3.852.065.276 2.056 3.457 2.151 3.283.177.162 6.106 3.273.301.05 5.857-.97.184-.07 5.09-3.261.05-.049.163-.116 5.97-5.967 6.557-5.315 5.694-6.579 6.005-5.863 4.774-7.307 6.189-7.598 5.334-8.447 6.193-7.602 4.894-7.748 11.622 15.674 12.823 15.381 12.069 16.199 12.997 15.299 11.154 15.986-.862 1.587-22.037 22.569-28.441 13.647-31.059 5.427z" fill="url(#b)"/><path d="m73.419 106.503-.143-.039-5.624-.645 2.68-1.965-13.2-18.052-13.534-20.551-14.321-19.58-13.533-20.547L1.382 5.483l1.433-1.506.488-1.123 1.068-.236L6.506.861l15.405 21.263L36.242 43.96l15.133 20.884 14.328 21.831 17.519 24.181z" fill="#fff"/><path d="m106.567 211.956 1.387-2.085 1.158 1.553-.752-1.325-.637-.739-.768 1.179zm-1.643 3.876-1.122 1.722-.22.8.973-1.392zm-3.929 8.203-.24.368-.003.083.181-.263z" fill="#a5b1f0"/><path d="M71.937 105.523 1.906 4.778 5.74 2.063l72.537 104.35z" fill="#fff"/><g fill="#231f20"><path d="m84.821 126.928-1.843-2.367 3.041-2.369.732-1.705.409-5.21-3.935-4.44-3.128-1.389-3.723-.428-.437-.12-3.419-1.518-3.715-.427-.437-.12-3.347-1.486-3.932-.073-3.617.32-4.835 5.584.552 6.657 1.374 2.367 2.997 1.227 4.372 2.264-1.38 2.664-4.311-2.233-3.283-1.336-.732-.636-1.801-3.102-.198-.63-.632-7.623.361-1.106 5.645-6.52 1.002-.512 4.461-.386 4.317.08.581.129 3.414 1.517 3.715.427.437.119 3.419 1.518 3.723.429.436.119 3.637 1.614.514.377 4.572 5.161.373 1.111-.477 6.092-.117.474-.982 2.288-.457.592z"/><path d="m77.422 145.041-.239-2.991 9.52-.759 1.45-.836 3.952-3.453-.121-4.09-.448-2.174-3.905-2.875-2.85-.246-2.244-.745-4.763-.393-11.52-.289-4.074.073-2.603 1.065-2.441.894-1.33 2.329-1.446 2.088.565 5.243.551 2.26 2.784 2.003-1.753 2.435-3.234-2.328-.581-.861-.739-3.089-.636-5.897.259-1.015 1.726-2.493 1.498-2.636.788-.667 2.906-1.063 2.81-1.151.542-.112 4.42-.077 11.669.293 5.377.484 2.234.742 2.728.19.784.289 4.72 3.475.58.904.621 3.125.146 4.929-.513 1.174-4.833 4.184-1.869 1.079-.631.196z"/><path d="m65.686 163.507-5.069-.355-3.088.261-.871-.192-2.721-1.556-2.886-1.225-.747-.694-1.588-3.171-.735-2.928.017-.793 1.711-5.755.18-.39 1.739-2.675.811-.614 3.295-1.006 6.373-.836 6.27-.342.345.021 5.399.964 3.1-.171.276.01 6.503.844 5.65 1.137.824.473 1.884 2.175 2.208 4.112.178.675.055 2.363-.148.687-2.739 5.676-.835.756-4.149 1.521-.448.09-10.305.471-.175-.003-5.009-.352zm-4.975-3.356 5.011.352 5.305-.823 5.096.358 9.987-.456 3.361-1.232 2.318-4.803-.038-1.644-1.955-3.64-1.23-1.38-5.108-1.027-6.212-.805-3.136.173-.347-.021-5.399-.964-6.038.33-6.073.802-2.406.751-1.326 2.04-1.532 5.153.593 2.361 1.14 2.214 2.626 1.126 2.392 1.368z"/><path d="m81.534 180.849-.299-.029-2.798-.55-5.732.038-.019-3 5.882-.039.3.028 2.797.551 5.673-.038 5.904-.527 2.091-1.79 1.847-1.766.236-4.142-.896-2.44-9.931-3.914-6.722-.369.164-2.995 6.954.382.45.095 2.689 1.019 8.129 3.244.853.876 1.233 3.36.09.603-.288 5.041-.461 1-2.335 2.23-2.516 2.157-.842.355-6.568.581z"/><path d="m93.67 201.02-.219-.001-6.858-.547-.404-.089-6.398-2.379-6.551-1.916-.379-.171-5.764-3.633-10.188-5.263-2.83-2.32-6.542-3.836-.615-.694-3.35-7.674-.119-.737.599-6.517.366-.853 2.366-2.654 4.935-3.874 1.852 2.36-4.826 3.788-1.75 1.993-.52 5.647 3.001 6.873 6.415 3.784 2.796 2.293 9.954 5.111 5.642 3.557 6.504 1.905 6.252 2.326 6.541.521 14.725-.985 8.502-3.658 1.185 2.756-8.738 3.76-.492.118z"/><path d="m117.567 223.891-2.257-3.972-4.04-4.695-2.911-5.125-4.035-4.688-2.981-5.25 2.609-1.481 2.907 5.119 4.035 4.688 2.911 5.125 4.04 4.695 2.33 4.102z"/><path d="m107.207 237.031-2.546-.799-4.422-1.836-.827-.852-.859-2.259-.091-.383-.687-6.812.235-.969 1.994-3.062.966-3.524.19-.422 2.06-3.161 3.108-6.915 2.736 1.23-3.267 7.225-1.995 3.062-.966 3.524-.19.422-1.834 2.815.615 6.088.559 1.471 3.761 1.562 1.766.548 1.56-.799 3.297-2.746 8.252-12.431 7.415-13.337 8.368-12.605 7.41-13.332 8.401-12.654 2.499 1.659-8.367 12.605-7.412 13.332-8.368 12.605-7.413 13.337-8.407 12.664-.29.323-3.869 3.173-2.252 1.155z"/><path d="m163.601 181.87-8.283-10.386-9.273-9.703-8.283-10.385-9.277-9.708-8.234-10.323-3.054-2.518-.351-.417-1.94-3.422-2.643-2.914-.288-.465-1.423-3.667-2.312-3.48-4.083-8.945-5.028-7.702-6.336-6.824-3.318-3.806-4.325-3.147-3.346-3.839-7.413-6.739-3.208-1.637-3.267.186-2.788 2.52-1.233 1.198-.337 3.499 1.116 1.623 2.741 5.449 3.885 5.068 2.743 5.452 3.819 4.95 3.309 5.253-2.484 1.679-15.222-21.014-14.276-21.755-15.185-20.96-14.279-21.759L5.569 3.691l-.864.711-.542.119-.222.511-.525.553 13.433 18.373 13.475 20.466 14.378 19.662 13.478 20.47 14.379 19.664-2.422 1.771-14.421-19.725-13.478-20.47L27.86 46.134 14.385 25.668 0 5.995l.541-2.228.868-.433.31-.712 1.053-.866.54-.119.22-.505.836-.803L5.221 0l1.754.52 15.219 21.009 14.279 21.759 15.185 20.961 9.008 13.727.296-3.065.448-.932 1.667-1.619 3.22-2.911.921-.385 4.2-.239.767.161 3.748 1.913.328.226 7.748 7.057 3.288 3.772 4.324 3.148 3.402 3.903 6.548 7.083 5.269 8.1 4.078 8.937 2.37 3.596 1.384 3.563 2.761 3.099 1.886 3.326 3.179 2.663 8.291 10.393 9.276 9.707 8.284 10.385 9.273 9.704 8.325 10.438zm-53.983-21.538-2.956-5.81-4.094-5.413-2.953-5.806-4.061-5.354-3.9-6.986 2.619-1.462 3.848 6.893 4.106 5.428 2.954 5.805 4.094 5.414 3.017 5.93z"/><path d="m163.481 220.253-.954-.157-6.62-3.549-.547-.501-2.333-3.566-2.211-3.719-.204-.903.777-8.483.126-.48 5.121-11.359.212-.34 10.076-12.155 3.605-3.503 2.807-4.377 6.636-8.121 3.723-3.617 2.09 2.153-3.661 3.555-6.408 7.859-2.971 4.577-3.672 3.568-9.786 11.818-4.934 10.946-.71 7.748 1.928 3.246 2.09 3.19 5.834 3.127 5.576-.923 5.042-3.23 6.072-6.058 6.569-5.325 5.606-6.504 6.03-5.886 4.673-7.204 6.194-7.604 5.334-8.446 6.192-7.602 5.337-8.449 6.076-7.461 1.233-3.798-.844-3.63-3.597-2.76-2.055-1.081-4.771 1.09-1.521 2.074-9.818 11.369-8.96 12.212-9.818 11.369-8.964 12.217-9.863 11.423-2.271-1.961 9.824-11.378 8.964-12.216 9.818-11.37 8.96-12.211 9.817-11.369 1.741-2.381.877-.577 5.858-1.34 1.032.135 2.875 1.537 4.125 3.166.548.85 1.06 4.558-.034.803-1.449 4.462-.263.484-6.197 7.608-5.336 8.449-6.192 7.602-5.334 8.446-6.2 7.611-4.835 7.402-6.104 5.958-5.754 6.649-6.613 5.361-6.267 6.215-5.439 3.483-.564.217z"/><path d="m185.86 173.899-.934-10.545-2.029-9.319-.826-9.308-2.029-9.323-.817-9.216-.646-1.777.04-1.125.731-1.634.05-1.789.45-1.029 1.277-1.251.699-1.646.499-.628 2.82-2.05.667-.271 3.453-.499 3.402-.578.954.154 3.081 1.636 3.086 1.541.685.696 1.458 3.057 2.778 4.333 1.533 4.439 2.733 4.265 1.536 4.446 2.574 3.937-2.512 1.642-2.837-4.424-1.535-4.446-2.735-4.266-1.533-4.439-2.667-4.105-1.279-2.682-2.659-1.328-2.663-1.413-2.935.498-3.121.452-2.184 1.587-.653 1.539-.331.486-1.059 1.037-.042 1.482-.13.569-.604 1.353.505 1.392.085.379.826 9.315 2.029 9.324.826 9.308 2.029 9.32.943 10.64z"/><path d="m199.331 131.582-.76-.095-3.462-1.389-.754-.666-1.511-2.73-2.242-1.004-3.503-.873-5.057-1.436-.78-.531-.741-.966 2.382-1.824.438.571 4.53 1.288 3.836.978 2.82 1.263.699.644 1.496 2.701 2.599 1.043 3.521-.478.9-.559 1.585 2.546-1.172.73-.591.213zm85.59 98.665-10.561-15.138-12.976-15.275-12.076-16.207-12.823-15.381-11.222-15.133 2.41-1.786 11.169 15.065 12.821 15.379 12.067 16.196 13.049 15.367 10.602 15.196zm-78.225-111.165-1.856-.358-1.885.132-.257-.004-3.535-.362.306-2.984 3.405.348 1.953-.136.389.023 1.346.259 1.05-.882.331-.212 1.231-.574.747-3.18.269-1.402-1.581-2.479-1.445-.357-.522-.243-1.773-1.289-3.934-1.545-2.172-.26-.705-.277-1.569-1.142-3.094-.186-1.139.957-.331.212-1.231.574-.748 3.18-.246 1.286.882 1.05.266.463 1.27 3.568-2.826 1.006-1.18-3.313-1.168-1.39-.325-1.249.394-2.048.927-3.948.826-1.016 1.711-.798 1.445-1.215 1.056-.35 4.129.249.793.284 1.608 1.171 2.344.33 4.626 1.868 1.691 1.229 1.742.431.904.649 2.226 3.488.208 1.091-.395 2.048-.926 3.948-.826 1.016-1.711.798-1.446 1.216zm9.544 152.631-1.425-9.496-2.626-9.428-1.424-9.49-2.625-9.425-1.437-9.581 2.966-.445 1.424 9.489 2.625 9.425 1.424 9.489 2.626 9.429 1.438 9.588z"/><path d="m293.739 128.722-.588-1.514-7.509-13.832-10.942-10.158-11.524-10.53-13.596-7.572-14.163-6.446-15.269-3.008-15.45-1.779-21.061 2.814-20.339 6.087-17.983 11.283-15.978 13.977-11.736 17.833-2.506-1.649 11.848-18.003.265-.304 16.412-14.332 18.256-11.455.367-.166 20.879-6.229 21.733-2.858 15.814 1.826 15.831 3.16 14.487 6.599 14.083 7.89 11.662 10.656 11.132 10.333.297.384 7.753 14.305.622 1.604z"/><path d="m204.521 274.09-9.781-1.066-10.089-.873-9.393-2.926-9.649-2.771-9.051-4.226-10.651-5.818-11.221-4.767-10.559-5.772-11.216-4.765-10.624-5.808 1.439-2.632 10.559 5.771 11.216 4.765 10.559 5.773 11.22 4.766 10.632 5.812 8.857 4.132 9.347 2.665 9.27 2.888 9.64.8 9.609 1.046 30.508-5.331 27.873-13.374 21.597-22.118 14.718-27.174 4.314-30.719.144-9.27-1.915-9.166-1.655-9.261-3.64-8.626-3.462-8.926 2.797-1.085 3.446 8.885 3.783 9.06 1.676 9.382 1.973 9.617-.163 9.715-4.364 31.079-.167.506-14.947 27.596-.245.333-21.928 22.458-.424.305-28.299 13.578-.391.125-30.922 5.403z"/><path d="m107.84 208.059-8.573 15.88.937 6.548 4.494 4.278 5.642.051 3.099-1.892 3.04-4.476 1.155-7.413-4.745-5.82zm-12.574-75.683 4.612 10.309 4.027 5.743-1.258 5.761-1.684 4.853.325 3.965-.896 6.779L97.698 166l-8.798-4.277-2.243-1.1 5.263-2.008 1.378-9.144-7.093-5.772 2.719-.625 3.356-3.438 1.5-4.319z"/></g></svg></g><g transform="translate(825.0 84.0) rotate(0.0 7.0 -7.0) scale(1.0302450511443078 -1.0153020523605774)"><svg width="13.589" height="13.789" viewBox="0 0 13.589 13.789"><path d="M6.795 12.289c-.119 0-.237-.014-.354-.042l-1.173-.285a1.511 1.511 0 0 1-.216-.07l-1.116-.459a1.492 1.492 0 0 1-.573-.417l-.781-.92a1.383 1.383 0 0 1-.132-.182l-.636-1.027a1.51 1.51 0 0 1-.221-.677l-.09-1.204a1.66 1.66 0 0 1 0-.223l.09-1.204a1.51 1.51 0 0 1 .221-.677l.635-1.027c.039-.064.083-.125.132-.182l.781-.92a1.5 1.5 0 0 1 .573-.417l1.116-.459c.07-.029.143-.052.216-.07l1.173-.285a1.518 1.518 0 0 1 .709 0l1.173.285c.073.018.146.041.216.07l1.116.459c.222.091.419.234.574.417l.78.92c.048.057.092.117.131.181l.635 1.026c.127.205.202.437.221.677l.09 1.204a1.66 1.66 0 0 1 0 .223l-.09 1.204a1.51 1.51 0 0 1-.221.677l-.635 1.027a1.462 1.462 0 0 1-.131.181l-.78.92a1.503 1.503 0 0 1-.574.417l-1.116.459c-.07.029-.143.052-.216.07l-1.173.285a1.42 1.42 0 0 1-.354.045z" fill="#F6A4BB"/><path d="m6.794 3 1.173.285 1.116.458.781.92.635 1.027.09 1.204-.09 1.204-.635 1.027-.781.92-1.116.459-1.173.285-1.173-.285-1.116-.459-.781-.92-.634-1.027L3 6.894l.09-1.204.635-1.026.781-.92 1.116-.459zm0-3c-.237 0-.475.028-.707.084L4.914.369A3.011 3.011 0 0 0 4.48.51L3.364.969a3.006 3.006 0 0 0-1.147.834l-.781.92a3.223 3.223 0 0 0-.263.363L.538 4.112a3.01 3.01 0 0 0-.44 1.355l-.09 1.204a3.018 3.018 0 0 0 0 .446l.09 1.204c.036.48.187.945.44 1.355l.635 1.026c.079.127.167.248.264.362l.781.92c.31.366.704.652 1.147.834l1.116.459c.141.058.286.105.433.141l1.173.285a3.02 3.02 0 0 0 1.416 0l1.173-.285c.148-.036.293-.083.433-.141l1.116-.459a2.988 2.988 0 0 0 1.147-.834l.781-.92c.097-.114.185-.235.264-.362l.635-1.026a3.01 3.01 0 0 0 .44-1.355l.09-1.204a3.018 3.018 0 0 0 0-.446l-.09-1.204a3.002 3.002 0 0 0-.44-1.354l-.635-1.027a3.029 3.029 0 0 0-.264-.363l-.781-.92a2.991 2.991 0 0 0-1.148-.834L9.107.51a3.114 3.114 0 0 0-.432-.141L7.502.084A3.026 3.026 0 0 0 6.794 0z" fill="#231f20"/></svg></g><g transform="translate(150.0 163.0) rotate(17.849078410367778 33.0 39.5) scale(1.0031004924311506 1.0041181554730794)"><svg width="65.796" height="78.676" viewBox="0 0 65.796 78.676"><path d="M6.083 77.173c-.822.066-1.246-.785-1.902-1.106-.609-.558-1.38-1.027-1.92-1.668-.505-.557-.53-1.345-.599-2.033-.065-.809-.411-1.774.17-2.476 9.784-11.923 22.763-28.533 32.544-40.454 5.31-6.781 16.171-20.342 21.635-27.003.736-.806 1.995-.756 2.994-.795 1.198-.544 2.026.666 2.913 1.253.606.643 1.613 1.058 1.913 1.969.315.815.235 1.698.375 2.532 1.267.563-11.07 14.27-11.19 14.842-9.499 12.138-22.874 28.426-32.369 40.563L9.741 76.245a1.546 1.546 0 0 1-.746.504c-.942.315-1.949.241-2.912.424z" fill="#c3acf1"/><path d="M5.987 78.676c-1.043 0-1.73-.62-2.151-1-.102-.092-.254-.23-.315-.263l-.353-.241c-.203-.186-.428-.359-.653-.536-.453-.354-.966-.755-1.401-1.271-.757-.833-.855-1.891-.927-2.663l-.018-.188c-.015-.178-.039-.333-.063-.49-.123-.809-.309-2.032.571-3.093 4.891-5.959 10.685-13.224 16.289-20.249 5.586-7.002 11.362-14.243 16.25-20.201C38.564 21.651 49.493 8.01 54.85 1.479 55.993.224 57.594.177 58.654.146l.047-.001c1.616-.541 2.853.509 3.537 1.089.17.145.336.29.507.403l.263.221c.122.129.321.281.531.441.579.441 1.372 1.045 1.716 2.089.258.66.308 1.363.352 1.983.012.158.022.316.038.473.045.1.081.206.106.316.287 1.246-.355 2.563-8.678 12.445-1.119 1.329-2.273 2.699-2.646 3.197l-.017.078-.215.274c-4.748 6.068-10.555 13.285-16.171 20.265-5.628 6.995-11.448 14.228-16.196 20.298L10.906 77.19a3.04 3.04 0 0 1-1.467.992c-.707.237-1.43.296-2.068.348-.337.028-.676.053-1.007.116l-.16.021a2.303 2.303 0 0 1-.217.009zm-.935-3.842c.326.193.582.423.794.615.068.062.161.146.232.203.362-.055.709-.084 1.048-.111.514-.042.999-.082 1.393-.214l10.963-13.475c4.745-6.065 10.571-13.307 16.206-20.31 5.564-6.915 11.316-14.064 16.03-20.085.248-.426.924-1.243 3.062-3.781 2.341-2.781 7.078-8.405 7.937-10.093a11.678 11.678 0 0 1-.102-.995c-.034-.469-.062-.875-.184-1.187-.079-.232-.429-.499-.71-.713-.244-.186-.517-.394-.773-.645a9.618 9.618 0 0 1-.651-.52c-.217-.184-.579-.491-.723-.527l-.268.122-.564.028c-.587.018-1.391.041-1.625.297-5.294 6.46-16.202 20.074-21.561 26.917C30.66 36.328 24.89 43.561 19.31 50.555 13.7 57.588 7.898 64.86 2.99 70.841c-.018.086.044.492.081.734.035.229.068.455.085.67l.018.181c.032.351.077.832.197.965.271.319.621.593.991.883.236.185.47.369.69.56z" fill="#231f20"/></svg></g><g transform="translate(934.0 202.0) rotate(0.0 40.5 40.5) scale(1.2995347344777797 1.2985763755290496)"><svg width="62.33" height="62.376" viewBox="0 0 62.33 62.376"><path d="m31.119 1.524-.004.034.1-.023-.1.023.1-.023-.1.023 2.993 8.308 4.604 7.536 6.316 6.171 7.427 4.777 8.375 2.8-.023.1.023-.1-.023.1.023-.1-.034.096.034.004-.023-.1.023.1-.023-.1.023.1-8.376 2.8-7.426 4.777-6.317 6.172-4.603 7.535-2.993 8.308.1.023-.1-.023.1.023-.1-.023.096.034.004-.034-.1.023.1-.023-.1.023.1-.023-2.993-8.308-4.604-7.536-6.316-6.171-7.427-4.777-8.375-2.8.023-.1-.023.1.023-.1-.023.1.034-.096-.034-.004.023.1-.023-.1.023.1-.023-.1 8.376-2.8 7.427-4.777 6.316-6.172 4.603-7.535 2.993-8.308-.1-.023.1.023-.1-.023.073-.035z" fill="#fff"/><path d="M31.185 62.371c-.053 0-.105-.003-.158-.009a1.498 1.498 0 0 1-1.412-1.498v-.04l-2.752-7.639-4.426-7.246-6.073-5.934-7.142-4.593-8.181-2.735c-.224-.072-.421-.193-.582-.348s0 0-.001 0l-.028-.028-.001-.001A1.486 1.486 0 0 1 0 31.251l.001-.051L0 31.149a1.504 1.504 0 0 1 .247-.824c.022-.034.001-.001.001-.001a1.494 1.494 0 0 1 .793-.603l8.181-2.735 7.141-4.593 6.074-5.934 4.426-7.246 2.752-7.639v-.04a1.46 1.46 0 0 1 .066-.439 1.49 1.49 0 0 1 .45-.693l.019-.016c.141-.124.306-.222.486-.283l.069-.023a1.5 1.5 0 0 1 1.667.498 1.481 1.481 0 0 1 .345.958v.04l2.752 7.639 4.426 7.246 6.074 5.934 7.141 4.593 8.183 2.735c.222.071.417.19.576.343l.052.052.001.001.001.001a1.472 1.472 0 0 1 .196.26l.001.002a1.5 1.5 0 0 1 .21.764l-.001.051.001.051c0 .25-.063.492-.177.705s0 0-.001.001a1.583 1.583 0 0 1-.266.358 1.485 1.485 0 0 1-.598.363l-8.182 2.735-7.141 4.593-6.073 5.934-4.426 7.246-2.752 7.639v.04a1.5 1.5 0 0 1-1.232 1.476 1.282 1.282 0 0 1-.297.033zM6.081 31.2l4.27 1.428c.118.039.231.093.336.161l7.427 4.777c.085.055.165.118.237.189l6.316 6.171c.089.087.167.185.232.291l4.604 7.536c.053.086.097.178.131.273l1.532 4.252 1.532-4.251c.034-.096.078-.187.131-.273l4.604-7.536c.065-.106.143-.204.232-.291l6.316-6.171a1.49 1.49 0 0 1 .237-.189l7.427-4.777c.105-.067.218-.122.336-.161l4.271-1.427-4.27-1.427a1.55 1.55 0 0 1-.336-.161l-7.427-4.777a1.49 1.49 0 0 1-.237-.189l-6.316-6.171a1.514 1.514 0 0 1-.232-.291L32.83 10.65a1.458 1.458 0 0 1-.131-.273l-1.532-4.251-1.532 4.251a1.428 1.428 0 0 1-.131.273L24.9 18.186a1.514 1.514 0 0 1-.232.291l-6.316 6.171a1.49 1.49 0 0 1-.237.189l-7.427 4.777a1.505 1.505 0 0 1-.336.161z" fill="#231f20"/></svg></g><g transform="translate(331.0 131.0) rotate(0.0 6.0 -6.0) scale(0.8830671866951211 -0.870258902023352)"><svg width="13.589" height="13.789" viewBox="0 0 13.589 13.789"><path d="M6.795 12.289c-.119 0-.237-.014-.354-.042l-1.173-.285a1.511 1.511 0 0 1-.216-.07l-1.116-.459a1.492 1.492 0 0 1-.573-.417l-.781-.92a1.383 1.383 0 0 1-.132-.182l-.636-1.027a1.51 1.51 0 0 1-.221-.677l-.09-1.204a1.66 1.66 0 0 1 0-.223l.09-1.204a1.51 1.51 0 0 1 .221-.677l.635-1.027c.039-.064.083-.125.132-.182l.781-.92a1.5 1.5 0 0 1 .573-.417l1.116-.459c.07-.029.143-.052.216-.07l1.173-.285a1.518 1.518 0 0 1 .709 0l1.173.285c.073.018.146.041.216.07l1.116.459c.222.091.419.234.574.417l.78.92c.048.057.092.117.131.181l.635 1.026c.127.205.202.437.221.677l.09 1.204a1.66 1.66 0 0 1 0 .223l-.09 1.204a1.51 1.51 0 0 1-.221.677l-.635 1.027a1.462 1.462 0 0 1-.131.181l-.78.92a1.503 1.503 0 0 1-.574.417l-1.116.459c-.07.029-.143.052-.216.07l-1.173.285a1.42 1.42 0 0 1-.354.045z" fill="#C3ACF1"/><path d="m6.794 3 1.173.285 1.116.458.781.92.635 1.027.09 1.204-.09 1.204-.635 1.027-.781.92-1.116.459-1.173.285-1.173-.285-1.116-.459-.781-.92-.634-1.027L3 6.894l.09-1.204.635-1.026.781-.92 1.116-.459zm0-3c-.237 0-.475.028-.707.084L4.914.369A3.011 3.011 0 0 0 4.48.51L3.364.969a3.006 3.006 0 0 0-1.147.834l-.781.92a3.223 3.223 0 0 0-.263.363L.538 4.112a3.01 3.01 0 0 0-.44 1.355l-.09 1.204a3.018 3.018 0 0 0 0 .446l.09 1.204c.036.48.187.945.44 1.355l.635 1.026c.079.127.167.248.264.362l.781.92c.31.366.704.652 1.147.834l1.116.459c.141.058.286.105.433.141l1.173.285a3.02 3.02 0 0 0 1.416 0l1.173-.285c.148-.036.293-.083.433-.141l1.116-.459a2.988 2.988 0 0 0 1.147-.834l.781-.92c.097-.114.185-.235.264-.362l.635-1.026a3.01 3.01 0 0 0 .44-1.355l.09-1.204a3.018 3.018 0 0 0 0-.446l-.09-1.204a3.002 3.002 0 0 0-.44-1.354l-.635-1.027a3.029 3.029 0 0 0-.264-.363l-.781-.92a2.991 2.991 0 0 0-1.148-.834L9.107.51a3.114 3.114 0 0 0-.432-.141L7.502.084A3.026 3.026 0 0 0 6.794 0z" fill="#231f20"/></svg></g><g transform="translate(67.0 540.0) rotate(0.0 78.5 76.0) scale(1.0314832334699884 1.0317465704608242)"><svg width="152.208" height="147.323" viewBox="0 0 152.208 147.323"><g><g><g><g><path style="fill:#f6a4bb" d="M96.793 125.392c-5.539-9.478-13.927-21.94-19.529-31.366h-.318c-7.881 12.73-17.372 27.905-25.466 40.495l-3.571-1.731c4.865-14.125 10.901-30.948 16.008-44.992l-.194-.244c-14.916 1.819-32.759 3.909-47.698 5.477l-.878-3.872c14.139-5.022 31.131-10.822 45.356-15.606l.068-.302C49.837 62.805 37.062 50.258 26.51 39.638l2.464-3.112c12.785 7.85 27.963 17.432 40.616 25.5l.283-.137c1.538-14.866 3.456-32.629 5.246-47.463h3.969c1.791 14.832 3.707 32.6 5.245 47.463l.284.137c12.655-8.07 27.829-17.646 40.614-25.498l2.464 3.112c-10.549 10.62-23.329 23.167-34.059 33.611l.068.302c14.229 4.783 31.214 10.584 45.354 15.605l-.877 3.872c-14.937-1.565-32.784-3.658-47.696-5.477l-.195.245c5.111 14.046 11.142 30.867 16.01 44.994l-3.571 1.732-5.936-9.132z"/><g><path style="fill:#231f20" d="M108.482 147.323c-2.666-4.556-5.61-9.112-8.458-13.517-3.041-4.706-6.185-9.571-9.022-14.483a853.682 853.682 0 0 0-5.776-9.073c-3.048-4.745-6.187-9.63-9.123-14.543-2.937 4.914-6.076 9.8-9.125 14.545-1.916 2.982-3.897 6.065-5.789 9.096-2.808 4.864-5.95 9.726-8.989 14.428-2.853 4.415-5.804 8.98-8.474 13.547l-2.691-1.304c1.921-4.902 3.672-10.021 5.364-14.971 1.812-5.302 3.687-10.784 5.789-16.053 1.191-3.316 2.387-6.784 3.544-10.137 1.834-5.318 3.723-10.793 5.757-16.127-5.699.785-11.502 1.394-17.139 1.986-3.542.372-7.204.756-10.768 1.178-5.582.854-11.374 1.447-16.976 2.02-5.254.538-10.687 1.093-15.945 1.869L0 92.867c5.06-1.564 10.183-3.398 15.137-5.171 5.306-1.899 10.792-3.862 16.251-5.515a865.914 865.914 0 0 0 10.19-3.569c5.334-1.893 10.825-3.842 16.297-5.588-4.161-3.926-8.252-8.042-12.225-12.04-2.504-2.519-5.093-5.124-7.649-7.63-4.158-3.805-8.242-7.936-12.192-11.932-3.696-3.739-7.517-7.604-11.399-11.198l1.856-2.345c4.393 2.957 9.036 5.792 13.526 8.535 4.797 2.93 9.757 5.959 14.46 9.163 2.992 1.892 6.132 3.821 9.168 5.687 4.821 2.962 9.785 6.012 14.578 9.175.499-5.684 1.19-11.429 1.862-17.011.423-3.516.861-7.151 1.241-10.7.405-5.595 1.111-11.333 1.794-16.883.64-5.204 1.302-10.585 1.712-15.845h2.991c.411 5.248 1.072 10.616 1.71 15.807.684 5.554 1.391 11.298 1.8 16.949.376 3.5.814 7.14 1.237 10.659.672 5.585 1.364 11.336 1.863 17.024 4.794-3.164 9.759-6.214 14.581-9.176 3.029-1.861 6.161-3.785 9.189-5.7 4.655-3.174 9.612-6.201 14.405-9.128 4.501-2.749 9.155-5.591 13.557-8.557l1.857 2.345c-3.873 3.587-7.687 7.445-11.374 11.175-3.951 3.997-8.036 8.129-12.232 11.971-2.526 2.477-5.122 5.089-7.632 7.614-3.974 3.999-8.065 8.115-12.227 12.041 5.469 1.746 10.957 3.694 16.288 5.586a851.229 851.229 0 0 0 10.226 3.58c5.406 1.635 10.888 3.597 16.188 5.494 4.966 1.778 10.101 3.616 15.173 5.182l-.661 2.917c-5.248-.771-10.668-1.326-15.911-1.863-5.605-.574-11.401-1.167-17.039-2.028a849.172 849.172 0 0 0-10.749-1.175c-5.634-.592-11.436-1.201-17.131-1.985 2.034 5.332 3.921 10.805 5.754 16.121a828.088 828.088 0 0 0 3.557 10.17c2.082 5.217 3.956 10.696 5.767 15.994 1.696 4.961 3.45 10.09 5.377 15.002l-2.689 1.304zM77.399 92.002c3.264 5.594 6.867 11.203 10.352 16.626a835.341 835.341 0 0 1 5.823 9.15c2.826 4.891 5.95 9.725 8.971 14.399l1.016 1.573-.604-1.764c-1.799-5.264-3.661-10.706-5.733-15.902-1.233-3.426-2.43-6.898-3.588-10.255-2.099-6.086-4.27-12.379-6.638-18.397l1.616-2.033c6.44.957 13.104 1.657 19.549 2.333 3.562.374 7.244.761 10.838 1.186 5.615.857 11.373 1.447 16.942 2.017l1.788.183-1.706-.61c-5.266-1.885-10.711-3.834-16.095-5.463-3.465-1.179-6.945-2.414-10.311-3.608-6.103-2.166-12.413-4.406-18.631-6.318l-.577-2.536c4.765-4.4 9.471-9.136 14.022-13.715 2.517-2.532 5.12-5.151 7.697-7.677 4.178-3.826 8.237-7.932 12.162-11.902l1.257-1.271-1.601.978c-4.762 2.908-9.686 5.915-14.322 9.075-3.087 1.954-6.228 3.883-9.265 5.749-5.512 3.386-11.211 6.888-16.598 10.524l-2.335-1.128c-.496-6.446-1.291-13.053-2.06-19.442a836.407 836.407 0 0 1-1.247-10.75c-.409-5.627-1.111-11.333-1.79-16.85l-.228-1.851-.232 1.888c-.679 5.513-1.38 11.214-1.784 16.785-.387 3.62-.826 7.265-1.25 10.791-.769 6.384-1.563 12.986-2.059 19.428l-2.335 1.128c-5.385-3.636-11.083-7.137-16.594-10.523-3.045-1.871-6.193-3.805-9.245-5.735-4.684-3.19-9.611-6.2-14.377-9.11l-1.57-.959 1.283 1.297c3.924 3.97 7.981 8.074 12.122 11.863 2.607 2.555 5.203 5.167 7.714 7.693 4.551 4.579 9.256 9.313 14.021 13.714l-.577 2.536c-6.221 1.913-12.535 4.154-18.64 6.321-3.37 1.196-6.854 2.433-10.275 3.597-5.437 1.647-10.887 3.598-16.158 5.484l-1.669.597 1.822-.187c5.565-.569 11.319-1.158 16.88-2.009 3.635-.43 7.307-.815 10.857-1.188 6.447-.677 13.114-1.377 19.557-2.334l1.616 2.033c-2.37 6.02-4.541 12.315-6.641 18.404-1.16 3.363-2.359 6.84-3.575 10.223-2.092 5.247-3.954 10.693-5.755 15.96l-.592 1.731 1.035-1.602c3.019-4.671 6.141-9.501 8.938-14.345 1.928-3.091 3.915-6.183 5.836-9.173 3.485-5.424 7.089-11.033 10.353-16.628h2.59z"/></g></g></g></g></g></svg></g><g transform="translate(180.0 214.0) rotate(0.0 401.5 277.0) scale(1.0533717077214901 1.051898068418944)"><svg width="762.314" height="526.667" viewBox="0 0 762.314 526.667"><pattern id="c" height="12" overflow="visible" patternUnits="userSpaceOnUse" viewBox="1.159 -13.159 12 12" width="12" x="2102.03" y="4850.566"><path d="M1.159-13.159h12v12h-12z" fill="none"/><circle cx="13.159" cy="-4.159" fill="#fff" r="1.159"/><circle cx="7.159" cy="-1.159" fill="#fff" r="1.159"/><circle cx="1.159" cy="-4.159" fill="#fff" r="1.159"/><circle cx="13.159" cy="-10.159" fill="#fff" r="1.159"/><circle cx="7.159" cy="-7.159" fill="#fff" r="1.159"/><circle cx="1.159" cy="-10.159" fill="#fff" r="1.159"/><circle cx="7.159" cy="-13.159" fill="#fff" r="1.159"/></pattern><pattern xmlns:xlink="http://www.w3.org/1999/xlink" id="d" patternTransform="translate(-243.9215 -53.755)" xlink:href="#c"/><path d="m463.94 202.58 1.616-1.501.147-.31.125-1.969-.571-4.561-.074-.2-1.33-2.015-1.728-1.977-.297-.152-2.517-.246-3.773-.596 2.811-3.798 1.856-1.835.137-.29.245-2.592.558-2.514-.053-.336-2.825-4.786-2.115-2.313-.278-.143-6.003-.769-.316.071-2.627 1.687-3.32 1.064-1.776-3.53 4.225-3.03.11-.109 2.985-4.099.091-.24.448-4.883-.062-.283-1.151-1.973-3.916-4.788-.302-.164-2.901-.322-3.061-.389-.261.039-3.67 1.679-2.118-3.35 3.415-2.867 2.177-1.45.185-.24 1.704-5.016.023-.219-.518-4.016-.115-.254-2.686-3.053-.196-.134-5.277-1.96-.306-.008-5.432 1.693-.136.067-3.786 2.646-4.255 1.576-4.026 2.755-13.959 6.658 6.998-14.863.714-2.73-.072-.368-1.537-2.099-1.908-2.041-.347-.14-2.584.12-2.92.548-.221.109-4.311 3.755-5.042 2.84-4.615 3.96-5.049 2.818-4.615 3.885-10.532 7.252-9.924 8.287-10.528 7.249-9.92 8.285-11.926 8.209-1.878-6.418-6.194-16.919-5.114-17.483-6.226-17.017-4.481-10.685 38.151-.63 36.49.6 36.296-.6 34.767-.442 38.63.48-.444 19.18.6 18.292-.6 18.475.6 18.279-.551 16.907-9.019 3.583-12.877 5.423z" fill="#c3acf1"/><path d="m480.315 183.423-.601-18.279.601-18.476-.6-18.287.418-17.869-.322-.334-37.277-.463-34.753.441-36.312.6-36.489-.6-36.307.6-.023-1.429-1.852.387-4.458-10.638-.105-.158-7.373-7.367 40.158-.407 38.479-.599 38.645.6 38.431-.6 38.568.599 5.221.199 4.318 2.891 4.082 3.216 1.801 4.875 1.391 4.942-.601 18.257.601 18.053-.601 18.253.601 18.057-.574 17.365-9.702 1.142-.125.032-5.8 2.305zm-102.472-79.2 1.171-.381.237-.172.725-.997.091-.279v-1.232l-.091-.279-.724-.996-.238-.172-1.133-.368-.323.013-1.983.825-.251.377v1.833l.091.279.726.997.237.172 1.171.381h.294z" fill="#bbd95f"/><path d="m375.612 104.645-1.289-1.772V99.62l3.351-1.393 2.104.682 1.288 1.773v2.191l-1.287 1.772-2.084.677z" fill="#a5b1f0"/><path d="m23.266 277.463-7.149-3.714-7.888-6.493c-4.651-8.481-7.032-14.665-6.73-24.523 3.903-23.641 12.757-53.708 18.335-76.951l54.414 13.062c-.897 6.586-3.869 19.539-5.854 25.891l-2.388 13.343c-1.558 5.935-5.154 20.65-4.795 26.714l3.087 9.399-2.775 6.986c-3.227 3.652-10.197 10.429-13.975 13.492l-12.295 3.239z" fill="#f5b7a6"/><path d="M175.994 283.536c-31.989-.559-73.628.497-105.697-.29.35-11.884.208-35.706-.298-47.571.869-14.462.07-38.499.14-52.92L18.004 170.24c3.659-11.598 10.185-35.14 13.164-46.943 2.677-4.46 5.822-11.787 7.885-16.514 1.367-1.752 15.579-17.25 17.584-19.25l17.851-12.786c9.916-4.776 30.344-12.728 40.895-15.84 8.824-.923 27.825-2.696 36.556-2.479 7.328.69 22.066.879 29.408.425 7.324.691 22.11.88 29.453.426l23.318 3.972 22.459 7.488 19.824 12.946 16.748 16.737c3.885 9.382 12.263 29.146 15.34 38.756 1.68 7.151 6.882 22.687 9.502 29.465L250.403 182.3c.961 5.915 2.254 17.992 1.974 23.9.889 7.489 1.526 22.521 1.274 30.054.878 7.425 1.527 22.377 1.273 29.845.455 1.451 2.304 7.238 2.217 8.726l1.708 4.295.528 4.405c-23.395-.492-59.679.23-83.383.011z" fill="#ee4878"/><path d="m302.243 294.284-18.973-9.396-14.932-15.005c-.203-.664-7.543-20.527-6.99-20.476-2.77-8.946-5.1-23.972-6.258-33.335-2.073-8.487-4.945-25.83-5.8-34.539l68.354-15.835c1.058 2.684 2.942 8.213 3.648 10.991 5.607-3.489 15.709-11.203 20.612-15.63l10.528-7.248c4.774-4.33 14.999-12.111 20.452-15.535 2.116-2.113 6.895-5.482 9.628-6.701 2.123-2.142 6.896-5.558 9.652-6.796 4.535-4.107 4.939-4.735 11.365-4.813 1.25 1.19 3.44 3.824 4.382 5.269-.09 2.387-4.77 11.602-5.8 13.865-.761.698-3.176 2.852-3.588 3.793 4.201-3.119 13.912-6.445 17.887-9.902l4.251-1.574 4.052-2.772 6.124-1.908 6.101 2.265 3.231 3.672.619 4.807-1.977 5.815c-3.764 2.508-8.914 7.092-12.883 9.393 2.787-.752 9.398-3.776 12.068-5.041l6.968.832c1.314 1.567 4.998 5.903 5.764 7.75l-.528 5.762-3.366 4.621c-2.242 1.62-9.003 6.637-11.471 7.652 1.768-.226 5.278-1.6 6.888-2.382.116-.053 4.205-1.315 4.3-1.394l2.912-1.871 7.068.906c1.826 1.435 4.605 6.115 5.713 8.153-.419 1.489-.886 4.536-.962 6.083-1.158.994-3.121 3.285-3.956 4.562 1.216.237 3.918.53 5.171.634 1.08 1.095 2.952 3.484 3.708 4.819.287 1.765.816 5.894.458 7.64-1.069.843-2.788 2.787-3.539 3.914-3.622 2.322-12.4 7.9-16.215 9.486-2.966 2.996-14.953 9.35-18.798 11.425-8.186 5.02-24.532 16.456-32.295 22.246-16.661 10.427-37.141 27.81-53.332 38.922-20.832 8.249-17.772 7.444-40.241 6.876z" fill="#f5b7a6"/><path d="m148.014 34.965-.829-5.627 8.339-4.465 8.894-6.406-1.812 5.903-2.988 6.801-.039.141-.372 3.198-2.063 2.462-1.777 2.958-2.878 1.407-4.567 3.209z" fill="#b25539"/><path d="m134.745 51.992 1.92-2.9 1.769-3.161 3.174-1.495 3.084-1.741 4.188-.868 1.187 8.071-.071 7.581-12.691.334-3.093.296z" fill="#b25539"/><path d="m146.89 27.323.071-7.651.563-5.75.608-3.116 4.319-4.256 4.123-3.005 5.085-.228 5.079.286 4.088 3.032 3.76 3.418 1.172 2.936-4.465 3.217-7.803 4.178-7.347 5.293-8.824 4.724z" fill="#aad037"/><path d="m173.784 10.743-.125-.18-5.667-5.154 6.575-2.464 3.111-.227.175-.046 2.833-1.354 4.648-.338 2.341 2.735-1.085 2.941-7.947 4.256-3.72 2.679z" fill="#aad037"/><path d="m181.268 57.854-14.647.387c-2.05-.082-15.936-1.016-17.624-.736.264-3.615-.147-10.743-.938-14.275 1.565-1.289 4.934-3.314 6.682-4.194.671-1.348 2.372-3.749 3.418-4.83.14-.031.421-3.094.455-3.234.786-1.786 3.477-7.666 3.835-9.499l2.511-3.009 5.717-3.062 4.696-3.383c1.43 4.38 5.673 12.884 8.027 16.878l.007-.005c.01.064.45.838.477.9l-.089.071c1.566 4.693 5.897 13.647 8.445 17.906l4.366 10.929z" fill="#f5b7a6"/><path d="m742.005 391.566-4.918-6.21-4.757-6.499-2.284-7.588-2.038-7.751-.412-7.472 4.41-3.709 2.777-3.245 4.005-1.354 3.781-1.49 4.15.718 8.665 3.358 2.957 4.511 2.551 4.729-.236 5.366-.678 5.276-6.017 12.341-5.106 13.298z" fill="#f6a4bb"/><path d="m635.367 483.623-15.773-3.394-15.36-4.525-14.564-3.135-4.179-3.652-8.736-8.027 6.145-8.861 9.394-15.637 10.507-15.148 9.391-15.635 11.3-16.284 17.679 14.792 6.612 4.047 7.189 2.826.225.031 7.426-.786 7.429-2.126.196-.111 5.548-5.254 11.564-9.725 10.818-10.665 11.531-9.697 10.821-10.669 8.024-6.746.438 7.972 2.018 7.79 2.203 7.318.075.15 4.596 6.278 4.746 5.993.124.112 6.509 4.065-6.242 12.8-4.95 12.89-5.955 12.215-1.306 4.578-2.223 3.876-4.381 13.133-4.258 10.13-3.195 10.696-3.735 8.889-7.161-2.182-4.078-1.892-.124-.039-4.462-.776-4.081-1.892-.151-.043-8.746-.991-8.949-.139-.158.023-8.509 2.73-8.261 3.157-.146.087-7.077 6.091z" fill="#fff"/><path d="m706.123 480.965-4.102-1.902-4.461-.776-.125-.038-4.121-1.912-9.107-1.033-9.171-.134-8.718 2.793-8.581 3.279-6.861 5.907-15.316-4.511-2.632-.567-3.516 1.974-12.813 13.66-4.491 5.972-2.602 6.882-2.954 6.9-.961 7.805 9.949-.196 30.894.601 5.116-1.331 4.959-1.529 3.697-3.842 2.412-2.7 8.798 4.832 8.066 1.678 8.289.058 7.355-3.824 6.494-5.147 3.382-7.57 4.293-10.215 3.195-10.699.921-2.177z" fill="#f6a4bb"/><path d="m554.01 525.068-30.628.6-11.43-.222-5.875-14.258-8.198-12.602-.114-.123-11.785-8.869-13.505-6.587-.169-.047-24.02-2.13v-36.219l.123-9.355 20.578-.487 19.917.598 19.793-.6 19.969.6 19.92-.455 1.795 8.955 2.691 8.111.096.168 5.516 6.278 6.405 5.656.17.097 8.103 2.644 15.294 4.503 15.771 3.395 15.366 4.525 13.663 2.94-3.472 2.714-12.563 13.393-4.387 5.818-.066.121-2.534 6.703-2.879 6.726-.037.134-.916 7.451-21.732.425z" fill="#fff"/><path d="m492.517 525.067-13.757-1.614-12.013-6.954-10.12-9.504-5.649-12.681-2.877-14.505 24.566 2.179 13.722 6.663 12.185 9.171 8.339 12.769 6.13 14.876z" fill="#f6a4bb"/><path d="m604.243 374.782-18.178-15.206-18.881-14.235-17.88-14.958-.597-34.688.601-35.082-3.138-17.681-4.835-17.306-9.679-15.143-13.685-11.634-17.675-3.18-14.931 1.756-13.998 5.562-19.417 8.177-5.698 2.86-5.112 3.91-13.592 7.473-14.708 9.577-17.597 12.68-18.115 12.259-17.007 13.532-18.062 13.023-.114.062-18.617 7.018-.181.032-19.255-.282-18.074.508-7.637-.454-6.557-1.507-8.601-3.289-4.303-6.006-40.583-1.025-.271 1.002-20.786.297-21.105-.3h-42.072l-20.979.3-21.711-.3H70.197l.401 14.544.003 28.117-.604 14.165.604 14.13 2.816 15.653 9.424 12.955 26.661 16.624 15.574 3.079.791.012 12.776-.089 13.455-.195 13.698-.59 13.392-4.402 5.471-4.532 4.764-5.619.433.002 7.688 9.272 11.779 3.721 12.06 2.337 12.207.047 12.283.752 12.071-.004 18.005-.6 21.226-.924 20.658-5.127 20.136-6.892 18.38-10.732 17.42-12.269 15.6-12.088 12.613-8.609 8.058 9.579 9.655 8.88 9.152 9.528 10.256 8.253 10.885 8.834-.213 19.422-1.458 26.493 20.614-.49 19.974.6 19.792-.6 6.562.197-.002.058 3.511.048 9.843.295 20.129-.458.568-35.384-.327-19.007 5.33 20.442 3.086 12.532 4.216 12.107 3.088 12.54 3.562 7.805 3.561 7.92 5.677 6.708 6.243-8.998 9.394-15.637 10.507-15.149 9.392-15.634 11.271-16.249zm-152.278-44.647-10.065 1.971-10.043 3.16-10.332 1.995-10.075 3.169-3.928.906 13.963-10.821 16.488-11.254 15.167-11.088z" fill="#7248ee"/><path d="m175.994 283.536-21.089-.301-20.962.301H91.247l-20.95-.29.301-23.914-.599-23.657.6-23.776-.6-23.628.14-5.516-52.135-12.515 6.798-22.87 6.366-24.073 2.217-4.027 3.799-8.044 1.669-4.193.2-.25 2.75-3.312 14.833-15.938 17.851-12.786 20.107-8.797 20.788-7.044 21.809-2.091 14.747-.388 14.761.814 14.648-.387 14.767.813 14.686-.388 23.318 3.972 22.459 7.487 19.824 12.946 16.748 16.738 9.09 21.686 6.251 17.069 5.115 17.483 4.386 11.982-67.588 15.658 1.787 13.697.188 10.203 1.237 15.009.037 15.045 1.237 14.995.037 14.85 1.953 6.504.264 2.222 1.708 4.294.528 4.406-15.676-.224-.184-.036h-.197l-.148.029-4.108-.059-20.977.301z" fill="url(#d)"/><path d="m378.124 104.091 1.359-.441.843-1.157v-1.431l-.843-1.158-1.359-.441-1.359.441-.842 1.158v1.431l.842 1.157z" fill="#a5b1f0"/><g fill="#231f20"><path d="m449.975 391.275-11.068-8.983-10.375-8.365-9.107-9.485-9.742-8.973-8.458-10.053 2.296-1.931 8.396 9.979 9.606 8.835 9.106 9.481 10.164 8.178 11.073 8.988zM688.07 523.834l-8.41-.087-7.946-1.653-.416-.154-9.553-5.247 1.445-2.629 9.355 5.138 7.58 1.577 7.593.052 6.745-3.506 5.96-4.724 3.164-7.082 4.251-10.116 3.197-10.701 4.261-10.139 3.196-10.697 4.27-10.159 4.42-13.249 2.201-3.838 1.288-4.513 5.994-12.295 4.951-12.891 5.99-12.286 4.949-12.886 5.911-12.124.626-4.866.206-4.732-2.248-4.167-2.558-3.903-7.882-3.054-3.401-.589-3.351 1.319-3.484 1.177-2.526 2.952-11.541 9.707-10.822 10.668-11.531 9.697-10.817 10.664-11.58 9.739-5.679 5.378-.614.351-7.829 2.24-7.837.829-.703-.095-7.577-2.979-6.887-4.215-18.157-15.191-18.846-14.206-18.216-15.238-18.842-14.203-18.209-15.233 1.925-2.301 18.149 15.185 18.843 14.203 18.215 15.239 18.847 14.206 18.129 15.166 6.497 3.958 6.879 2.682 7.343-.777 7.092-2.051 5.481-5.186 11.599-9.758 10.818-10.665 11.531-9.697 10.822-10.668 11.488-9.663 2.535-2.994.665-.452 3.81-1.286 3.673-1.447.805-.082 4.248.765 8.469 3.281.713.577 2.924 4.469 2.474 4.588.178.778-.238 5.333-.665 5.174-.14.467-5.99 12.285-4.949 12.887-5.99 12.286-4.951 12.891-5.963 12.231-1.349 4.651-2.218 3.869-4.31 12.996-4.261 10.138-3.195 10.697-4.262 10.139-3.197 10.701-4.296 10.222-3.326 7.448-.438.563-6.601 5.198-7.202 3.744z"/><path d="m652.54 488.723-1.957-2.273 6.865-5.909.443-.264 8.474-3.239 8.716-2.796.48-.071 9.212.143 9.002 1.02.462.129 3.988 1.85 4.332.754.374.117 4.071 1.888 6.596 2.01-.875 2.87-6.888-2.115-3.986-1.848-4.333-.754-.374-.117-3.947-1.831-8.686-.984-8.746-.129-8.405 2.694-8.152 3.117zm96.132-92.082-6.694-4.181-.381-.341-4.899-6.188-4.695-6.414-.226-.454-2.274-7.557-2.067-7.984-.396-7.17 2.995-.166.388 7.019 1.967 7.487 2.186 7.26 4.509 6.162 4.703 5.939 6.474 4.043zm-174.17 71.625-2.465-1.71 10.455-15.068 9.394-15.637 10.506-15.149 9.393-15.634 10.502-15.143 2.465 1.711-10.449 15.06-9.392 15.634-10.507 15.148-9.394 15.638z"/><path d="m646.775 526.667-30.767-.6-30.709.6-30.821-.6-30.706.6-30.966-.61-13.629-1.598-.577-.192-12.15-7.079-10.005-9.395-.343-.483-5.687-12.856-2.699-13.755v-36.108l.125-9.534 3 .039-.125 9.515v35.94l2.609 13.155 5.394 12.107 9.658 9.07 11.458 6.633 13.247 1.553 30.69.599 30.706-.6 30.821.6 30.709-.6 30.619.596 4.763-1.238 4.465-1.376 3.288-3.415 3.184-3.565 1.553-4.319-.213-5.474-.745-5.329-3.237-4.295-3.659-3.929-5.197-1.631-15.334-4.516-15.767-3.393-15.365-4.526-15.771-3.394-15.421-4.542-8.297-2.707-.526-.3-6.654-5.875-5.732-6.525-.296-.516-2.792-8.419-1.708-8.516 1.471-1.796h.6v1.38l.87-.174 1.69 8.425 2.619 7.864 5.468 6.225 6.215 5.471 7.961 2.598 15.326 4.513 15.771 3.395 15.365 4.525 15.767 3.394 15.413 4.539 5.601 1.758.648.409 4.083 4.395 3.517 4.668.288.695.823 5.937.228 5.841-.088.566-1.751 4.868-.293.491-3.416 3.824-3.595 3.735-.639.393-4.9 1.509-5.026 1.307z"/><path d="m511.27 525.374-5.705-13.847-8.044-12.318-11.75-8.843-13.217-6.418-23.17-2.055.264-2.989 23.445 2.08.523.145 13.842 6.752 12.078 9.089.354.379 8.395 12.905 5.758 13.977zm95.081 1.021-.594-.086.214-1.472-.893-.109.901-7.318.11-.407 2.903-6.778 2.586-6.836.204-.37 4.535-6.018 12.742-13.584.36-.282 3.282-1.842 1.469 2.615-3.08 1.73-12.529 13.356-4.254 5.657-2.533 6.695-2.843 6.642-.875 7.106zM32.565 279.787l-9.43-.83-.609-.19-8.447-4.819-7.309-6.018-.388-.488-4.344-8.774-1.797-7.269-.241-7.31.027-.334 4.738-24.532 6.655-23.984 5.726-24.168 7.114-23.943 6.354-24.027.137-.34 2.18-3.953 3.768-7.98 1.632-4.108.239-.403 2.884-3.474L56.523 86.69l18.041-12.881 20.158-8.813 21.051-7.091 21.838-2.09 14.709-.387.122.002 14.637.81 14.65-.385.122.001 14.643.81 14.66-.385.292.021 23.453 4.012 22.364 7.455.345.167 19.965 13.077 16.643 16.631.323.482 9.077 21.661 6.25 17.079 5.115 17.483 6.194 16.919 5.116 17.486 6.194 16.922-2.817 1.031-6.226-17.017-5.116-17.485-6.193-16.92-5.116-17.483-6.193-16.92-8.937-21.324-16.325-16.313-19.432-12.691-22.071-7.358-22.973-3.912-14.575.383-.122-.002-14.642-.81-14.65.385-.122-.001-14.637-.81-14.596.384-21.509 2.062-20.488 6.942-19.834 8.678-17.519 12.546-14.686 15.782-2.675 3.227-1.583 3.974-3.847 8.149-2.134 3.874-6.319 23.892-7.105 23.905-5.718 24.142-6.654 23.982-4.667 24.19.23 6.981 1.673 6.637 4.016 8.04 6.963 5.733 7.837 4.448 8.927.786 11.671-1.761 4.764-3.184 8.423-8.405 9.894-14.629 2.957-3.307 2.237 1.999-2.89 3.232-9.976 14.726-8.856 8.797-5.164 3.451-.61.236z"/><path d="m72.728 283.055-3-.038.301-23.7-.6-23.642.6-23.777-.6-23.627.6-23.78-.114-4.213-1.148-10.479-1.119-3.961-.056-.421.034-4.138-1.105-8.231 2.974-.4 1.132 8.549-.033 4.031 1.142 4.12 1.176 10.788.116 4.353-.6 23.782.6 23.627-.6 23.777.6 23.623zm251.008 12.539-20.964-.309-.644-.156-18.797-9.309-.397-.286-14.796-14.866-.349-.553-7.123-19.938-3.724-16.907-2.405-17.028-3.492-16.849-2.224-17.048-3.345-17.106.179-5.712-.343-5.703.034-.417 1.236-5.528.412-5.92 2.405-9.44 2.907.74-2.371 9.306-.399 5.855-1.217 5.436.337 5.697-.176 5.609 3.3 16.698 2.233 17.089 3.479 16.779 2.413 17.066 3.671 16.644 6.924 19.351 14.385 14.453 18.27 9.048 20.34.3 18.466-6.961 17.95-12.94 17.104-13.603 18.063-12.224 17.667-12.729 14.768-9.611 13.608-7.48 5.154-3.931 5.574-2.798 10.336-6.487 1.537-2.009 1.426-1.325.114-1.798-.55-4.203-1.281-1.942-1.483-1.681-2.335-.23-2.545-.4-5.67 2.547-3.113 2.121-.417.198-3.62 1.075-6.841 3.249-1.287-2.709 7.162-3.383 3.507-1.042 3.259-2.191 6.197-2.784.849-.114 2.9.458 2.836.278.977.5 2.07 2.369 1.53 2.317.235.632.624 4.98-.162 2.54-.476 1.004-1.765 1.64-1.444 1.926-.403.371-10.757 6.742-5.51 2.766-5.082 3.887-13.66 7.51-14.567 9.482-17.644 12.714-18.052 12.217-17.022 13.541-18.169 13.1-.348.187-18.918 7.132z"/><path d="m246.272 403.515-12.286-.752-12.411-.071-12.152-2.365-11.611-3.669-.703-.473-7.047-8.499-4.368 5.117-5.362 4.442-.484.269-13.249 4.356-.4.072-13.671.588-13.451.195-13.427.094-.302-.028-15.521-3.068-.502-.199-26.5-16.523-.419-.39-9.3-12.785-.263-.616-2.813-15.709-.6-14.203.6-14.08-.001-28.097-.395-14.328 1.52-1.541 42.173.584 42.036-.6 42.12.6 42.041-.6 42.126.6-.043 3-42.083-.6-42.041.6-42.12-.6-42.036.6-40.651-.563.352 12.807.001 28.202-.599 14.08.593 13.91 2.711 15.068 8.926 12.27 26.018 16.223 15.103 2.985 13.264-.093 13.397-.193 13.424-.579 12.769-4.198 5.043-4.178 5.253-6.196 2.298.013 7.908 9.536 11.108 3.51 11.761 2.28 12.078.046 12.28.751 11.943-.002 17.984-.6 21.027-.915 20.378-5.058 19.866-6.8 18.134-10.589 17.277-12.166 15.647-12.125 16.487-11.252 15.631-12.114 16.485-11.25 25.43-18.591 2.731-2.737.364-.268 3.523-1.851 1.395 2.656-3.32 1.744-2.822 2.803-6.341 4.673-19.231 14.022-16.45 11.223-15.632 12.115-16.486 11.252-15.628 12.112-17.492 12.313-18.589 10.82-20.193 6.906-20.883 5.153-21.193.922-18.049.601z"/><path d="m529.088 437.368-19.962-.6-19.793.6-19.976-.6-20.047.478-1.533-1.582 1.426-25.887.284-25.673 1.487-25.769.284-25.674 1.391-25.997 2.996.16-1.389 25.934-.284 25.68-1.488 25.769-.283 25.669-1.339 24.333 18.505-.44 19.966.6 19.793-.6 19.973.6 18.101-.415.537-33.395-.6-34.936.6-35.032-.6-34.93.597-34.889-3.087-17.394-4.727-16.926-9.357-14.638-13.046-11.091-16.852-3.032-14.375 1.691-13.714 5.449-19.408 8.173-1.164-2.765 19.436-8.185 13.926-5.533.378-.096 14.792-1.739.441.013 17.469 3.143.706.334 13.526 11.498.292.335 9.598 15.016.181.404 4.839 17.353 3.149 17.896-.6 34.983.6 34.93-.6 35.032.6 34.934-.561 34.887-1.466 1.476zm-71.023-247.789-2.411-1.784 2.448-3.279 1.692-1.672.253-2.552.504-2.278-2.74-4.642-1.821-1.956-5.629-.722-2.408 1.547-.353.167-4.219 1.351-3.992 1.709-5.446 1.29-.692-2.919 5.316-1.259 3.828-1.655 4.102-1.314 2.704-1.737 1.004-.226 6.699.859.91.466 2.498 2.734 3.123 5.291.173 1.087-.612 2.765-.267 2.819-.439.925-1.997 1.974z"/><path d="m427.601 181.237-1.751-2.436 8.096-5.805 4.234-2.318 7.656-5.503 2.853-3.916.42-4.576-1.084-1.86-3.664-4.454-5.613-.67-7.305 3.336-5.136 1.789-4.215 1.841-1.201-2.749 4.375-1.907 5.124-1.784 7.499-3.432.813-.124 3.307.421 3.289.365.993.538 4.265 5.215 1.387 2.379.198.893-.502 5.465-.281.746-3.238 4.445-.337.334-8.082 5.796-4.234 2.317z"/><path d="m414.347 161.896-1.66-2.499 9.218-6.117 9.256-6.245 4.4-3.692 2.006-1.336 1.608-4.732-.482-3.74-2.494-2.835-4.989-1.852-5.185 1.616-4.009 2.742-4.244 1.572-3.92 2.715-11.01 5.251-4.904 3.198-1.638-2.513 5.16-3.35 10.989-5.241 4.101-2.806 4.244-1.572 3.703-2.588.413-.203 5.896-1.837.968.026 5.823 2.161.604.416 3.047 3.463.362.799.585 4.54-.067.674-1.884 5.544-.589.766-2.36 1.572-4.389 3.684-9.333 6.296z"/><path d="m323.04 178.225-1.701-2.471 10.527-7.247 9.92-8.286 10.528-7.247 9.925-8.288 10.527-7.249 4.688-3.947 5.041-2.812 4.612-3.958 5.036-2.836 4.356-3.795.702-.342 3.321-.624 3.161-.147 1.162.471 2.291 2.45 1.873 2.555.244 1.255-.877 3.35-4.884 10.374-.335.461-2.714 2.539-2.079 3.092-.662.544-6.08 2.565-.759.108-3.063-.363-6.418-.073.034-3 6.658.084 2.748.326 5.302-2.237 2.145-3.12 2.626-2.457 4.707-9.994.569-2.25-1.4-1.911-1.638-1.74-2.364.11-2.604.501-4.416 3.806-5.037 2.838-4.62 3.963-5.048 2.816-4.513 3.826-10.534 7.252-9.924 8.288-10.528 7.248-9.92 8.285zM194.678 58.196l-3.827-9.578-4.979-9.232-3.826-9.578-4.982-9.236-3.735-9.349-3.345-3.041-3.526-2.616-4.382-.247-4.381.197-3.517 2.563-3.771 3.717-.472 2.415-.545 5.569-.071 7.413 1.125 7.635-.072 7.479 1.124 7.638-.071 7.602-3-.028.07-7.484-1.124-7.638.072-7.479-1.125-7.635.08-7.73.579-5.847.574-2.94.42-.781 4.35-4.265 3.972-2.895.816-.286 4.908-.22.152.001 4.907.276.809.293 4.062 3.023 3.656 3.324.384.553 3.831 9.589 4.982 9.236 3.826 9.578 4.979 9.233 3.859 9.658z"/><path d="m496.781 198.146-2.998-.1.6-18.156-.6-18.056.6-18.253-.6-18.053.592-18.014-1.284-4.567-1.578-4.271-3.579-2.82-3.784-2.532-4.61-.177-38.505-.599-38.494.599-38.582-.599-38.488.599-39.543.401-.03-3 39.534-.4 38.527-.6 38.582.6 38.494-.6 38.586.6 5.068.194.777.252 4.28 2.87 3.956 3.117.478.659 1.782 4.837 1.364 4.849.055.455-.6 18.147.6 18.053-.6 18.253.6 18.056z"/><path d="m482.218 199.67-2.998-.098.527-16.15-.6-18.278.6-18.475-.6-18.282.4-17.215-36.559-.455-34.76.441-36.362.6-36.423-.6-36.324.6-.05-2.999 36.374-.6 36.423.6 36.318-.6 34.803-.442 38.113.474 1.481 1.535-.435 18.647.599 18.296-.6 18.475.6 18.278zM149.896 44.683l-1.735-2.447 3.737-2.627 2.49-1.216 1.551-2.585 1.781-2.124.32-2.752.117-.43 3.002-6.831.73-2.389.282-.522 2.343-2.811 2.304 1.921-2.149 2.578-.729 2.349-2.946 6.705-.346 2.975-.34.791-1.991 2.373-1.576 2.666-.633.584-2.783 1.36z"/><path d="m149.124 30.799-1.416-2.644 7.803-4.179 7.347-5.292 7.803-4.178 7.349-5.295 7.395-3.96.417-1.128-.921-1.076-3.265.238-2.659 1.272-.539.142-3.008.219-5.777 2.165-1.053-2.809 5.979-2.241.417-.091 2.942-.214 2.659-1.272.539-.143L185.44 0l1.249.521 1.985 2.322.267 1.494-.919 2.487-.699.803-7.808 4.181-7.35 5.295-7.802 4.178-7.347 5.293zm253.322 313.859 9.959-2.297 10.041-3.159 10.333-1.995 10.045-3.16 10.442-2.045.464-10.144.342-9.921.037-4.481-10.698 6.799-20.715 15.071zM177.522 34.489l-3.235-.466-3.25-.522-.897-.501-2.129-2.467 2.271-1.96 1.772 2.053 5.532.841 2.566-.897 2.382-1.915 1.88 2.338-2.584 2.077-.444.247-3.155 1.103zm200.139 71.733-1.774-.576-.75-.544-1.097-1.509-.287-.882v-2.757l.924-1.385 2.872-1.195 1.04-.042 1.774.576.75.544 1.097 1.509.287.882v1.866l-.287.882-1.097 1.509-.75.544-1.774.577h-.928zm-.384-3.279.848.275.848-.276.524-.72v-.891l-.524-.72-.784-.255-1.436.597v1.269zm-126.74 88.624.272 14.733 1.236 14.993.037 15.045 1.236 14.996.038 15.061 3.969 13.221.547 4.594 4.307 6.011 9.292 3.553 6.856 1.577 7.889.469 18.169-.511-9.85-5.865-9.449-4.59-7.126-4.739-7.848-10.614-3.721-5.95-2.66-14.583-3.826-14.307-2.655-14.565-3.828-14.312zM67.584 180.491l-2.032 11.342-3.569 13.131-2.401 13.403-4.216 17.627-.705 10.413 3.518 10.709 1.607 2.278 1.738 1.782 9.406-14.88.599-16.179-.6-48.656zm482.553 195.885 6.545 25.106 3.063 12.441 4.217 12.107 3.065 12.449 3.488 7.645 3.447 7.663 5.427 6.414 7.848 7.21 4.506 3.939v1.519l-10.89-3.566-7.104-1.753-9.917-3.703-10.667-11.15-3.892-14.713z"/></g><path d="m520.764 434.094-3-.041.524-37.958-.676-37.403.525-37.497-.676-37.399.522-37.281-2.618-9.442-5.371-7.951-8.716-4.045-9.527-1.158-8.845 4.07-24.708 15.661-24.079 16.682-24.84 15.746-24.075 16.679-24.987 15.828-25.853 12.551-.506.144-28.594 2.858-.4-.014-28.333-4.812-.493-.176-24.958-14.244-.321-.246-20.299-20.461 2.13-2.113 20.155 20.316 24.55 14.011 27.871 4.734 28.128-2.812 25.536-12.397 24.717-15.667 24.074-16.679 24.841-15.746 24.079-16.682 25.02-15.845 9.323-4.289.808-.126 10.184 1.237.45.129 9.309 4.32.612.521 5.741 8.5.202.439 2.741 9.885.055.422-.525 37.447.675 37.399-.524 37.497.676 37.403z" fill="#fff"/><path d="m136.687 57.68-2.988-.26.469-5.388.243-.698 1.859-2.808 1.64-2.941.671-.626 3.047-1.436 2.931-1.659.434-.163 3.586-.743.609 2.937-3.356.696-2.875 1.622-2.662 1.254-1.492 2.667-1.68 2.538zm112.947 122.835 67.674-15.672.677 2.923-67.674 15.671zm-230.67-9.125.7-2.918 50.192 12.047-.7 2.918zm52.264 110.146h210.4v3h-210.4z" fill="#231f20"/></svg></g><g transform="translate(779.0 430.0) rotate(0.0 6.0 -6.0) scale(0.8830671866951211 -0.870258902023352)"><svg width="13.589" height="13.789" viewBox="0 0 13.589 13.789"><path d="M6.795 12.289c-.119 0-.237-.014-.354-.042l-1.173-.285a1.511 1.511 0 0 1-.216-.07l-1.116-.459a1.492 1.492 0 0 1-.573-.417l-.781-.92a1.383 1.383 0 0 1-.132-.182l-.636-1.027a1.51 1.51 0 0 1-.221-.677l-.09-1.204a1.66 1.66 0 0 1 0-.223l.09-1.204a1.51 1.51 0 0 1 .221-.677l.635-1.027c.039-.064.083-.125.132-.182l.781-.92a1.5 1.5 0 0 1 .573-.417l1.116-.459c.07-.029.143-.052.216-.07l1.173-.285a1.518 1.518 0 0 1 .709 0l1.173.285c.073.018.146.041.216.07l1.116.459c.222.091.419.234.574.417l.78.92c.048.057.092.117.131.181l.635 1.026c.127.205.202.437.221.677l.09 1.204a1.66 1.66 0 0 1 0 .223l-.09 1.204a1.51 1.51 0 0 1-.221.677l-.635 1.027a1.462 1.462 0 0 1-.131.181l-.78.92a1.503 1.503 0 0 1-.574.417l-1.116.459c-.07.029-.143.052-.216.07l-1.173.285a1.42 1.42 0 0 1-.354.045z" fill="#C3ACF1"/><path d="m6.794 3 1.173.285 1.116.458.781.92.635 1.027.09 1.204-.09 1.204-.635 1.027-.781.92-1.116.459-1.173.285-1.173-.285-1.116-.459-.781-.92-.634-1.027L3 6.894l.09-1.204.635-1.026.781-.92 1.116-.459zm0-3c-.237 0-.475.028-.707.084L4.914.369A3.011 3.011 0 0 0 4.48.51L3.364.969a3.006 3.006 0 0 0-1.147.834l-.781.92a3.223 3.223 0 0 0-.263.363L.538 4.112a3.01 3.01 0 0 0-.44 1.355l-.09 1.204a3.018 3.018 0 0 0 0 .446l.09 1.204c.036.48.187.945.44 1.355l.635 1.026c.079.127.167.248.264.362l.781.92c.31.366.704.652 1.147.834l1.116.459c.141.058.286.105.433.141l1.173.285a3.02 3.02 0 0 0 1.416 0l1.173-.285c.148-.036.293-.083.433-.141l1.116-.459a2.988 2.988 0 0 0 1.147-.834l.781-.92c.097-.114.185-.235.264-.362l.635-1.026a3.01 3.01 0 0 0 .44-1.355l.09-1.204a3.018 3.018 0 0 0 0-.446l-.09-1.204a3.002 3.002 0 0 0-.44-1.354l-.635-1.027a3.029 3.029 0 0 0-.264-.363l-.781-.92a2.991 2.991 0 0 0-1.148-.834L9.107.51a3.114 3.114 0 0 0-.432-.141L7.502.084A3.026 3.026 0 0 0 6.794 0z" fill="#231f20"/></svg></g><g transform="translate(255.0 630.0) rotate(0.0 155.0 67.0) scale(1.049165236755981 1.0531196705464434)"><svg width="295.473" height="127.241" viewBox="0 0 295.473 127.241"><path d="m269.505 118.294-5.998-12.761-.996-10.944 4.556-14.72 5.088-12.093-106.982.934-7.809 27.757 6.356 15.901 6.272 8.648 100.071-1.116zm0-62.94-5.998-12.761-.996-10.944 4.556-14.72 5.088-12.092-106.982.933-7.809 27.757 6.356 15.901 6.272 8.648 100.071-1.116z" fill="#fff"/><path d="m83.145 52.777-3.061-12.981-.583-13.322 4.249-12.642 7.067-12.476 12.993-.144-7.064 12.911-4.195 12.408-.025.176.561 12.812 2.981 12.757.073.164 7.88 11.454-13.128.146z" fill="#f1acca"/><path d="M285.154 1.605c-58.406-.734-124.508-.127-182.49-.381l-6.9 12.611-4.248 12.637.583 13.323 3.061 12.98 7.656 11.131c33.562-.401 80.207.83 114.448-.077-.265-1.768.066-6.909.183-8.749-12.238.223-34.491.683-46.733-.052l-.357-.207-4.674-7.8c.011-.233-3.213-8.84-3.14-9.074.03-4.928 1.249-14.393 2.744-19.097l5.769-8.697.372-.193c36.471 1.117 77.272-.559 113.757.599z" fill="#ee4878"/><path d="m62.542 64.274-7.819-11.368-3.061-12.98-.583-13.323 4.249-12.641 7.043-12.436 6.615.074 6.548-.073-7.205 12.721-4.2 12.413-.025.176.561 12.812 2.981 12.756.073.164 8.008 11.641-8.466.095z" fill="#f1acca"/><path d="m292.075 117.565-24.85-.612-24.16.599-24.404-.599-24.146.6-24.005-.104-.368-.221-4.444-8.227-3.128-8.926-.026-.191.617-9.677 2.057-9.254.069-.165 5.771-8.698.371-.194 24.191.587 22.084-.54-.478-8.782-34.814.375-18.655-.2-37.203-.399-35.6.383-2.636 2.806-5.534 9.773-4.249 12.641.582 13.323 3.061 12.98 7.688 11.174 34.83-.376 38.297.412 17.356.187 55.589-.6 56.167.605zM163.72 63.399" fill="#b25539"/><path d="m66.737 52.906-3.061-12.98-.583-13.323 4.249-12.641L74.377 1.54l17.595-.196-7.234 12.775c-.027.175-4.264 12.413-4.226 12.588l.561 12.812 2.98 12.756c.028.235 7.958 11.551 8.044 11.751l-17.576.196z" fill="#ee4878"/><path d="m21.358 64.005-6.596-.071-9.134-11.1L.993 40.217l.592-13.399L5.05 13.86C6.259 12.265 14.013 2.585 14.756.997l48.756.542-7.196 12.709c-.027.175-4.264 12.412-4.226 12.588l.561 12.813 2.98 12.756c.04.272 8.038 11.649 8.132 11.876zm226.023-.09c.248-1.537-.117-6.933-.205-8.56 7.875-.528 27.476-.015 35.566.274.28 2.163.401 6.54.023 8.681z" fill="#ee4878"/><path d="m269.264 71.884-22.342.548.508-9.375h1.895l45.122.485-.025 4.434.056 4.52zM13.215 125.639 5.62 114.751.993 102.154l.592-13.4 3.464-12.952 9.706-12.84 6.685.044 42.083.452-7.207 12.727-4.2 12.413-.026.176.562 12.812 2.98 12.756.073.164 8.034 11.678z" fill="#b25539"/><path d="m62.515 126.17-7.792-11.327-3.061-12.98-.583-13.323 4.249-12.641 7.054-12.453 8.462.091 20.213-.218-7.285 12.866-4.2 12.413-.026.176.561 12.812 2.98 12.756.073.164 7.912 11.499-21.95.236z" fill="#c3acf1"/><g fill="#231f20"><path d="m282.292 65.305-53.769-.6-53.73.6-53.794-.6-53.735.6-52.25-.341-1.148-.547-8.955-10.882-.25-.436L.09 40.656 0 40.072l.634-13.565L4.06 13.7l.266-.534 8.106-10.401L13.761.691 15.04 0l53.924.6 53.892-.6 53.957.6L230.71 0l53.955.6 1.483 1.488.029 7.958-1.539 1.5-22.765-.599-22.665.6-22.825-.6-22.67.6-21.998-.578-5.544 8.357-2.044 9.198-.582 9.38 3.097 8.833 4.407 7.302 21.6.578 22.341-.6 22.501.6 22.345-.6 22.483.6 1.456 1.388.32 4.308-.002.24-.291 3.38zm-161.293-3.6 53.794.6 53.73-.6 52.41.584.161-1.874-.211-2.836-21.048-.563-22.345.6-22.501-.6-22.341.6-22.5-.6-1.244-.725-5.043-8.416-3.248-9.266-.081-.589.641-10.033 2.13-9.585.214-.504 6.157-9.282 1.289-.67 22.75.6 22.67-.6 22.825.6 22.664-.6 21.305.559-.017-4.923L230.71 3l-53.897.6-53.957-.6-53.892.6-53.126-.591-.998 1.546L6.879 14.77 3.575 27.124l-.565 12.78 4.379 11.921 8.346 10.143 51.522.336z"/><path d="m269.664 56.493-5.691-8.001-.242-.548-2.136-9.823-.582-9.802.083-.589 3.37-9.476 4.705-8.617 1.847-.685.001.001.274-.325.011.004.271-.32.59.23-.25.643.406-.241.324.546-.272.324.004.009-.904 1.07.331.181-4.647 8.512-3.131 8.858.556 9.381 2.013 9.177 5.514 7.753zM61.432 64.421 53.953 53.55l-.224-.506-3.066-13.121-.577-13.184.077-.543 4.32-12.768 6.502-11.482 1.686-.712.001.001.369-.436.014.003.364-.43.638.175-.25.906.575-.267.279.601-.367.437.005.01-.907 1.075.203.115-6.43 11.357-4.07 12.106.558 12.764 2.931 12.431 7.319 10.639z"/><path d="M73.445 64.421 65.967 53.55l-.224-.506-3.067-13.121-.576-13.184.076-.543 4.321-12.768 6.502-11.482 1.686-.712.001.001.369-.436.014.003.364-.43.637.175-.249.906.574-.267.279.601-.366.437.004.01-.907 1.075.204.115-6.431 11.357-4.069 12.106.558 12.764 2.931 12.431 7.319 10.639zm16.409-.13-7.48-10.87-.224-.506-3.066-13.122-.576-13.183.076-.544 4.321-12.768 6.502-11.482 1.686-.711h.001l.369-.436.013.004.364-.431.638.175-.249.907.575-.267.279.6-.367.438.005.01-.908 1.075.204.115-6.431 11.356-4.069 12.107.558 12.763 2.931 12.432 7.319 10.638z"/><path d="m101.867 64.291-7.479-10.87-.224-.506-3.066-13.122-.577-13.183.077-.544 4.31-12.749 6.586-12.037 2.632 1.44-6.522 11.921-4.073 12.117.558 12.763 2.931 12.432 7.319 10.638zm59.729.13-7.478-10.871-.225-.506-3.066-13.121-.578-13.184.078-.543 4.32-12.768 7.027-12.41 2.612 1.479-6.957 12.284-4.07 12.106.559 12.764 2.931 12.431 7.318 10.639z"/><path d="m291.588 127.241-55.628-.6-55.589.6-55.653-.6-55.596.6-55.66-.6-1.213-.641-7.588-10.964-4.57-12.443-.091-.584.634-13.565L4.06 75.637l.252-.517 9.515-12.587 1.213-.596 55.783.6 55.752-.6 55.815.6 55.757-.6 55.814.6 1.483 1.508-.021 3.908.05 4.012-1.536 1.519-24.623-.6-24.531.6-24.677-.6-24.535.6-23.854-.58-5.545 8.359-2.044 9.197-.582 9.381 3.108 8.866 4.199 7.743 23.622.104 24.235-.601 24.354.601 24.21-.601 24.339.6 1.463 1.495.027 7.688zm-166.869-3.599 55.653.6 55.589-.6 54.139.583-.017-4.708-22.807-.563-24.21.601-24.354-.601-24.205.601-24.554-.107-1.312-.785-4.778-8.849-3.248-9.266-.081-.589.641-10.033 2.13-9.585.214-.504 6.157-9.281 1.286-.671 24.609.6 24.535-.6 24.677.6 24.531-.6 23.14.562-.03-2.482.014-2.443-54.29-.584-55.757.6-55.815-.6-55.752.6-55.059-.592-8.881 11.75L3.575 89.06l-.564 12.78 4.4 11.979 6.857 9.831 54.855.591z"/><path d="m269.664 118.43-5.691-8.001-.242-.548-2.136-9.823-.582-9.802.083-.589 3.37-9.476 4.705-8.618 1.847-.684.001.001.274-.325.011.004.271-.32.59.229-.25.644.407-.24.324.546-.273.324.004.007-.904 1.071.331.181-4.647 8.512-3.131 8.858.556 9.382 2.013 9.176 5.514 7.752zm-208.232 7.928-7.479-10.871-.224-.507-3.066-13.121-.577-13.182.077-.543 4.32-12.77 6.502-11.481 2.61 1.478-6.43 11.357-4.07 12.106.558 12.763 2.931 12.431 7.319 10.639zm27.455 0-7.478-10.871-.224-.507-3.067-13.121-.577-13.182.077-.543 4.321-12.77 6.501-11.481 2.611 1.478-6.431 11.357-4.069 12.106.558 12.763 2.931 12.431 7.319 10.639zm72.709 0-7.478-10.871-.225-.507-3.066-13.121-.578-13.182.078-.543 4.32-12.77 6.502-11.481 2.611 1.478-6.431 11.357-4.07 12.106.559 12.763 2.931 12.431 7.318 10.639zm8.396-115.962 20.35.453 20.092-.6 20.092.6 20.096-.6 20.05.596-3.513 5.117-4.697 8.813-18.391-3.381-18.532-2.192-18.353-3.378-18.536-2.193z"/><path d="m169.992 71.531 20.35.453 20.092-.6h40.188l20.05.596-6.816 10.689-1.394 3.241-18.391-3.381-18.532-2.192-18.353-3.379-18.536-2.192z"/></g><path d="m243.967 92.105-2.664-3.49-9.203-8.536-.471-.02-2.532 1.966-6.069 6.056-5.918 4.229-1.002-9.307.595-10.829-.595-10.986.595-10.826-.587-11.153 10.896-.632 10.382.599 11.063-.528-.538 11.726.596 11.149-.596 10.987.596 11.145-1.837 10.934z" fill="#aad037"/><path d="m215.124 39.574 2.996-.162.06 1.096-2.997.163z" fill="#231f20"/><path d="m246.423 95.713-3.277-3.036-2.661-3.485-8.667-8.013-2.129 1.653-5.936 5.936-5.449 6.046-2.612-.925-.58-10.967.596-10.829-.596-10.986.596-10.826-.493-9.184-8.911-.516-10.266.595-.174-2.995 10.526-.6 10.273.595 10.437-.595 10.273.596 10.489-.501 1.569 1.567-.515 11.202.596 11.16-.596 10.983.596 11.146-.578 10.953zm-.973-4.962.657.602.406-7.697-.596-11.149.596-10.983-.596-11.141.442-9.631-8.923.426-.158-.001-10.266-.595-8.795.51.489 9.273-.596 10.825.596 10.986-.596 10.83.383 7.118 3.084-3.421 6.196-6.182 3.208-2.491 1.938.083 9.869 9.155z" fill="#231f20"/></svg></g><g transform="translate(830.0 452.0) rotate(0.0 41.5 40.0) scale(1.021752243546342 1.0197188125374428)"><svg width="81.233" height="78.453" viewBox="0 0 81.233 78.453"><g><g><g><g><path style="fill:#cae062" d="m50.569 66.391-7.085-11.28-2.757-5.113h-.252l-2.734 5.071-7.667 11.433-3.547-1.781 4.529-12.802 2.303-5.322-.154-.193-5.638 1.034-13.339 1.541-2.028.195-.845-3.88 14.461-5.009 5.63-1.527.055-.239-4.319-3.725-9.569-9.43-.91-1.074 2.434-3.075 1.257.641 11.313 7.111 4.719 3.422.226-.109.248-5.742 1.72-12.255h3.961l1.72 12.248.247 5.748.227.109 4.691-3.402 5.914-3.018 3.498-2.27 2.47 3.124-2.866 2.734-4.403 5.181-4.402 3.8.055.267 18.197 5.791 1.95.71-.876 3.87-1.911-.183-19.095-2.641-.167.219 2.276 5.248 4.499 12.614.357 1.383-3.527 1.712z"/><g><path style="fill:#231f20" d="m24.079 78.453-2.694-1.306 2.605-6.341 1.682-6.494 4.472-12.541 1.676-3.875-4.09.749-13.4 1.551L.658 51.508 0 48.605l12.849-4.697 12.694-4.358 4.096-1.113-3.117-2.691-9.669-9.532-4.27-5.038-5.126-4.593 1.859-2.348 5.648 3.939 5.998 3.066 11.322 7.119 3.456 2.504.191-4.269 2.766-19.707.423-6.888L42.112 0l.426 6.883 2.779 19.85.178 4.13 3.567-2.565 5.902-3.011 16.99-11.079 1.855 2.342-14.64 13.969-4.449 5.221-3.232 2.79 16.82 5.354 12.924 4.72-.658 2.902-13.626-1.304-17.59-2.434 1.691 3.906 4.544 12.752 1.646 6.374 2.61 6.346-2.694 1.307-3.368-5.98-4.062-5.348-7.089-11.29-2.021-3.744-2.043 3.776-11.104 16.56-3.389 6.026zm28.153-12.982.81 1.063-.334-1.294-4.448-12.467-2.714-6.261 1.582-2.082 20.169 2.792 1.913.183-1.872-.684-19.315-6.146-.525-2.565 5.172-4.466 4.37-5.142 2.941-2.806-3.583 2.327-5.869 2.994-5.532 4.013-2.379-1.15-.295-6.846-1.706-12.153-1.707 12.16-.295 6.839-2.379 1.15-5.632-4.085-11.182-7.027-1.177-.6.854 1.007 9.457 9.32 5.18 4.467-.587 2.583-6.725 1.824-14.396 4.986 1.989-.191 13.273-1.533 6.753-1.24 1.646 2.072-2.753 6.36-4.506 12.734 7.612-11.352 3.254-6.037h2.641l3.292 6.106 7.003 11.147z"/></g></g></g></g></g></svg></g></svg>