<?xml version="1.0"?><svg fill="#000000" xmlns="http://www.w3.org/2000/svg"  viewBox="0 0 64 64" width="128px" height="128px">    <path d="M 26.070312 1 C 25.065313 1 24.132219 1.4989375 23.574219 2.3359375 L 20.464844 7 L 3 7 C 1.35 7 0 8.35 0 10 L 0 19.800781 C 0 21.430781 0.76 22.890781 2 23.800781 L 2 50 C 2 51.65 3.35 53 5 53 L 35.419922 53 L 31.119141 57.289062 C 29.629141 58.789062 29.629141 61.210938 31.119141 62.710938 C 31.869141 63.450938 32.850078 63.830078 33.830078 63.830078 C 34.810078 63.830078 35.789062 63.450938 36.539062 62.710938 L 41.119141 58.119141 C 41.199141 58.039141 41.270078 57.970859 41.330078 57.880859 C 43.570078 59.230859 46.2 60 49 60 C 57.27 60 64 53.27 64 45 C 64 42.28 63.27 39.729297 62 37.529297 L 62 23.800781 C 63.24 22.890781 64 21.430781 64 19.800781 L 64 10 C 64 8.35 62.65 7 61 7 L 43.535156 7 L 40.425781 2.3359375 C 39.867781 1.4989375 38.934688 1 37.929688 1 L 26.070312 1 z M 26.070312 3 L 37.929688 3 C 38.264688 3 38.575719 3.1663125 38.761719 3.4453125 L 41.130859 7 L 22.869141 7 L 25.238281 3.4453125 C 25.424281 3.1663125 25.735312 3 26.070312 3 z M 3 9 L 19.130859 9 L 44.867188 9 L 61 9 C 61.55 9 62 9.45 62 10 L 62 11 C 61.448 11 61 11.447 61 12 L 61 14 C 61 14.553 61.448 15 62 15 L 62 19.800781 C 62 21.090781 61.2 22.210859 60 22.630859 C 59.89 22.670859 59.780156 22.700469 59.660156 22.730469 L 36 28.070312 L 36 26 C 36 24.9 35.1 24 34 24 L 30 24 C 28.9 24 28 24.9 28 26 L 28 28.070312 L 4.3398438 22.730469 C 4.2198437 22.700469 4.11 22.670859 4 22.630859 C 2.8 22.210859 2 21.090781 2 19.800781 L 2 15 C 2.552 15 3 14.553 3 14 L 3 12 C 3 11.447 2.552 11 2 11 L 2 10 C 2 9.45 2.45 9 3 9 z M 7 11 C 6.448 11 6 11.447 6 12 L 6 14 C 6 14.553 6.448 15 7 15 C 7.552 15 8 14.553 8 14 L 8 12 C 8 11.447 7.552 11 7 11 z M 12 11 C 11.448 11 11 11.447 11 12 L 11 14 C 11 14.553 11.448 15 12 15 C 12.552 15 13 14.553 13 14 L 13 12 C 13 11.447 12.552 11 12 11 z M 17 11 C 16.448 11 16 11.447 16 12 L 16 14 C 16 14.553 16.448 15 17 15 C 17.552 15 18 14.553 18 14 L 18 12 C 18 11.447 17.552 11 17 11 z M 22 11 C 21.448 11 21 11.447 21 12 L 21 14 C 21 14.553 21.448 15 22 15 C 22.552 15 23 14.553 23 14 L 23 12 C 23 11.447 22.552 11 22 11 z M 27 11 C 26.448 11 26 11.447 26 12 L 26 14 C 26 14.553 26.448 15 27 15 C 27.552 15 28 14.553 28 14 L 28 12 C 28 11.447 27.552 11 27 11 z M 32 11 C 31.448 11 31 11.447 31 12 L 31 14 C 31 14.553 31.448 15 32 15 C 32.552 15 33 14.553 33 14 L 33 12 C 33 11.447 32.552 11 32 11 z M 37 11 C 36.448 11 36 11.447 36 12 L 36 14 C 36 14.553 36.448 15 37 15 C 37.552 15 38 14.553 38 14 L 38 12 C 38 11.447 37.552 11 37 11 z M 42 11 C 41.448 11 41 11.447 41 12 L 41 14 C 41 14.553 41.448 15 42 15 C 42.552 15 43 14.553 43 14 L 43 12 C 43 11.447 42.552 11 42 11 z M 47 11 C 46.448 11 46 11.447 46 12 L 46 14 C 46 14.553 46.448 15 47 15 C 47.552 15 48 14.553 48 14 L 48 12 C 48 11.447 47.552 11 47 11 z M 52 11 C 51.448 11 51 11.447 51 12 L 51 14 C 51 14.553 51.448 15 52 15 C 52.552 15 53 14.553 53 14 L 53 12 C 53 11.447 52.552 11 52 11 z M 57 11 C 56.448 11 56 11.447 56 12 L 56 14 C 56 14.553 56.448 15 57 15 C 57.552 15 58 14.553 58 14 L 58 12 C 58 11.447 57.552 11 57 11 z M 4 24.699219 L 28 30.130859 L 28 32 C 28 33.1 28.9 34 30 34 L 34 34 C 35.1 34 36 33.1 36 32 L 36 30.130859 L 60 24.699219 L 60 34.820312 C 57.26 31.860312 53.34 30 49 30 C 40.73 30 34 36.73 34 45 L 7 45 C 6.45 45 6 45.45 6 46 C 6 46.55 6.45 47 7 47 L 34.140625 47 C 34.320625 48.41 34.709766 49.75 35.259766 51 L 5 51 C 4.45 51 4 50.55 4 50 L 4 24.699219 z M 30 26 L 34 26 L 34 32 L 30 32 L 30 26 z M 49 32 C 53.63 32 57.7 34.430078 60 38.080078 C 61.27 40.090078 62 42.46 62 45 C 62 48 60.97 50.780469 59.25 52.980469 C 56.88 56.030469 53.17 58 49 58 C 46.42 58 44.02 57.249219 42 55.949219 C 40.76 55.149219 39.659766 54.16 38.759766 53 C 38.469766 52.64 38.210703 52.259375 37.970703 51.859375 C 37.790703 51.579375 37.620703 51.29 37.470703 51 C 36.830703 49.77 36.370156 48.42 36.160156 47 C 36.050156 46.35 36 45.68 36 45 C 36 37.83 41.83 32 49 32 z M 48.914062 34 C 42.896062 34 38 38.896062 38 44.914062 C 38 50.932063 42.896062 55.828125 48.914062 55.828125 C 54.932063 55.828125 59.828125 50.932062 59.828125 44.914062 C 59.828125 38.896062 54.932062 34 48.914062 34 z M 48.914062 36 C 53.829062 36 57.828125 39.999062 57.828125 44.914062 C 57.828125 49.829062 53.829062 53.828125 48.914062 53.828125 C 43.999063 53.828125 40 49.829062 40 44.914062 C 40 39.999063 43.999062 36 48.914062 36 z M 48.914062 37.826172 C 48.362063 37.826172 47.914062 38.273172 47.914062 38.826172 C 47.914062 39.379172 48.362063 39.826172 48.914062 39.826172 C 50.956063 39.826172 52.793703 41.039922 53.595703 42.919922 C 53.757703 43.299922 54.127625 43.527344 54.515625 43.527344 C 54.646625 43.527344 54.780203 43.502266 54.908203 43.447266 C 55.416203 43.230266 55.652547 42.641766 55.435547 42.134766 C 54.319547 39.517766 51.759062 37.826172 48.914062 37.826172 z M 37.109375 54.130859 C 37.859375 55.100859 38.719687 55.980234 39.679688 56.740234 L 35.119141 61.289062 C 34.409141 62.009062 33.249063 62.009062 32.539062 61.289062 C 31.819063 60.579062 31.819063 59.420938 32.539062 58.710938 L 37.109375 54.130859 z"/></svg>