<svg xmlns="http://www.w3.org/2000/svg" width="64" height="64" viewBox="0 0 128 128"><path fill="#e6e7e8" d="M117,34.024H90.52V25.183A9.7,9.7,0,0,0,80.835,15.5H51.165a9.7,9.7,0,0,0-9.685,9.684v8.841H15a5.006,5.006,0,0,0-5,5v11.09a5.006,5.006,0,0,0,5,5h.428V111.5a5.006,5.006,0,0,0,5,5h91.144a5.006,5.006,0,0,0,5-5V55.114H117a5.006,5.006,0,0,0,5-5V39.024A5.006,5.006,0,0,0,117,34.024Zm-63.75-4.5a3.347,3.347,0,0,1,3.343-3.342H75.407a3.347,3.347,0,0,1,3.343,3.342v4.5H53.25Z"/><path fill="#0089ef" d="M12.428,50.114V107.5a4,4,0,0,0,4,4h91.144a4,4,0,0,0,4-4V50.114Z"/><path fill="#ffd7e5" d="M45.338,75.9,41.693,60.681,56.92,64.322,86.535,93.937a3.013,3.013,0,0,1,0,4.26l-7.323,7.322a3.011,3.011,0,0,1-4.26,0Z"/><path fill="#6dc9f7" d="M45.338,75.9,56.92,64.322,86.535,93.937a3.013,3.013,0,0,1,0,4.26l-7.323,7.322a3.011,3.011,0,0,1-4.26,0Z"/><path fill="#fa759e" d="M72.134,102.7l2.818,2.819a3.011,3.011,0,0,0,4.26,0L86.535,98.2a3.013,3.013,0,0,0,0-4.26l-2.819-2.819Z"/><rect width="54.794" height="14.87" x="33.816" y="74.337" fill="#ffd7e5" transform="rotate(-45 61.214 81.771)"/><rect width="110" height="19.09" x="7" y="31.024" fill="#6dc9f7" rx="4" ry="4"/><path fill="#fff" d="M113,31.024H11a4,4,0,0,0-4,4v3a4,4,0,0,1,4-4H113a4,4,0,0,1,4,4v-3A4,4,0,0,0,113,31.024Z"/><path fill="#fa759e" d="M38.48,21.183v9.841h9.77v-5.5a4.342,4.342,0,0,1,4.342-4.342H71.408a4.342,4.342,0,0,1,4.342,4.342v5.5h9.769V21.183A8.684,8.684,0,0,0,76.835,12.5H47.165A8.685,8.685,0,0,0,38.48,21.183Z"/><rect width="18.183" height="9.537" x="21.971" y="45.388" fill="#fa759e" rx="3" ry="3"/><rect width="18.183" height="9.537" x="83.846" y="45.388" fill="#fa759e" rx="3" ry="3"/><path fill="#3a2c60" d="M35.583,95.887a1,1,0,0,0,.293.707l10.515,10.515a1,1,0,0,0,1.414,0l4.493-4.494h0l5.952-5.952h0l2.975-2.975h0l.24-.24,12.779,12.779a4.015,4.015,0,0,0,5.674,0L87.242,98.9a4.017,4.017,0,0,0,0-5.674L74.462,80.45l4.617-4.617h0v0l7.469-7.468a1,1,0,0,0,0-1.414L76.036,56.435a1,1,0,0,0-1.414,0L62.534,68.522l-4.907-4.907a.967.967,0,0,0-.294-.2.866.866,0,0,0-.089-.035.924.924,0,0,0-.092-.036L41.925,59.708a1,1,0,0,0-1.2,1.2l3.645,15.224a.731.731,0,0,0,.036.092.844.844,0,0,0,.034.088.986.986,0,0,0,.2.294l4.907,4.907L35.876,95.18A1,1,0,0,0,35.583,95.887Zm31.594-8.151h0l5.87-5.871L82.3,91.118,72.134,101.286,62.88,92.033ZM85.828,97.49l-7.323,7.322a2.016,2.016,0,0,1-2.846,0L73.548,102.7,83.716,92.532l2.112,2.112A2.016,2.016,0,0,1,85.828,97.49ZM45.894,73.934l-2.206-9.213,2.046-2.046,9.215,2.2Zm.857,1.97L56.92,65.736l4.2,4.2L50.952,80.1ZM75.329,58.556l9.1,9.1-3.08,3.079L79.18,68.566a1,1,0,0,0-1.414,1.414l2.169,2.17-1.562,1.561-.979-.979a1,1,0,0,0-1.414,1.414l.979.979L75.4,76.687l-2.17-2.169a1,1,0,1,0-1.414,1.414L73.983,78.1l-1.561,1.562-.98-.979A1,1,0,1,0,70.028,80.1l.98.979-1.562,1.562-2.17-2.17a1,1,0,1,0-1.414,1.414l2.17,2.17L66.47,85.615l-.979-.98a1,1,0,0,0-1.414,1.414l.979.98-1.562,1.562-2.169-2.17a1,1,0,0,0-1.414,1.414l2.169,2.17-1.561,1.561-.979-.979A1,1,0,0,0,58.125,92l.979.979-1.561,1.562-2.17-2.169a1,1,0,0,0-1.414,1.414l2.17,2.169-1.562,1.562-.979-.979a1,1,0,0,0-1.414,1.414l.979.979-1.562,1.562-2.17-2.17a1,1,0,0,0-1.414,1.414l2.17,2.17L47.1,104.987l-9.1-9.1Z"/><path fill="#3a2c60" d="M39.833,110.5h-10a1,1,0,1,0,0,2h10a1,1,0,0,0,0-2Z"/><path fill="#3a2c60" d="M113,30.024H86.52V21.183A9.7,9.7,0,0,0,76.835,11.5H47.165a9.7,9.7,0,0,0-9.685,9.684v8.841H11a5.006,5.006,0,0,0-5,5v11.09a5.006,5.006,0,0,0,5,5h.428V107.5a5.006,5.006,0,0,0,5,5h9.134a1,1,0,0,0,0-2H16.428a3,3,0,0,1-3-3V51.114h7.543v.811a4,4,0,0,0,4,4H37.153a4,4,0,0,0,4-4v-.811H82.847v.811a4,4,0,0,0,4,4H99.029a4,4,0,0,0,4-4v-.811h7.543V107.5a3,3,0,0,1-3,3H44.166a1,1,0,0,0,0,2h63.406a5.006,5.006,0,0,0,5-5V51.114H113a5.006,5.006,0,0,0,5-5V35.024A5.006,5.006,0,0,0,113,30.024ZM39.48,21.183A7.694,7.694,0,0,1,47.165,13.5h29.67a7.694,7.694,0,0,1,7.685,7.684v8.841H76.75v-4.5a5.349,5.349,0,0,0-5.342-5.342H52.592a5.349,5.349,0,0,0-5.342,5.342v4.5H39.48Zm9.77,8.841v-4.5a3.347,3.347,0,0,1,3.342-3.342H71.408a3.347,3.347,0,0,1,3.342,3.342v4.5Zm-10.1,21.9a2,2,0,0,1-2,2H24.971a2,2,0,0,1-2-2V48.388a2,2,0,0,1,2-2H37.153a2,2,0,0,1,2,2Zm61.876,0a2,2,0,0,1-2,2H86.847a2,2,0,0,1-2-2V48.388a2,2,0,0,1,2-2H99.029a2,2,0,0,1,2,2ZM116,46.114a3,3,0,0,1-3,3h-9.971v-.726a4,4,0,0,0-4-4H86.847a4,4,0,0,0-4,4v.726H41.153v-.726a4,4,0,0,0-4-4H24.971a4,4,0,0,0-4,4v.726H11a3,3,0,0,1-3-3V35.024a3,3,0,0,1,3-3H113a3,3,0,0,1,3,3Z"/></svg>