<svg xmlns="http://www.w3.org/2000/svg"  viewBox="0 0 256 256" width="64px" height="64px"><polygon fill="#a4c9ff" points="157.363,176.745 132.925,176.745 108.486,176.745 92.925,236.123 132.925,236.123 172.925,236.123"/><path fill="#3762cc" d="M172.925,238.123h-80c-0.62,0-1.205-0.288-1.583-0.778c-0.379-0.491-0.509-1.129-0.352-1.729l15.561-59.378 c0.23-0.88,1.025-1.493,1.935-1.493h48.878c0.909,0,1.704,0.613,1.935,1.493l15.562,59.378c0.157,0.6,0.027,1.238-0.352,1.729 C174.13,237.835,173.545,238.123,172.925,238.123z M95.517,234.123h74.816l-14.513-55.378h-45.792L95.517,234.123z"/><path fill="#4671c6" d="M177.333,202.375H89.41v-37.507h87.923c3.314,0,6,2.686,6,6v25.507 C183.333,199.689,180.647,202.375,177.333,202.375z"/><path fill="#3762cc" d="M177.333,204.375H89.41c-1.104,0-2-0.896-2-2v-37.507c0-1.104,0.896-2,2-2h87.923c4.411,0,8,3.589,8,8 v25.507C185.333,200.787,181.744,204.375,177.333,204.375z M91.41,200.375h85.923c2.206,0,4-1.794,4-4v-25.507 c0-2.206-1.794-4-4-4H91.41V200.375z"/><path fill="#4671c6" d="M177.395,248H34.498c-3.28,0-5.938-2.659-5.938-5.938v0c0-3.28,2.659-5.938,5.938-5.938h142.897 c3.28,0,5.938,2.659,5.938,5.938v0C183.333,245.341,180.674,248,177.395,248z"/><path fill="#e0ebfc" d="M128.476,153.396c-2.667,4.619-6.155,8.458-10.162,11.472h40.746c15.971-33.145,3.919-73.5-28.463-92.196 l-0.05,0.085l-16.173,28.013c0,0,0,0,0,0C132.801,111.409,139.114,134.97,128.476,153.396z"/><path fill="#a4c9ff" d="M89.41,202.375h-9.411c-2.209,0-4-1.791-4-4l0-21.63l13.411,0L89.41,202.375z"/><path fill="#e0ebfc" d="M89.41,176.745l-75.472,0c-3.28,0-5.938-2.659-5.938-5.938v0c0-3.28,2.659-5.938,5.938-5.938l75.472,0 L89.41,176.745z"/><path fill="#a4c9ff" d="M127.507,29.196L107.751,17.79l4.725-8.183c0.787-1.364,2.531-1.831,3.895-1.044l14.817,8.555 c1.364,0.787,1.831,2.531,1.044,3.895L127.507,29.196z"/><path fill="#4671c6" d="M79.096,118.75l-24.695-14.258c-1.818-1.05-2.442-3.375-1.392-5.194l47.078-81.542 c1.05-1.818,3.375-2.442,5.194-1.392l24.695,14.258c1.818,1.05,2.442,3.375,1.392,5.194L84.29,117.358 C83.24,119.176,80.914,119.799,79.096,118.75z"/><path fill="#a4c9ff" d="M71.585,114.413l-9.672-5.584l-3.293-1.901l-5.727,12.348c-0.565,1.219-0.107,2.667,1.057,3.339l0.003,0.002 l9.672,5.584l0.003,0.002c1.163,0.672,2.647,0.344,3.42-0.755l7.83-11.134L71.585,114.413z"/><path fill="#3762cc" d="M127.505,31.197c-0.339,0-0.683-0.086-0.998-0.269l-19.756-11.406c-0.459-0.265-0.795-0.702-0.932-1.214 c-0.138-0.512-0.065-1.058,0.199-1.518l4.725-8.183c1.337-2.316,4.312-3.113,6.627-1.776l14.817,8.555 c2.316,1.337,3.113,4.31,1.776,6.627l-4.725,8.184C128.868,30.838,128.196,31.197,127.505,31.197z M110.483,17.058l16.291,9.406 l3.725-6.451c0.235-0.407,0.095-0.929-0.312-1.164l-14.816-8.555c-0.406-0.234-0.929-0.095-1.163,0.312L110.483,17.058z"/><path fill="#3762cc" d="M80.986,121.257c-0.983,0-1.979-0.25-2.891-0.776L53.4,106.224c-1.342-0.775-2.302-2.026-2.703-3.523 c-0.401-1.497-0.195-3.06,0.579-4.402l47.079-81.542c0.775-1.342,2.026-2.302,3.523-2.704c1.498-0.4,3.061-0.195,4.402,0.58 l24.695,14.258c1.342,0.775,2.302,2.026,2.703,3.523s0.195,3.061-0.579,4.403l-47.078,81.542 C84.948,120.217,82.993,121.257,80.986,121.257z M80.096,117.018c0.861,0.497,1.966,0.201,2.463-0.66l47.077-81.542 c0.241-0.417,0.305-0.902,0.181-1.368c-0.125-0.465-0.423-0.854-0.84-1.094l-24.695-14.258c-0.418-0.241-0.904-0.303-1.367-0.18 c-0.465,0.125-0.854,0.423-1.094,0.84l-47.079,81.542c-0.497,0.86-0.201,1.964,0.659,2.461L80.096,117.018z"/><path fill="#3762cc" d="M64.935,130.558c-0.784,0-1.579-0.202-2.308-0.624c-0.009-0.005-0.018-0.01-0.025-0.015l-9.649-5.571 c-0.011-0.006-0.021-0.012-0.031-0.019c-2.054-1.204-2.847-3.732-1.843-5.896l5.727-12.348c0.236-0.509,0.676-0.896,1.211-1.065 s1.116-0.106,1.604,0.175l12.966,7.485l0,0l3.292,1.901c0.486,0.281,0.832,0.753,0.953,1.301s0.006,1.122-0.317,1.581 l-7.83,11.134C67.789,129.87,66.38,130.558,64.935,130.558z M64.64,126.478c0.268,0.147,0.596,0.07,0.771-0.18l6.572-9.346 l-12.47-7.199l-4.807,10.364c-0.131,0.282-0.026,0.61,0.241,0.765c0.009,0.005,0.018,0.01,0.026,0.016l9.649,5.571 C64.629,126.472,64.634,126.475,64.64,126.478z"/><path fill="#f9a7a7" d="M114.375,100.771l-17.144-9.898c-7.735-4.466-10.386-14.357-5.92-22.093l0,0 c4.466-7.735,14.357-10.386,22.093-5.92l17.144,9.898L114.375,100.771z"/><circle cx="106.886" cy="77.772" r="8.569" fill="#f9cfcf"/><path fill="#3762cc" d="M114.375,102.771c-0.348,0-0.693-0.091-1-0.268L96.23,92.604c-8.678-5.01-11.662-16.147-6.652-24.825 c5.011-8.676,16.145-11.663,24.825-6.652l17.145,9.898c0.957,0.552,1.284,1.775,0.732,2.732l-16.173,28.013 c-0.266,0.459-0.702,0.794-1.215,0.932C114.723,102.749,114.548,102.771,114.375,102.771z M105.342,62.696 c-4.903,0-9.677,2.542-12.299,7.083c-3.907,6.768-1.58,15.453,5.188,19.361l15.412,8.898l14.173-24.549l-15.412-8.898 C110.178,63.307,107.743,62.696,105.342,62.696z"/><path fill="#3762cc" d="M106.883,88.342c-0.902,0-1.819-0.117-2.732-0.361c-2.728-0.73-5.006-2.479-6.418-4.924 c-1.411-2.445-1.786-5.293-1.055-8.021c0.73-2.727,2.479-5.005,4.924-6.417c2.445-1.412,5.295-1.787,8.02-1.056 c5.629,1.508,8.981,7.314,7.474,12.944C115.831,85.224,111.55,88.342,106.883,88.342z M106.875,71.2 c-1.139,0-2.262,0.298-3.273,0.883c-1.52,0.877-2.606,2.294-3.061,3.989c-0.454,1.695-0.222,3.465,0.656,4.985 c0.877,1.52,2.294,2.606,3.988,3.061c3.505,0.937,7.109-1.147,8.046-4.646c0.454-1.695,0.221-3.465-0.656-4.985 c-0.878-1.52-2.294-2.606-3.989-3.061C108.02,71.275,107.445,71.2,106.875,71.2z"/><path fill="#3762cc" d="M159.061,166.868h-40.746c-0.86,0-1.624-0.55-1.896-1.366c-0.273-0.816,0.007-1.715,0.694-2.232 c3.935-2.96,7.176-6.619,9.632-10.874l0,0c10.069-17.441,4.072-39.824-13.369-49.894c-0.957-0.552-1.284-1.775-0.732-2.732 l16.173-28.012c0.002-0.002,0.053-0.09,0.055-0.093c0.554-0.951,1.771-1.276,2.728-0.725 c32.877,18.981,45.731,60.621,29.265,94.795C160.529,166.428,159.829,166.868,159.061,166.868z M123.683,162.868h34.109 c14.466-31.478,2.971-69.277-26.477-87.438l-14.232,24.65c18.025,11.617,23.962,35.545,13.126,54.316l0,0 C128.404,157.521,126.22,160.356,123.683,162.868z M128.477,153.396h0.01H128.477z"/><circle cx="195.5" cy="93.463" r="52.5" fill="#6bdddd"/><circle cx="195.5" cy="93.463" r="39" fill="#ffea92"/><path fill="#3762cc" d="M195.5,147.963c-30.052,0-54.5-24.449-54.5-54.5s24.448-54.5,54.5-54.5s54.5,24.449,54.5,54.5 S225.552,147.963,195.5,147.963z M195.5,42.963c-27.846,0-50.5,22.654-50.5,50.5s22.654,50.5,50.5,50.5s50.5-22.654,50.5-50.5 S223.346,42.963,195.5,42.963z"/><path fill="#f9a7a7" d="M191.132,119.822c-3.71,0-7.277-1.752-9.543-4.687l-16.572-21.454c-1.204-1.558-1.729-3.491-1.478-5.443 c0.25-1.952,1.246-3.69,2.804-4.894c1.303-1.006,2.859-1.538,4.5-1.538c2.304,0,4.432,1.045,5.837,2.865l14.324,18.543 l36.604-53.165c1.375-1.998,3.647-3.19,6.079-3.19c1.493,0,2.934,0.449,4.168,1.299c3.348,2.305,4.196,6.902,1.892,10.25 l-38.69,56.196c-2.175,3.16-5.764,5.108-9.599,5.213L191.132,119.822z"/><circle cx="132.925" cy="183.622" r="28.83" fill="#f9a7a7"/><circle cx="132.925" cy="183.622" r="17.298" fill="#f9cfcf"/><path fill="#3762cc" d="M132.925,214.452c-17,0-30.83-13.83-30.83-30.83s13.83-30.831,30.83-30.831s30.83,13.831,30.83,30.831 S149.925,214.452,132.925,214.452z M132.925,156.792c-14.794,0-26.83,12.036-26.83,26.831c0,14.794,12.036,26.83,26.83,26.83 s26.83-12.036,26.83-26.83C159.755,168.828,147.719,156.792,132.925,156.792z"/><path fill="#3762cc" d="M132.925,202.92c-10.642,0-19.299-8.657-19.299-19.298s8.657-19.298,19.299-19.298 c10.641,0,19.298,8.657,19.298,19.298S143.565,202.92,132.925,202.92z M132.925,168.324c-8.436,0-15.299,6.863-15.299,15.298 c0,8.435,6.863,15.298,15.299,15.298s15.298-6.863,15.298-15.298C148.223,175.187,141.36,168.324,132.925,168.324z"/><path fill="#3762cc" d="M177.395,250H34.498c-4.377,0-7.938-3.561-7.938-7.938s3.562-7.938,7.938-7.938h142.896 c4.377,0,7.938,3.561,7.938,7.938S181.771,250,177.395,250z M34.498,238.123c-2.172,0-3.938,1.767-3.938,3.938 S32.326,246,34.498,246h142.896c2.172,0,3.938-1.767,3.938-3.938s-1.767-3.938-3.938-3.938H34.498z"/><g><path fill="#3762cc" d="M89.409,204.375h-9.41c-3.309,0-6-2.691-6-6v-21.63c0-1.104,0.896-2,2-2h13.41c1.104,0,2,0.896,2,2v25.63 C91.409,203.48,90.514,204.375,89.409,204.375z M77.999,178.746v19.63c0,1.103,0.897,2,2,2h7.41v-21.63H77.999z"/></g><g><path fill="#3762cc" d="M89.41,178.745H13.938c-4.377,0-7.938-3.561-7.938-7.938c0-4.377,3.562-7.938,7.938-7.938l75.472,0 c0.53,0,1.039,0.211,1.414,0.586s0.586,0.884,0.586,1.414v11.877C91.41,177.85,90.515,178.745,89.41,178.745z M87.41,166.868 l-73.472,0c-2.172,0-3.938,1.767-3.938,3.938c0,2.172,1.767,3.938,3.938,3.938H87.41V166.868z"/></g></svg>