<svg fill="#000000" xmlns="http://www.w3.org/2000/svg"  viewBox="0 0 60 60" width="60px" height="60px"><path d="M 4 0 A 4 4 0 0 0 0 4 L 0 56 A 4 4 0 0 0 4 60 L 56 60 A 4 4 0 0 0 60 56 L 60 4 A 4 4 0 0 0 56 0 L 4 0 z M 4 2 L 56 2 A 2 2 0 0 1 58 4 L 58 8 L 2 8 L 2 4 A 2 2 0 0 1 4 2 z M 5 4 A 1 1 0 0 0 5 6 L 6 6 A 1 1 0 0 0 6 4 L 5 4 z M 10 4 A 1 1 0 0 0 10 6 L 11 6 A 1 1 0 0 0 11 4 L 10 4 z M 15 4 A 1 1 0 0 0 15 6 L 16 6 A 1 1 0 0 0 16 4 L 15 4 z M 49 4 A 1 1 0 0 0 49 6 L 55 6 A 1 1 0 0 0 55 4 L 49 4 z M 2 10 L 58 10 L 58 56 A 2 2 0 0 1 56 58 L 4 58 A 2 2 0 0 1 2 56 L 2 10 z M 22 14 A 3 3 0 0 0 19 17 L 19 25 A 3 3 0 0 0 22 28 L 29 28 L 29 33 L 15 33 A 3 3 0 0 0 12 36 L 12 40 L 9 40 A 3 3 0 0 0 6 43 L 6 51 A 3 3 0 0 0 9 54 L 17 54 A 3 3 0 0 0 20 51 L 20 43 A 3 3 0 0 0 17 40 L 14 40 L 14 36 A 1 1 0 0 1 15 35 L 29 35 L 29 40 L 26 40 A 3 3 0 0 0 23 43 L 23 51 A 3 3 0 0 0 26 54 L 34 54 A 3 3 0 0 0 37 51 L 37 43 A 3 3 0 0 0 34 40 L 31 40 L 31 35 L 45 35 A 1 1 0 0 1 46 36 L 46 40 L 43 40 A 3 3 0 0 0 40 43 L 40 51 A 3 3 0 0 0 43 54 L 51 54 A 3 3 0 0 0 54 51 L 54 43 A 3 3 0 0 0 51 40 L 48 40 L 48 36 A 3 3 0 0 0 45 33 L 31 33 L 31 28 L 38 28 A 3 3 0 0 0 41 25 L 41 17 A 3 3 0 0 0 38 14 L 22 14 z M 22 16 L 38 16 A 1 1 0 0 1 39 17 L 39 25 A 1 1 0 0 1 38 26 L 22 26 A 1 1 0 0 1 21 25 L 21 17 A 1 1 0 0 1 22 16 z M 9 42 L 17 42 A 1 1 0 0 1 18 43 L 18 51 A 1 1 0 0 1 17 52 L 9 52 A 1 1 0 0 1 8 51 L 8 43 A 1 1 0 0 1 9 42 z M 26 42 L 34 42 A 1 1 0 0 1 35 43 L 35 51 A 1 1 0 0 1 34 52 L 26 52 A 1 1 0 0 1 25 51 L 25 43 A 1 1 0 0 1 26 42 z M 43 42 L 51 42 A 1 1 0 0 1 52 43 L 52 51 A 1 1 0 0 1 51 52 L 43 52 A 1 1 0 0 1 42 51 L 42 43 A 1 1 0 0 1 43 42 z"/></svg>