<svg xmlns="http://www.w3.org/2000/svg" width="100" height="100" viewBox="0 0 100 100"><path fill="#fefdef" d="M78.531,73.183H25.039c-3.85,0-7-3.15-7-7v-39.5c0-3.85,3.15-7,7-7h53.492c3.85,0,7,3.15,7,7v39.5C85.531,70.033,82.381,73.183,78.531,73.183z"/><path fill="#ceccbe" d="M78.583,19.683H24.987c-3.821,0-6.948,3.081-6.948,6.847v3.424h67.492V26.53C85.531,22.764,82.404,19.683,78.583,19.683z"/><path fill="#f37e98" d="M26.031 23.183A2 2 0 1 0 26.031 27.183A2 2 0 1 0 26.031 23.183Z"/><path fill="#f9e65c" d="M33.031 23.183A2 2 0 1 0 33.031 27.183A2 2 0 1 0 33.031 23.183Z"/><path fill="#a1d3a2" d="M40.031 23.183A2 2 0 1 0 40.031 27.183A2 2 0 1 0 40.031 23.183Z"/><path fill="#7783ad" d="M76.531 48.004000000000005A14.391 14.391 0 1 0 76.531 76.786A14.391 14.391 0 1 0 76.531 48.004000000000005Z"/><path fill="#fefdef" d="M82.813,62.3c-0.02-0.935,0.486-1.527,1.334-1.855c-0.052-0.511-0.646-1.946-0.947-2.288c-0.813,0.381-1.584,0.323-2.232-0.317c-0.659-0.65-0.711-1.429-0.328-2.259c-0.715-0.44-1.481-0.758-2.3-0.948c-0.277,0.806-0.814,1.311-1.657,1.373c-0.998,0.074-1.645-0.443-1.988-1.365c-0.819,0.201-1.583,0.517-2.291,0.961c0.39,0.823,0.339,1.593-0.301,2.244c-0.649,0.66-1.425,0.721-2.258,0.337c-0.434,0.715-0.746,1.479-0.933,2.298c0.833,0.305,1.335,0.877,1.356,1.763c0.022,0.922-0.475,1.525-1.331,1.858c0.197,0.812,0.518,1.568,0.961,2.276c0.808-0.36,1.563-0.3,2.2,0.319c0.649,0.631,0.728,1.394,0.369,2.218c0.715,0.435,1.475,0.745,2.289,0.933c0.012-0.024,0.021-0.039,0.027-0.054c0.294-0.767,0.962-1.257,1.726-1.267c0.817-0.01,1.494,0.445,1.807,1.224c0.034,0.085,0.073,0.083,0.146,0.065c0.736-0.186,1.431-0.473,2.083-0.862c0.036-0.021,0.069-0.046,0.098-0.064c-0.331-0.748-0.301-1.457,0.229-2.075c0.637-0.742,1.438-0.851,2.329-0.472c0.44-0.711,0.756-1.468,0.949-2.279C83.329,63.749,82.832,63.187,82.813,62.3z M76.527,64.602c-1.312-0.006-2.368-1.069-2.362-2.376c0.006-1.31,1.074-2.361,2.396-2.349c1.32,0.013,2.373,1.107,2.336,2.432C78.861,63.541,77.859,64.595,76.527,64.602z"/><path fill="#1f212b" d="M65.476 30.969h6c.276 0 .5-.224.5-.5s-.224-.5-.5-.5h-6c-.276 0-.5.224-.5.5S65.2 30.969 65.476 30.969zM26.476 22.969c-1.378 0-2.5 1.122-2.5 2.5s1.122 2.5 2.5 2.5 2.5-1.122 2.5-2.5S27.855 22.969 26.476 22.969zM26.476 26.969c-.827 0-1.5-.673-1.5-1.5s.673-1.5 1.5-1.5 1.5.673 1.5 1.5S27.304 26.969 26.476 26.969zM33.476 22.969c-1.378 0-2.5 1.122-2.5 2.5s1.122 2.5 2.5 2.5 2.5-1.122 2.5-2.5S34.855 22.969 33.476 22.969zM33.476 26.969c-.827 0-1.5-.673-1.5-1.5s.673-1.5 1.5-1.5 1.5.673 1.5 1.5S34.304 26.969 33.476 26.969zM40.476 22.969c-1.378 0-2.5 1.122-2.5 2.5s1.122 2.5 2.5 2.5 2.5-1.122 2.5-2.5S41.855 22.969 40.476 22.969zM40.476 26.969c-.827 0-1.5-.673-1.5-1.5s.673-1.5 1.5-1.5 1.5.673 1.5 1.5S41.304 26.969 40.476 26.969z"/><path fill="#1f212b" d="M86.976,51.1V25.969c0-4.411-3.589-8-8-8h-54c-4.411,0-8,3.589-8,8v40c0,0.135,0.014,0.266,0.02,0.4c-0.007,0.034-0.02,0.065-0.02,0.1c0,0.06,0.015,0.115,0.034,0.168c0.341,4.099,3.781,7.332,7.966,7.332h41.144c2.748,2.477,6.373,4,10.356,4c8.547,0,15.5-6.953,15.5-15.5C91.976,57.974,90.042,53.933,86.976,51.1z M19.067,66.969h30.41c0.276,0,0.5-0.224,0.5-0.5s-0.224-0.5-0.5-0.5h-30.5v-35h43.5c0.276,0,0.5-0.224,0.5-0.5s-0.224-0.5-0.5-0.5h-43.5v-4c0-3.309,2.691-6,6-6h54c3.309,0,6,2.691,6,6v4h-8.5c-0.276,0-0.5,0.224-0.5,0.5s0.224,0.5,0.5,0.5h8.5v18.553c-2.443-1.609-5.362-2.553-8.5-2.553c-8.547,0-15.5,6.953-15.5,15.5c0,3.581,1.232,6.873,3.279,9.5H24.976C22.009,71.969,19.545,69.802,19.067,66.969z M76.476,75.969c-7.444,0-13.5-6.056-13.5-13.5s6.056-13.5,13.5-13.5s13.5,6.056,13.5,13.5S83.92,75.969,76.476,75.969z"/><path fill="#1f212b" d="M57.476 65.969h-5c-.276 0-.5.224-.5.5s.224.5.5.5h5c.276 0 .5-.224.5-.5S57.753 65.969 57.476 65.969zM84.305 63.561c-.679-.26-1.002-.675-1.015-1.307-.014-.667.309-1.105 1.015-1.379.21-.082.339-.293.317-.517-.062-.614-.702-2.15-1.069-2.567-.147-.168-.387-.217-.587-.123-.668.314-1.199.244-1.669-.22-.471-.465-.543-1.004-.225-1.694.106-.23.023-.503-.192-.635-.763-.469-1.586-.809-2.448-1.009-.251-.057-.503.082-.586.324-.228.663-.616.993-1.221 1.037-.727.053-1.199-.277-1.482-1.041-.088-.237-.336-.371-.588-.312-.875.215-1.695.559-2.437 1.023-.215.134-.295.409-.187.638.32.677.255 1.21-.206 1.68-.468.476-1.007.549-1.693.234-.231-.107-.505-.022-.636.194-.461.759-.796 1.582-.993 2.446-.056.245.079.494.315.581.687.252 1.014.667 1.029 1.306.016.667-.306 1.105-1.012 1.38-.234.091-.364.34-.305.584.208.854.552 1.669 1.023 2.422.132.211.4.293.627.191.664-.296 1.188-.225 1.647.221.471.458.553.985.259 1.66-.1.229-.015.497.199.627.757.46 1.577.795 2.436.994.034.007.067.011.101.011.188 0 .373-.115.464-.283.01-.019.035-.071.042-.091.221-.576.706-.938 1.266-.946.567.01 1.101.324 1.337.91.097.241.342.461.732.363.781-.197 1.527-.506 2.214-.916l.121-.079c.203-.135.278-.396.18-.618-.273-.617-.225-1.109.151-1.547.466-.542 1.022-.648 1.753-.338.226.098.491.014.621-.197.467-.755.808-1.572 1.01-2.427C84.671 63.899 84.539 63.65 84.305 63.561zM82.953 65.698c-.962-.267-1.831-.006-2.484.754-.538.626-.693 1.374-.461 2.182-.444.241-.913.435-1.401.58-.437-.774-1.195-1.209-2.127-1.224-.836.011-1.594.482-2.022 1.233-.485-.141-.955-.332-1.402-.572.253-.892.039-1.698-.632-2.35-.654-.636-1.453-.831-2.329-.574-.245-.443-.441-.907-.587-1.387.834-.458 1.26-1.192 1.238-2.145-.022-.912-.458-1.608-1.267-2.036.139-.482.329-.949.565-1.393.907.278 1.726.071 2.393-.606.659-.67.851-1.486.567-2.38.437-.239.901-.433 1.388-.581.479.896 1.284 1.342 2.305 1.269.862-.063 1.515-.502 1.912-1.278.48.142.945.333 1.389.574-.28.908-.078 1.729.596 2.396.663.653 1.497.851 2.384.574.194.367.446.968.572 1.389-.846.457-1.28 1.193-1.26 2.151.019.901.447 1.596 1.245 2.031C83.391 64.787 83.196 65.253 82.953 65.698z"/><path fill="#1f212b" d="M76.542,59.342c-0.752-0.004-1.503,0.286-2.051,0.826c-0.544,0.537-0.846,1.254-0.85,2.021c-0.003,0.767,0.292,1.488,0.833,2.031c0.54,0.543,1.26,0.844,2.027,0.847c0.002,0,0.003,0,0.005,0c1.562-0.009,2.821-1.229,2.866-2.779c0.022-0.776-0.262-1.511-0.799-2.07C78.037,59.66,77.315,59.349,76.542,59.342z M76.503,64.066c-0.5-0.003-0.969-0.199-1.32-0.552c-0.352-0.354-0.544-0.823-0.542-1.321c0.002-0.498,0.198-0.964,0.552-1.313c0.352-0.348,0.82-0.538,1.32-0.538c0.006,0,0.013,0,0.019,0c0.503,0.005,0.972,0.207,1.321,0.569c0.35,0.364,0.534,0.842,0.52,1.348C78.344,63.266,77.523,64.059,76.503,64.066z"/></svg>