<svg xmlns="http://www.w3.org/2000/svg"  viewBox="0 0 64 64" width="64px" height="64px"><path fill="#a8dba8" d="M41,11H36v5a2,2,0,0,1-2,2H14a2,2,0,0,1-2-2V11H7a4,4,0,0,0-4,4V57a4,4,0,0,0,4,4H41a4,4,0,0,0,4-4V15A4,4,0,0,0,41,11Z"/><path fill="#79bd9a" d="M36,16v1a2,2,0,0,1-2,2H14a2,2,0,0,1-2-2V16H7A2,2,0,0,0,5,18v39.01A2,2,0,0,0,7,59H39a2,2,0,0,0,2-2V16Z"/><path fill="#cff09e" d="M36,15v1a2,2,0,0,1-2,2H14a2,2,0,0,1-2-2V15H7V57H41V15Z"/><path fill="#a8dba8" d="M12.09,36.572A70.764,70.764,0,0,1,7,21.32V57H26.52A63.854,63.854,0,0,1,12.09,36.572Z"/><path fill="#79bd9a" d="M11,10H36a1,1,0,0,1,1,1v5a4,4,0,0,1-4,4H14a4,4,0,0,1-4-4V11a1,1,0,0,1,1-1Z"/><rect width="24" height="10" x="12" y="8" fill="#a8dba8" rx="2" ry="2"/><path fill="#79bd9a" d="M14.258,8H14a2,2,0,0,0-2,2v6a2,2,0,0,0,2,2H33.5C23.761,18,15.713,13.663,14.258,8Z"/><path fill="#79bd9a" d="M33.5,18H34a1.939,1.939,0,0,0,.218-.022C33.978,17.984,33.743,18,33.5,18Z"/><path fill="#a8dba8" d="M20,4h8a2,2,0,0,1,2,2V8a0,0,0,0,1,0,0H18a0,0,0,0,1,0,0V6A2,2,0,0,1,20,4Z"/><path fill="#79bd9a" d="M21.143,4H20a2,2,0,0,0-2,2V8h7.253C23.11,7.1,21.586,5.667,21.143,4Z"/><circle cx="28" cy="44" r="9" fill="#a8dba8"/><polygon fill="#a8dba8" points="51 14 51 43 52 50 56 50 57 43 57 14 51 14"/><polygon fill="#79bd9a" points="53 14 51 14 51 43 52 50 54 50 53 43 53 14"/><path fill="#cff09e" d="M52,50h4a0,0,0,0,1,0,0v3a2,2,0,0,1-2,2h0a2,2,0,0,1-2-2V50A0,0,0,0,1,52,50Z"/><path fill="#a8dba8" d="M54,53V50H52v3a2,2,0,0,0,2,2,1.977,1.977,0,0,0,1-.277A1.993,1.993,0,0,1,54,53Z"/><rect width="10" height="4" x="51" y="18" fill="#cff09e"/><path fill="#cff09e" d="M54,8h0a2,2,0,0,1,2,2v4a0,0,0,0,1,0,0H52a0,0,0,0,1,0,0V10A2,2,0,0,1,54,8Z"/><rect width="6" height="4" x="51" y="21" fill="#79bd9a"/><rect width="3" height="4" x="51" y="18" fill="#a8dba8"/><path fill="#a8dba8" d="M55,8.278A1.978,1.978,0,0,0,54,8a2,2,0,0,0-2,2v4h2V10A1.991,1.991,0,0,1,55,8.278Z"/><path fill="#3b8686" d="M41,9H37a3,3,0,0,0-3-3H31V5a3,3,0,0,0-3-3H20a3,3,0,0,0-3,3V6H14a3,3,0,0,0-3,3H7a5.006,5.006,0,0,0-5,5V57a5.006,5.006,0,0,0,5,5H41a5.006,5.006,0,0,0,5-5V14A5.006,5.006,0,0,0,41,9ZM14,18H34a3,3,0,0,0,3-3h3V56H8V15h3A3,3,0,0,0,14,18ZM19,5a1,1,0,0,1,1-1h8a1,1,0,0,1,1,1V6H19ZM13,9a1,1,0,0,1,1-1H34a1,1,0,0,1,1,1v6a1,1,0,0,1-1,1H14a1,1,0,0,1-1-1V9ZM44,57a3,3,0,0,1-3,3H7a3,3,0,0,1-3-3V14a3,3,0,0,1,3-3h4v2H7a1,1,0,0,0-1,1V57a1,1,0,0,0,1,1H41a1,1,0,0,0,1-1V14a1,1,0,0,0-1-1H37V11h4a3,3,0,0,1,3,3Z"/><path fill="#3b8686" d="M16,13H32a1,1,0,0,0,0-2H16a1,1,0,0,0,0,2Z"/><path fill="#3b8686" d="M31.778,40.636l-4.949,4.95-2.122-2.121a1,1,0,1,0-1.414,1.414l2.829,2.828a1,1,0,0,0,1.414,0l5.656-5.657a1,1,0,0,0-1.414-1.414Z"/><path fill="#3b8686" d="M28,34A10,10,0,1,0,38,44,10.012,10.012,0,0,0,28,34Zm0,18a8,8,0,1,1,8-8A8.009,8.009,0,0,1,28,52Z"/><path fill="#3b8686" d="M20,23H30a1,1,0,0,0,0-2H20a1,1,0,0,0,0,2Z"/><path fill="#3b8686" d="M12,28H30a1,1,0,0,0,0-2H12a1,1,0,0,0,0,2Z"/><path fill="#3b8686" d="M12,33h9a1,1,0,0,0,0-2H12a1,1,0,0,0,0,2Z"/><path fill="#3b8686" d="M16,36H12a1,1,0,0,0,0,2h4a1,1,0,0,0,0-2Z"/><path fill="#3b8686" d="M14,41H12a1,1,0,0,0,0,2h2a1,1,0,0,0,0-2Z"/><path fill="#3b8686" d="M34,28h2a1,1,0,0,0,0-2H34a1,1,0,0,0,0,2Z"/><circle cx="36" cy="22" r="1" fill="#3b8686"/><path fill="#3b8686" d="M61,17H58V14a1,1,0,0,0-1-1V10a3,3,0,0,0-6,0v3a1,1,0,0,0-1,1V43c0,.027.013.049.015.075s-.008.044-.005.067L51,50.07V53a3,3,0,0,0,6,0V50.07l.99-6.928c0-.023-.007-.044-.005-.067S58,43.027,58,43V23h2v9a1,1,0,0,0,2,0V18A1,1,0,0,0,61,17Zm-1,4H52V19h8ZM55.133,49H52.867l-.714-5h3.694ZM52,17V15h4v2Zm1-7a1,1,0,0,1,2,0v3H53Zm2,43a1,1,0,0,1-2,0V51h2Zm1-11H52V23h4Z"/></svg>