<svg fill="#000000" xmlns="http://www.w3.org/2000/svg"  viewBox="0 0 50 50" width="50px" height="50px"><path d="M 24 0 C 21.802706 0 20 1.8027056 20 4 L 20 4.5605469 C 19.40837 4.2136432 18.730674 4 18 4 C 15.802706 4 14 5.8027056 14 8 L 14 26.59375 C 10.818518 27.920446 8.9535241 31.487155 9.9511719 34.974609 L 12.587891 44.197266 C 13.567923 47.62747 16.711838 50.000162 20.279297 50 L 25 50 L 31 50 C 35.958718 50 40 45.958718 40 41 L 40 11 C 40 8.8027056 38.197294 7 36 7 C 33.802706 7 32 8.8027056 32 11 L 32 13.560547 C 31.40837 13.213643 30.730674 13 30 13 C 29.269326 13 28.59163 13.213643 28 13.560547 L 28 4 C 28 1.8027056 26.197294 0 24 0 z M 24 2 C 25.116414 2 26 2.8835859 26 4 L 26 17 L 26 22 L 26 24.775391 L 22 25.296875 L 22 23 L 22 15 L 22 8 L 22 5 L 22 4 C 22 2.8835859 22.883586 2 24 2 z M 18 6 C 19.116414 6 20 6.8835859 20 8 L 20 15 L 20 23 L 20 25.556641 L 16 26.078125 L 16 8 C 16 6.8835859 16.883586 6 18 6 z M 36 9 C 37.116414 9 38 9.8835859 38 11 L 38 41 C 38 44.877838 34.877838 48 31 48 L 25 48 L 20.279297 48 C 17.595758 48.000122 15.246972 46.228729 14.509766 43.648438 L 11.875 34.425781 C 11.029031 31.468546 12.985038 28.488893 16.035156 28.091797 A 1.0001 1.0001 0 0 0 16.037109 28.091797 L 29.076172 26.392578 A 1.0001 1.0001 0 0 0 29.076172 26.390625 C 29.658452 26.314585 30.407244 26.484414 30.984375 26.835938 C 31.543789 27.176665 31.903721 27.644473 32 28.119141 L 32 28.648438 C 31.940813 28.989928 31.775832 29.341764 31.494141 29.675781 C 31.076425 30.17109 30.435164 30.567181 29.855469 30.699219 A 1.0001 1.0001 0 0 0 29.853516 30.699219 L 19.775391 33.025391 A 1.0001 1.0001 0 0 0 19.105469 34.447266 L 21.105469 38.447266 A 1.0001163 1.0001163 0 1 0 22.894531 37.552734 L 21.570312 34.904297 C 25.329869 36.789784 27 39.340239 27 42 A 1.0001 1.0001 0 1 0 29 42 C 29 38.974146 27.276786 36.152866 24.119141 34.076172 L 30.300781 32.648438 C 31.363086 32.406475 32.321404 31.797285 33.023438 30.964844 C 33.48874 30.413108 33.841458 29.73706 33.972656 29 L 34 29 L 34 28.822266 C 34.03504 28.544584 34.036538 28.259113 34 27.96875 L 34 17 L 34 11 C 34 9.8835859 34.883586 9 36 9 z M 30 15 C 31.116414 15 32 15.883586 32 17 L 32 23 L 32 25.115234 C 31.05126 24.54431 29.926453 24.263499 28.818359 24.408203 L 28 24.515625 L 28 22 L 28 17 C 28 15.883586 28.883586 15 30 15 z"/></svg>