<svg fill="#000000" xmlns="http://www.w3.org/2000/svg"  viewBox="0 0 493.066 493.066" width="60px" height="60px"><path d="M 8 6.5332031 C 3.582 6.5332031 0 10.115203 0 14.533203 C 0 18.951203 3.582 22.533203 8 22.533203 L 282.27734 22.533203 L 290.42188 127.39453 L 175.95117 139.48633 L 59.580078 126.44531 L 65.003906 57.205078 C 65.348906 52.800078 62.057344 48.950469 57.652344 48.605469 C 53.234344 48.259469 49.395781 51.550078 49.050781 55.955078 L 43.023438 132.9082 C 42.686437 137.2092 45.821375 141.00338 50.109375 141.48438 L 68 143.48828 L 68 203.62891 C 62.656 200.85691 59 195.34019 59 188.99219 L 59 173.5332 C 59 169.1152 55.418 165.5332 51 165.5332 C 46.582 165.5332 43 169.1152 43 173.5332 L 43 188.99219 C 43 204.30319 53.718609 217.17019 68.099609 220.61719 C 68.993609 244.72619 77.995609 267.90191 93.724609 286.25391 C 96.590609 289.59791 101.63986 290.00509 105.00586 287.12109 C 108.35986 284.24609 108.74805 279.1968 105.87305 275.8418 C 91.768047 259.3858 84 238.3662 84 216.6582 L 84 145.28125 C 181.425 156.19925 175.48663 155.62328 176.76562 155.48828 L 266 146.0625 L 266 216.6582 C 266 281.6792 199.36508 325.80177 139.58008 300.50977 C 133.16908 297.79877 126.62473 304.02311 128.92773 310.53711 C 127.94473 329.21411 115.72948 345.57756 97.896484 351.72656 L 54.789062 366.58984 C 29.788063 375.25584 13 398.83964 13 425.30664 L 13 478.5332 C 13 482.9512 16.582 486.5332 21 486.5332 C 25.418 486.5332 29 482.9512 29 478.5332 L 29 425.30664 C 29 405.63564 41.489031 388.10945 60.082031 381.68945 L 86.113281 372.71484 L 167 434.25195 L 167 478.5332 C 167 482.9512 170.582 486.5332 175 486.5332 C 179.418 486.5332 183 482.9512 183 478.5332 L 183 434.25195 L 232.10156 396.89648 C 235.61856 394.22148 236.29805 389.20255 233.62305 385.68555 C 230.94705 382.16855 225.92911 381.48711 222.41211 384.16211 L 183 414.14844 L 183 378.25781 L 225.9082 354.58984 C 231.9042 359.91284 238.98667 364.12852 246.88867 366.85352 C 251.05067 368.28952 255.61359 366.08844 257.05859 361.89844 C 258.49759 357.72144 256.28052 353.16756 252.10352 351.72656 C 235.09952 345.86356 223.2003 330.71205 221.2793 313.12305 C 256.9983 295.91805 281.75905 259.44934 281.99805 217.27734 C 281.99905 217.22134 282.00195 144.37305 282.00195 144.37305 L 291.00195 143.42383 L 291.00195 188.5332 C 291.00195 192.9512 294.58395 196.5332 299.00195 196.5332 C 303.41995 196.5332 307.00195 192.9512 307.00195 188.5332 C 307.00195 129.3782 307.00938 134.8417 306.98438 134.2207 C 306.95837 133.5827 305.94117 120.5852 298.32617 22.533203 L 321 22.533203 L 321 78.533203 C 321 82.951203 324.582 86.533203 329 86.533203 C 333.418 86.533203 337 82.951203 337 78.533203 L 337 22.533203 L 342 22.533203 C 346.418 22.533203 350 18.951203 350 14.533203 C 350 10.115203 346.418 6.5332031 342 6.5332031 L 8 6.5332031 z M 150 183.5332 C 145.582 183.5332 142 187.1152 142 191.5332 L 142 205.5332 C 142 209.9512 145.582 213.5332 150 213.5332 C 154.418 213.5332 158 209.9512 158 205.5332 L 158 191.5332 C 158 187.1152 154.418 183.5332 150 183.5332 z M 200 183.5332 C 195.582 183.5332 192 187.1152 192 191.5332 L 192 205.5332 C 192 209.9512 195.582 213.5332 200 213.5332 C 204.418 213.5332 208 209.9512 208 205.5332 L 208 191.5332 C 208 187.1152 204.418 183.5332 200 183.5332 z M 371 223.5332 C 315.309 223.5332 270 268.8412 270 324.5332 C 270 346.0632 276.75942 366.25833 288.48242 382.86133 L 252.7832 428.38867 C 243.9692 439.63267 251.17234 456.20073 265.40234 457.42773 L 285.54688 459.16406 C 286.18687 459.21906 286.7638 459.58181 287.0918 460.13281 L 297.4375 477.50391 C 304.7345 489.75691 322.78722 489.05722 329.07422 476.19922 L 339.18359 455.51953 C 341.12359 451.55053 339.47977 446.75936 335.50977 444.81836 C 331.54077 442.87736 326.74859 444.52319 324.80859 448.49219 L 314.69922 469.17188 C 313.99522 470.61187 312.00059 470.68941 311.18359 469.31641 L 300.83984 451.94531 C 297.88284 446.97931 292.67987 443.71866 286.92188 443.22266 L 266.77734 441.48633 C 265.18234 441.34933 264.38795 439.51977 265.37695 438.25977 L 298.9707 395.41406 C 311.6757 408.33006 327.93753 417.91497 346.51953 422.54297 C 350.81253 423.60997 355.14784 420.99989 356.21484 416.71289 C 357.28284 412.42589 354.67372 408.08558 350.38672 407.01758 C 332.04072 402.44858 316.38561 392.13516 305.09961 378.28516 C 304.92061 378.03516 304.72172 377.79545 304.51172 377.56445 C 292.83272 362.90745 286 344.3952 286 324.5332 C 286 277.6642 324.131 239.5332 371 239.5332 C 417.869 239.5332 456 277.6642 456 324.5332 C 456 361.7882 432.1405 396.93548 390.0625 407.39648 C 385.6205 408.50348 383.34916 412.82067 384.16016 416.76367 C 384.48416 418.32167 382.20178 413.35522 412.92578 476.19922 C 419.20378 489.04022 437.25545 489.77291 444.56445 477.50391 L 454.90625 460.13477 C 455.23525 459.58277 455.81312 459.21906 456.45312 459.16406 L 476.5957 457.42773 C 490.8307 456.20073 498.0288 439.63067 489.2168 428.38867 L 470.29688 404.25977 C 467.57088 400.78277 462.54245 400.17339 459.06445 402.90039 C 455.58745 405.62639 454.97908 410.65581 457.70508 414.13281 L 476.625 438.25977 C 477.614 439.51977 476.81866 441.34933 475.22266 441.48633 L 455.08008 443.22266 C 449.32208 443.71966 444.11816 446.98127 441.16016 451.94727 L 430.81836 469.31641 C 430.00236 470.68641 428.00873 470.61687 427.30273 469.17188 L 403.36328 420.20508 C 444.90628 406.10708 472 367.3092 472 324.5332 C 472 268.8412 426.691 223.5332 371 223.5332 z M 371 264.5332 C 337.916 264.5332 311 291.4492 311 324.5332 C 311 357.6172 337.916 384.5332 371 384.5332 C 404.084 384.5332 431 357.6172 431 324.5332 C 431 306.4022 422.92756 289.43256 408.85156 277.97656 C 405.42456 275.18756 400.38666 275.70481 397.59766 279.13281 C 394.80866 282.55981 395.32595 287.59772 398.75195 290.38672 C 409.07795 298.79072 415 311.2362 415 324.5332 C 415 348.7952 395.262 368.5332 371 368.5332 C 346.738 368.5332 327 348.7952 327 324.5332 C 327 300.2712 346.738 280.5332 371 280.5332 C 375.418 280.5332 379 276.9512 379 272.5332 C 379 268.1152 375.418 264.5332 371 264.5332 z M 205.98633 319.07812 C 207.48433 327.42712 210.65103 335.28375 215.20703 342.21875 L 175 364.39648 L 155.58203 353.6875 C 151.71303 351.5545 146.84984 352.95913 144.71484 356.82812 C 142.58084 360.69713 143.98647 365.56327 147.85547 367.69727 L 167 378.25781 L 167 414.14844 L 104.27344 366.42578 C 125.18844 358.74778 140.15177 340.56066 144.00977 319.09766 C 163.76877 325.07866 185.49633 325.28812 205.98633 319.07812 z"/></svg>