<?xml version="1.0" encoding="utf-8"?>
<!-- Uploaded to: SVG Repo, www.svgrepo.com, Generator: SVG Repo Mixer Tools -->
<svg width="800px" height="800px" viewBox="0 0 1024 1024" class="icon"  version="1.1" xmlns="http://www.w3.org/2000/svg"><path d="M838.3 931.1h-508V674.7c0-8.3 6.7-15.1 15.1-15.1h492.9v271.5zM245 931.1h-51.4V722.8c0-11.4 9.2-20.6 20.6-20.6H245v228.9z" fill="#CCCCCC" /><path d="M765.7 958.1H266c-17.6 0-32-14.4-32-32v-319c0-17.6 14.4-32 32-32h499.7c17.6 0 32 14.4 32 32v319c0 17.6-14.4 32-32 32z m-491.7-40h483.7v-303H274v303z" fill="#666666" /><path d="M886.7 957.1H790c-17.6 0-32-14.4-32-32V658.2c0-17.6 14.4-32 32-32h96.6c17.6 0 32 14.4 32 32v266.9c0.1 17.6-14.3 32-31.9 32z m-88.7-40h80.6V686.4c0-11.2-9-20.2-20.2-20.2H798v250.9zM241.6 957.1H145c-17.6 0-32-14.4-32-32V658.2c0-17.6 14.4-32 32-32h96.6c17.6 0 32 14.4 32 32v266.9c0 17.6-14.4 32-32 32z m-88.7-40h80.6V666.2h-58.7c-12.1 0-21.9 9.8-21.9 22v228.9z" fill="#666666" /><path d="M937.1 956.5H80.4c-9.3 0-16.9-7.6-16.9-16.9v-1.3c0-9.3 7.6-16.9 16.9-16.9h856.8c9.3 0 16.9 7.6 16.9 16.9v1.3c-0.1 9.3-7.7 16.9-17 16.9z" fill="#999899" /><path d="M940 959H83.6c-10.8 0-19.6-8.7-19.6-19.4v-1.3c0-10.7 8.8-19.4 19.6-19.4H940c10.8 0 19.6 8.7 19.6 19.4v1.3c0 10.7-8.8 19.4-19.6 19.4zM683.7 285.4c-20.7 25.2-68.7 20.5-86.2 1.2-26.7-29.4-69-25.4-86 4.8 5.1-16.2 17.1-31.7 33.5-42.4 21.9-14.4 49.1-19 74.4-12.6l0.9-3.4c-26.3-6.6-54.4-1.8-77.1 13.1-16 10.5-27.6 24.7-33.5 40.2 22.9-140.5 208.7-134.3 241.1-6-22.3-21.8-48.7-17.4-67.1 5.1m-28.2-56l-13.9 5.4-11-10.1 1 14.9-13.1 7.3 14.5 3.7 2.9 14.7 8-12.6 14.8 1.7-9.5-11.5 6.3-13.5M506.5 296.4c0.5 0.3 0.9 0.6 1.4 0.9 0.4-3.8 0.9-7.4 1.5-11-1.2 3.3-2.2 6.7-2.9 10.1M501.2 293.2c1.5 1.6 3.2 3.2 5 4.6 0.1-0.5 0.2-0.9 0.3-1.4-1.8-1-3.5-2-5.3-3.2" fill="#666666" /><path d="M564.8 63.2c-132.7-9-196.2 165.8-68.4 230.7-13.2-10.4-23.4-26-28.5-44.5-7.2-26.2-3.1-54.3 11.3-77.2l3 1.9c-13.8 22-17.8 49.1-10.9 74.4 5.2 18.8 16.1 34.9 30 44.7-23.4-25.5-14-66.6 22.2-82.9 23.9-10.7 43.1-54.7 25.5-82.1-15.7-24.5-11.8-50.8 15.8-65zM500 165.5l-8 12.6-2.9-14.7-14.5-3.7 13-7.2-0.9-14.9 11 10.1 13.9-5.4-6.3 13.4 9.5 11.5-14.8-1.7zM504.8 299.5c0.4-0.4 0.8-0.7 1.2-1-3.3-1.4-6.5-2.9-9.6-4.5 2.7 2 5.5 3.8 8.4 5.5M500.1 303.4c2-0.9 3.9-1.9 5.8-3.1-0.4-0.2-0.8-0.5-1.2-0.8-1.4 1.3-2.9 2.6-4.6 3.9" fill="#666666" /><path d="M447.8 321.6c-27.2-1.3-52.8-13.9-70.1-34.6l2.7-2.2c16.7 19.9 41.4 32 67.6 33.2 19.6 0.9 38.5-4.5 52.1-14.7-31.6 14.6-68.1-7-72.4-46.5-2.8-25.9-38.9-57.8-70.5-49.6-28.2 7.4-52.1-4.5-57.1-35.1-49.5 122.9 97.1 236.8 198.5 136.6-13.9 9.1-31.7 13.8-50.8 12.9z m-83.4-34.1l-3-14.6-14.4-3.7 13-7.3-0.9-14.8 11 10 13.9-5.4-6.3 13.6 9.5 11.4-14.8-1.7-8 12.5zM507.1 302.1l-0.6-1.5c-2.6 2.9-5.2 5.5-7.8 8.1 3-2 5.7-4.2 8.4-6.6M509.3 307.6c-0.3-2.1-0.6-4.2-1.1-6.3-0.3 0.3-0.8 0.6-1.1 0.9 0.8 1.7 1.5 3.5 2.2 5.4" fill="#666666" /><path d="M513.8 310.6c4.4 16 3.3 34.3-3.4 52.1-9.6 25.4-29.5 45.7-54.7 55.8l-1.3-3.3c24.4-9.5 43.6-29.1 52.8-53.6 6.9-18.3 7.6-38 2-54.1 4.2 34.5-27.7 62.5-66.7 54.4-25.6-5.4-67.2 19-69.1 51.4-1.7 29-20.5 48-51.1 43.3 101.8 84.9 255.8-18.9 191.5-146z m-76.4 119.2l-8 12.5-2.9-14.6L412 424l13-7.3-0.9-14.9 11 10.1 13.9-5.4-6.3 13.6 9.6 11.4-14.9-1.7zM510.2 300.8c-0.5 0.1-1.1 0.1-1.6 0.1 1.9 3.3 3.6 6.6 5.3 9.8-0.9-3.4-2.2-6.7-3.7-9.9M516.2 300.3c-2.1-0.4-4.3-0.7-6.5-0.9 0.2 0.4 0.3 0.9 0.5 1.3 2-0.1 4-0.3 6-0.4" fill="#666666" /><path d="M520.5 296.9c16.6 0.8 33.8 7.4 48.8 19.3 21.3 16.9 34.5 42.1 36.3 69.1l-3.5 0.2c-1.8-25.9-14.5-50.2-35-66.6-15.4-12.2-33.9-18.9-50.9-18.6 34.2 6.7 51 45.6 31.2 80-13 22.7-2.6 69.6 27.8 81.4 27.2 10.5 39.5 34.2 25.5 61.8 112.5-70.3 61-248.3-80.2-226.6zM605.2 416l-8 12.5-2.9-14.6-14.5-3.7 13-7.3-0.9-14.8 11 10 13.9-5.4-6.2 13.5 9.5 11.5-14.9-1.7z" fill="#666666" /><path d="M510 297.3c-0.1 0.5-0.3 1.1-0.4 1.6 3.7-0.8 7.4-1.4 11-2-3.6-0.2-7.1 0-10.6 0.4M508.1 297.4c0.1 0.1 0.2 0.1 0.3 0.2 0-0.1 0.1-0.1 0.1-0.2h-0.4M507.7 299.2c0.1-0.6 0.2-1.2 0.2-1.8h-0.5l0.3 1.8M507.7 299.3c0-0.1 0-0.1 0 0M507.7 299.2c-0.4 0.5-0.8 0.9-1.2 1.3 0.1 0.1 0.3 0.2 0.4 0.3l0.8-1.6M508.1 301c-0.1-0.6-0.2-1.2-0.4-1.7l0.4 1.7c-0.1 0 0 0 0 0M507.7 299.2v0.1-0.1M507.8 299.3h-0.1c0.1-0.1 0.1-0.1 0.1 0M508.4 297.6c-0.2 0.6-0.5 1-0.7 1.6l0.7-1.6c0.1 0.1 0.1 0 0 0" fill="#666666" /><path d="M509.3 298.4l-1.6 0.8 1.8-0.3c-0.1-0.1-0.1-0.3-0.2-0.5M509.6 298.9h-0.1c0 0.1 0.1 0.1 0.1 0.2v-0.2M509.7 299.4c-0.1-0.1-0.1-0.2-0.2-0.4 0 0.1-0.1 0.2-0.1 0.4h0.3M509.5 299.5c-0.5-0.2-1.1-0.2-1.6-0.3l1.6 0.3M509 300.5l-1.2-1.3c0.3 0.5 0.6 1.1 0.9 1.6 0-0.1 0.2-0.2 0.3-0.3M508.6 300.9h-0.1 0.1M508.2 301.2l0.3-0.3h-0.4c0 0.2 0 0.3 0.1 0.3M506.4 300.6s0.1 0 0 0c0-0.1 0-0.1-0.1-0.1 0.1 0 0.1 0.1 0.1 0.1M506 300.3c0.1 0.1 0.3 0.1 0.4 0.2-0.1-0.1-0.1-0.2-0.2-0.4-0.1 0.1-0.2 0.1-0.2 0.2M506.2 300c0 0.1 0 0.1 0 0 0.5-0.2 1-0.4 1.5-0.7l-1.5 0.7M506 298.9l1.7 0.3c-0.6-0.2-1.1-0.5-1.6-0.8-0.1 0.2-0.1 0.4-0.1 0.5M506 298.4s0 0.1 0 0c0.1 0 0.1-0.1 0.1-0.1 0 0.1-0.1 0.1-0.1 0.1" fill="#666666" /><path d="M506.2 297.8c0 0.2-0.1 0.3-0.1 0.5l0.3-0.3-0.2-0.2M506.5 298c0.4 0.4 0.7 0.8 1.2 1.2l-1.2-1.2M508 297.3v0.1h0.2c-0.1 0-0.2 0-0.2-0.1M511.4 291.4c-1.1 1.9-2 3.9-2.9 6 0.5-0.1 1-0.1 1.4-0.1 0.5-2 0.9-3.9 1.5-5.9M367.3 676h52.5v52.5h-52.5zM366.3 805h52.5v52.5h-52.5zM606.4 676h52.5v52.5h-52.5zM605.4 805h52.5v52.5h-52.5zM486.9 676h52.5v52.5h-52.5zM485.9 805h52.5v52.5h-52.5z" fill="#666666" /></svg>