<svg fill="#000000" xmlns="http://www.w3.org/2000/svg"  viewBox="0 0 50 50" width="50px" height="50px"><path d="M 5.101563 3 C 3.945313 3 3 3.945313 3 5.101563 L 3 44.902344 C 3 46.054688 3.945313 47 5.101563 47 L 16.902344 47 C 17.316406 47 17.703125 46.890625 18.03125 46.699219 C 18.34375 46.886719 18.707031 47 19.097656 47 L 30.265625 47 C 29.816406 46.375 29.425781 45.707031 29.101563 45 L 19.097656 45 C 19.050781 45 19 44.949219 19 44.902344 L 19 14.097656 C 19 14.050781 19.050781 14 19.097656 14 L 30.902344 14 C 30.949219 14 31 14.050781 31 14.097656 L 31 32.078125 C 31.597656 31.402344 32.265625 30.796875 33 30.265625 L 33 5.101563 C 33 5.050781 33.050781 5 33.097656 5 L 44.902344 5 C 44.949219 5 45 5.050781 45 5.101563 L 45 29.101563 C 45.707031 29.425781 46.375 29.816406 47 30.265625 L 47 5.101563 C 47 3.941406 46.058594 3 44.902344 3 L 33.097656 3 C 31.941406 3 31 3.941406 31 5.101563 L 31 12.011719 C 30.964844 12.007813 30.933594 12 30.902344 12 L 19.097656 12 C 19.066406 12 19.035156 12.007813 19 12.011719 L 19 5.101563 C 19 3.945313 18.054688 3 16.902344 3 Z M 5.101563 5 L 16.902344 5 C 16.945313 5 17 5.054688 17 5.101563 L 17 45 C 17 44.832031 16.945313 45 16.902344 45 L 5.101563 45 C 5.054688 45 5 44.945313 5 44.902344 L 5 5.101563 C 5 5.054688 5.054688 5 5.101563 5 Z M 8 11 C 7.640625 10.996094 7.304688 11.183594 7.121094 11.496094 C 6.941406 11.808594 6.941406 12.191406 7.121094 12.503906 C 7.304688 12.816406 7.640625 13.003906 8 13 L 14 13 C 14.359375 13.003906 14.695313 12.816406 14.878906 12.503906 C 15.058594 12.191406 15.058594 11.808594 14.878906 11.496094 C 14.695313 11.183594 14.359375 10.996094 14 11 Z M 36 11 C 35.640625 10.996094 35.304688 11.183594 35.121094 11.496094 C 34.941406 11.808594 34.941406 12.191406 35.121094 12.503906 C 35.304688 12.816406 35.640625 13.003906 36 13 L 42 13 C 42.359375 13.003906 42.695313 12.816406 42.878906 12.503906 C 43.058594 12.191406 43.058594 11.808594 42.878906 11.496094 C 42.695313 11.183594 42.359375 10.996094 42 11 Z M 22 20 C 21.640625 19.996094 21.304688 20.183594 21.121094 20.496094 C 20.941406 20.808594 20.941406 21.191406 21.121094 21.503906 C 21.304688 21.816406 21.640625 22.003906 22 22 L 28 22 C 28.359375 22.003906 28.695313 21.816406 28.878906 21.503906 C 29.058594 21.191406 29.058594 20.808594 28.878906 20.496094 C 28.695313 20.183594 28.359375 19.996094 28 20 Z M 40 30 C 34.488281 30 30 34.488281 30 40 C 30 45.511719 34.488281 50 40 50 C 45.511719 50 50 45.511719 50 40 C 50 34.488281 45.511719 30 40 30 Z M 40 32 C 44.429688 32 48 35.570313 48 40 C 48 44.429688 44.429688 48 40 48 C 35.570313 48 32 44.429688 32 40 C 32 35.570313 35.570313 32 40 32 Z M 8 34 C 7.640625 33.996094 7.304688 34.183594 7.121094 34.496094 C 6.941406 34.808594 6.941406 35.191406 7.121094 35.503906 C 7.304688 35.816406 7.640625 36.003906 8 36 L 14 36 C 14.359375 36.003906 14.695313 35.816406 14.878906 35.503906 C 15.058594 35.191406 15.058594 34.808594 14.878906 34.496094 C 14.695313 34.183594 14.359375 33.996094 14 34 Z M 44.238281 35.347656 L 38.847656 41.640625 L 35.597656 39.199219 L 34.402344 40.800781 L 39.152344 44.359375 L 45.761719 36.652344 Z M 8 38 C 7.640625 37.996094 7.304688 38.183594 7.121094 38.496094 C 6.941406 38.808594 6.941406 39.191406 7.121094 39.503906 C 7.304688 39.816406 7.640625 40.003906 8 40 L 14 40 C 14.359375 40.003906 14.695313 39.816406 14.878906 39.503906 C 15.058594 39.191406 15.058594 38.808594 14.878906 38.496094 C 14.695313 38.183594 14.359375 37.996094 14 38 Z M 22 39 C 21.449219 39 21 39.449219 21 40 C 21 40.550781 21.449219 41 22 41 L 28.050781 41 C 28.023438 40.667969 28 40.339844 28 40 C 28 39.660156 28.023438 39.332031 28.050781 39 Z"/></svg>