<svg xmlns="http://www.w3.org/2000/svg" width="64" height="64" viewBox="0 0 64 64"><path fill="#85cbf8" d="M51,57H13c-3.314,0-6-2.686-6-6V13c0-3.314,2.686-6,6-6h38c3.314,0,6,2.686,6,6v38	C57,54.314,54.314,57,51,57z"/><path fill="#f9dd8f" d="M51,57H13c-3.314,0-6-2.686-6-6V20c0-3.314,2.686-6,6-6h38c3.314,0,6,2.686,6,6v31	C57,54.314,54.314,57,51,57z"/><path fill="#5dbc9d" d="M51,57H13c-3.314,0-6-2.686-6-6V27c0-3.314,2.686-6,6-6h38c3.314,0,6,2.686,6,6v24	C57,54.314,54.314,57,51,57z"/><path fill="#f283a5" d="M51,57H13c-3.314,0-6-2.686-6-6V35c0-3.314,2.686-6,6-6h38c3.314,0,6,2.686,6,6v16	C57,54.314,54.314,57,51,57z"/><path fill="#faefde" d="M43.313,37c-1.735,0-3.204,1.143-3.805,2.771C38.38,42.823,35.444,45,32,45s-6.38-2.177-7.507-5.229	C23.892,38.143,22.423,37,20.687,37H7v14c0,3.314,2.686,6,6,6h38c3.314,0,6-2.686,6-6V37H43.313z"/><path fill="#ace3ff" d="M54,7H10L9,8c0,1.657,1.343,3,3,3h40c1.657,0,3-1.343,3-3L54,7z"/><path fill="#ffeb9b" d="M54,14H10l-1,1c0,1.657,1.343,3,3,3h40c1.657,0,3-1.343,3-3L54,14z"/><path fill="#72caaf" d="M54,21H10l-1,1c0,1.657,1.343,3,3,3h40c1.657,0,3-1.343,3-3L54,21z"/><path fill="#f7a1c8" d="M54,29H10l-1,1c0,1.657,1.343,3,3,3h40c1.657,0,3-1.343,3-3L54,29z"/><path fill="#8d6c9f" d="M51,58H13c-3.859,0-7-3.141-7-7V20c0-3.859,3.141-7,7-7h38c3.859,0,7,3.141,7,7v31	C58,54.859,54.859,58,51,58z M13,15c-2.757,0-5,2.243-5,5v31c0,2.757,2.243,5,5,5h38c2.757,0,5-2.243,5-5V20c0-2.757-2.243-5-5-5H13	z"/><path fill="#8d6c9f" d="M51,58H13c-3.859,0-7-3.141-7-7V13c0-3.859,3.141-7,7-7h38c3.859,0,7,3.141,7,7v38	C58,54.859,54.859,58,51,58z M13,8c-2.757,0-5,2.243-5,5v38c0,2.757,2.243,5,5,5h38c2.757,0,5-2.243,5-5V13c0-2.757-2.243-5-5-5H13z"/><path fill="#8d6c9f" d="M51,58H13c-3.859,0-7-3.141-7-7V27c0-3.859,3.141-7,7-7h38c3.859,0,7,3.141,7,7v24	C58,54.859,54.859,58,51,58z M13,22c-2.757,0-5,2.243-5,5v24c0,2.757,2.243,5,5,5h38c2.757,0,5-2.243,5-5V27c0-2.757-2.243-5-5-5H13	z"/><path fill="#efd8be" d="M11,57h42c2-1,2-1,4-3l0,0c0-1.657-1.343-3-3-3H10c-1.657,0-3,1.343-3,3l0,0C9,56,9,56,11,57z"/><path fill="#8d6c9f" d="M51,58H13c-3.859,0-7-3.141-7-7V35c0-3.859,3.141-7,7-7h38c3.859,0,7,3.141,7,7v16	C58,54.859,54.859,58,51,58z M13,30c-2.757,0-5,2.243-5,5v16c0,2.757,2.243,5,5,5h38c2.757,0,5-2.243,5-5V35c0-2.757-2.243-5-5-5H13	z"/><path fill="#8d6c9f" d="M51,58H13c-3.859,0-7-3.141-7-7V37c0-0.553,0.447-1,1-1h13.688c2.113,0,3.975,1.344,4.744,3.424	C26.441,42.161,29.081,44,32,44s5.559-1.839,6.568-4.576c0.77-2.08,2.631-3.424,4.744-3.424H57c0.553,0,1,0.447,1,1v14	C58,54.859,54.859,58,51,58z M8,38v13c0,2.757,2.243,5,5,5h38c2.757,0,5-2.243,5-5V38H43.313c-1.267,0-2.393,0.831-2.867,2.117	C39.146,43.636,35.752,46,32,46s-7.146-2.364-8.445-5.883C23.08,38.831,21.954,38,20.688,38H8z"/><path fill="#8d6c9f" d="M47,49c-0.552,0-1,0.448-1,1v2c0,0.552,0.448,1,1,1s1-0.448,1-1v-2C48,49.448,47.552,49,47,49z M52,53c0.552,0,1-0.448,1-1v-2c0-0.552-0.448-1-1-1s-1,0.448-1,1v2C51,52.552,51.448,53,52,53z M32,49c-0.552,0-1,0.448-1,1v2	c0,0.552,0.448,1,1,1s1-0.448,1-1v-2C33,49.448,32.552,49,32,49z M27,49c-0.552,0-1,0.448-1,1v2c0,0.552,0.448,1,1,1s1-0.448,1-1v-2	C28,49.448,27.552,49,27,49z M22,49c-0.552,0-1,0.448-1,1v2c0,0.552,0.448,1,1,1s1-0.448,1-1v-2C23,49.448,22.552,49,22,49z M17,49	c-0.552,0-1,0.448-1,1v2c0,0.552,0.448,1,1,1s1-0.448,1-1v-2C18,49.448,17.552,49,17,49z M12,53c0.552,0,1-0.448,1-1v-2	c0-0.552-0.448-1-1-1s-1,0.448-1,1v2C11,52.552,11.448,53,12,53z M42,49c-0.552,0-1,0.448-1,1v2c0,0.552,0.448,1,1,1s1-0.448,1-1v-2	C43,49.448,42.552,49,42,49z M37,49c-0.552,0-1,0.448-1,1v2c0,0.552,0.448,1,1,1s1-0.448,1-1v-2C38,49.448,37.552,49,37,49z"/></svg>